<?xml version="1.0" encoding="utf-8"?>
<!-- Generator: Adobe Illustrator 16.0.0, SVG Export Plug-In . SVG Version: 6.00 Build 0)  -->
<!DOCTYPE svg PUBLIC "-//W3C//DTD SVG 1.1//EN" "http://www.w3.org/Graphics/SVG/1.1/DTD/svg11.dtd">
<svg version="1.1" id="Layer_1" xmlns="http://www.w3.org/2000/svg" xmlns:xlink="http://www.w3.org/1999/xlink" x="0px" y="0px"
	 width="60px" height="60px" viewBox="0 0 60 60" enable-background="new 0 0 60 60" xml:space="preserve">
<g>
	<g id="flights">
		<path fill="#231F20" d="M58.2,40.8l0.2-4l-31-0.7c-1,0-1.9-0.2-2.8-0.5c-4-1.3-8.1-1.9-12.3-1.9c-0.7,0-1.4,0-2.1,0.1l-7.2,0.4
			l2.4,7.1C5.6,42,6.2,42.5,7,42.5h49.5C57.4,42.5,58.2,41.7,58.2,40.8z"/>
		<path fill="#231F20" d="M52.6,32.3v-4.4c0-0.6,0.4-1.1,0.9-1.1h2.6c0.5,0,0.9-0.5,0.9-1.1v-1.9c0-0.6-0.4-1.1-0.9-1.1H29.3
			c-0.3,0-0.6,0.2-0.8,0.5l-1.7,3.3H7.7c-0.3,0-0.6,0.3-0.6,0.6s0.3,0.6,0.6,0.6h1.4v1.7l-7.7,0.4L2.5,33l7.5-0.4
			c0.7,0,1.5-0.1,2.2-0.1c4.3,0,8.6,0.7,12.7,1.9c0.8,0.3,1.7,0.4,2.5,0.4L43,35.3l9.6,0.2l5.8,0.1l0.1-3.2L52.6,32.3z M12.4,29.4
			c0,0-0.1,0-0.1,0c-0.6,0-1.3,0-1.9,0v-1.7h2L12.4,29.4L12.4,29.4z M15.6,29.5c-0.7-0.1-1.3-0.1-2-0.1v-1.7h2V29.5z M18.8,29.8
			c-0.7-0.1-1.3-0.1-2-0.2v-1.9h2V29.8z M22.1,30c-0.7,0-1.4-0.1-2-0.1v-2.2h2V30z M25,30.1c-0.5,0-1.1,0-1.6,0v-2.3h2.8L25,30.1z
			 M32.8,29.1c0,0.2-0.2,0.4-0.4,0.4h-1.9c-0.2,0-0.4-0.2-0.4-0.4v-0.7c0-0.2,0.2-0.4,0.4-0.4h1.9c0.2,0,0.4,0.2,0.4,0.4V29.1z
			 M32.8,25.9c0,0.2-0.2,0.4-0.4,0.4h-1.9c-0.2,0-0.4-0.2-0.4-0.4v-0.7c0-0.2,0.2-0.4,0.4-0.4h1.9c0.2,0,0.4,0.2,0.4,0.4V25.9z
			 M37.3,29.1c0,0.2-0.2,0.4-0.4,0.4h-1.9c-0.2,0-0.4-0.2-0.4-0.4v-0.7c0-0.2,0.2-0.4,0.4-0.4h1.9c0.2,0,0.4,0.2,0.4,0.4V29.1z
			 M37.3,25.9c0,0.2-0.2,0.4-0.4,0.4h-1.9c-0.2,0-0.4-0.2-0.4-0.4v-0.7c0-0.2,0.2-0.4,0.4-0.4h1.9c0.2,0,0.4,0.2,0.4,0.4V25.9z
			 M41.7,29.1c0,0.2-0.2,0.4-0.4,0.4h-1.9c-0.2,0-0.4-0.2-0.4-0.4v-0.7c0-0.2,0.2-0.4,0.4-0.4h1.9c0.2,0,0.4,0.2,0.4,0.4V29.1z
			 M41.7,25.9c0,0.2-0.2,0.4-0.4,0.4h-1.9c-0.2,0-0.4-0.2-0.4-0.4v-0.7c0-0.2,0.2-0.4,0.4-0.4h1.9c0.2,0,0.4,0.2,0.4,0.4V25.9z
			 M46.2,29.1c0,0.2-0.2,0.4-0.4,0.4h-1.9c-0.2,0-0.4-0.2-0.4-0.4v-0.7c0-0.2,0.2-0.4,0.4-0.4h1.9c0.2,0,0.4,0.2,0.4,0.4V29.1z
			 M46.2,25.9c0,0.2-0.2,0.4-0.4,0.4h-1.9c-0.2,0-0.4-0.2-0.4-0.4v-0.7c0-0.2,0.2-0.4,0.4-0.4h1.9c0.2,0,0.4,0.2,0.4,0.4V25.9z
			 M50.6,29.1c0,0.2-0.2,0.4-0.4,0.4h-1.9c-0.2,0-0.4-0.2-0.4-0.4v-0.7c0-0.2,0.2-0.4,0.4-0.4h1.9c0.2,0,0.4,0.2,0.4,0.4V29.1z
			 M50.6,25.9c0,0.2-0.2,0.4-0.4,0.4h-1.9c-0.2,0-0.4-0.2-0.4-0.4v-0.7c0-0.2,0.2-0.4,0.4-0.4h1.9c0.2,0,0.4,0.2,0.4,0.4V25.9z"/>
		<path fill="#231F20" d="M46.1,11.5h-2.3c-0.2,0-0.3,0.1-0.3,0.2L42.4,16h-3.3c-0.5,0-0.9,0.3-1.1,0.7l-1.7,4.7c0,0,0,0,0,0.1H53v-4.3
			c0-0.6-0.5-1.1-1.1-1.1h-2.3l0.6-2.1c0.1-0.2-0.1-0.4-0.3-0.4h-2.3c-0.2,0-0.3,0.1-0.3,0.2L46.5,16h-1.1l1-4
			C46.5,11.7,46.3,11.5,46.1,11.5z M41.7,19.3c0,0.2-0.2,0.4-0.4,0.4h-1.9c-0.2,0-0.4-0.2-0.4-0.4v-0.7c0-0.2,0.2-0.4,0.4-0.4h1.9
			c0.2,0,0.4,0.2,0.4,0.4V19.3z M47.8,18.5c0-0.2,0.2-0.4,0.4-0.4h1.9c0.2,0,0.4,0.2,0.4,0.4v0.7c0,0.2-0.2,0.4-0.4,0.4h-1.9
			c-0.2,0-0.4-0.2-0.4-0.4V18.5z M45.7,18.1c0.2,0,0.4,0.2,0.4,0.4v0.7c0,0.2-0.2,0.4-0.4,0.4h-1.9c-0.2,0-0.4-0.2-0.4-0.4v-0.7
			c0-0.2,0.2-0.4,0.4-0.4H45.7z"/>
	</g>
</g>
</svg>
