<?xml version="1.0" encoding="utf-8"?>
<!DOCTYPE svg PUBLIC "-//W3C//DTD SVG 1.1//EN" "http://www.w3.org/Graphics/SVG/1.1/DTD/svg11.dtd">
<svg version="1.1" id="Layer_1" xmlns="http://www.w3.org/2000/svg" xmlns:xlink="http://www.w3.org/1999/xlink" x="0px" y="0px"
	 width="2040.5px" height="1178.5px" viewBox="0 0 2040.5 1178.5" enable-background="new 0 0 2040.5 1178.5" xml:space="preserve">
<!-- background -->
<g>
	<path fill="#e3dac9" d="M422.985-53.964"/>
	<polygon fill="#e3dac9" points="1264.4,520.3 1266.2,520.3 1268.6,518 1266.1,515.2 1262.1,513.9 1260,516.3 1258.4,518.7
			1251.3,521.9 1248.8,525.1 1249.5,529.8 1253,532.9 1256.9,534.2 1258.7,533.7 1259.6,531.6 1261.3,529.1 1262.5,526.6 1262,524.2
			1261.1,522.1 1262.3,520.7 	"/>
		<polygon fill="#e3dac9" points="1224.9,495.7 1225.6,498.5 1225.8,499.7 1226.9,500.3 1229.4,500.2 1230.1,500.5 1232.3,504
			1233.6,505.6 1237.1,506.7 1238.8,507.8 1239.6,508.9 1238.9,509.5 1235.4,509.7 1232.7,510.3 1230,511.7 1227,514 1231.4,515.7
			1235.8,515.1 1244.2,512.6 1248.8,514 1250.8,514 1251.6,511.8 1251.7,508.6 1252.1,506.9 1253.2,505.8 1255.3,504.5 1258.9,502.7
			1275.2,498.3 1281.4,495.8 1286.2,492.8 1285.9,490.2 1287.7,487.7 1288.9,485.6 1289.2,483.3 1287.9,478.8 1287.5,477.6
			1286.5,477.1 1287.4,475 1284,476.7 1278.8,481.7 1274,485.4 1271.1,483.7 1272,482.9 1273.7,480.5 1270.6,481.2 1267.7,483.3
			1265.7,486.6 1264.9,490.9 1263.5,494.2 1259.8,496.8 1252.7,499.7 1249.5,499.9 1244.9,499.5 1241.5,497.6 1242.4,494.2
			1244.1,490.2 1241.4,489 1237.2,488.9 1234.2,488.3 1231.3,491.2 1225.5,490.3 1223.2,493.4 1223.9,493.3 	"/>
		<polygon fill="#e3dac9" points="1330.3,485.7 1331.4,492.1 1334.2,494.9 1335.8,495.3 1336.6,495.9 1337.5,495.8 1343,490.7
			1344,490.3 1346.1,489.7 1353.1,487 1360.3,486.3 1362.9,485.4 1365.3,483.8 1366.7,482.2 1368.3,481 1373.7,479.9 1375.5,478.1
			1376.8,476.5 1378.3,475.7 1383.7,477.5 1386,477.3 1387.6,474.2 1383.8,474.1 1380.7,473.4 1378.3,471.4 1376.4,467.7
			1376.3,466.6 1376.8,465.7 1377.5,464.7 1377.7,463.7 1377.3,462.3 1376.2,461.9 1374.9,461.7 1373.9,461.3 1372.5,459.9
			1370,457.7 1367.1,453.9 1363.7,453 1356.5,453.2 1358.3,457 1359,458.2 1356.8,458.9 1354.6,458.3 1352.5,458 1350.5,459.6
			1350.1,461.7 1350.6,464.7 1350.7,467.8 1349.3,471 1346.7,466.2 1348.1,464.7 1344.5,462.1 1339.7,459.8 1335.2,459.5 1332,462.9
			1332.9,462.8 1335,463.1 1335.8,462.9 1335.3,463.8 1334.9,464.7 1334.3,465.4 1333.3,466.2 1334.1,468 1335.2,469.6 1336.6,470.5
			1338.2,471.1 1335.6,472.2 1330.8,471.4 1328.6,472.5 1329.5,478.2 	"/>
		<polygon fill="#e3dac9" points="1098.4,490.5 1101.4,490.3 1102.5,489.7 1102.9,488.6 1102.6,487.4 1101.4,487 1100.6,487.2
			1099.3,488.4 1098.3,488.4 1097,488.2 1092.4,488.4 1093.1,485.6 1092,484 1089.8,483.4 1087.3,483.8 1087.9,482.9 1088.4,480.6
			1084.7,480.6 1080.6,482.6 1079.2,484 1078,488.5 1075.4,492.2 1075,493.5 1077,495.9 1080.9,496.7 1085,496 1090.3,492.7 	"/>
		<polygon fill="#e3dac9" points="1469.1,810.8 1465.2,809.5 1460.9,813.3 1446.2,820.9 1441.2,822.6 1436.5,822.2 1428.9,817.5
			1424.7,816.3 1412.1,817.7 1408.2,816.3 1401.8,810.1 1397.6,807.4 1395.8,809.3 1396.3,815 1397.7,817.7 1400.2,820 1403.3,824.1
			1404.3,826.9 1404.7,830.2 1406,832.7 1415.1,835.1 1417.5,835.3 1434,833.6 1451.9,838.2 1461.3,838.2 1466.9,832.2 1466.1,832.3
			1463.2,832.2 1466.2,827.4 1468.7,824 1469.4,820.9 1466.9,816.4 1470.5,814.2 	"/>
		<polygon fill="#e3dac9" points="1041.7,1022 1043.8,1023.3 1045.8,1024 1048.2,1023 1049.4,1026.2 1054.3,1021.3 1052.4,1021.3
			1051.3,1020.5 1050.9,1018.9 1050.7,1016.8 1046.1,1016.5 1040.6,1017.8 1035.5,1020.7 1035.2,1022.6 1037.2,1021.7 1039.1,1021.3
				"/>
		<polygon fill="#e3dac9" points="1368.6,937.2 1367.7,938.7 1367,940.7 1366.6,943.2 1365.2,956.3 1365.4,961 1367.2,960.2
			1367.8,959.6 1367.1,964.5 1365.9,968.6 1366,972 1369.1,975.1 1369.2,971.2 1370.4,968.3 1371,966 1369.1,964 1371.7,962.9
			1372.4,960.2 1371.8,957.5 1371,956.3 1369.6,955.1 1369.9,949.2 1369.1,947 1369.1,945.2 1371,943.5 1372.1,941 1372.6,937.8
			1372.8,934.5 1371.6,930.1 1370.6,928.1 1369.1,926.5 1369.4,931.4 1369.1,935.7 	"/>
		<polygon fill="#e3dac9" points="1120.5,213.2 1121,212.6 1121.7,211.9 1124.2,210.1 1121.6,208.1 1117,207.2 1113.7,207.9
			1110.4,210.4 1102,214.2 1098.2,215.2 1097.8,213 1096.9,211.1 1095.5,210.2 1093.9,211.1 1092.6,213.6 1092.9,215.6 1093.3,217.1
			1093.3,218.4 1089.1,225.1 1089.8,227.3 1094.4,229.6 1096.1,228.3 1097.7,228.9 1099.3,230.6 1100.6,233.1 1111.2,228
			1114.2,224.9 1113.7,222.9 1115.7,220.7 1121.5,216.9 1120.3,216.3 1119.9,215.5 1119.5,214.6 1118.9,213.7 1119.7,213.7 	"/>
		<polygon fill="#e3dac9" points="1628.7,964 1625.8,963.4 1622.9,961.7 1620.8,959.2 1619.9,956.3 1617.5,957.8 1622.1,950.3
			1623.5,946.6 1623.8,935.6 1623.4,933.6 1621.6,932.9 1617,933.6 1614.2,933.3 1612.5,931.2 1615.7,924 1616.2,921.3 1614.9,911.9
			1613.8,910.7 1606.5,908 1605.6,906.6 1604,902.8 1602.7,901.6 1598.1,904.6 1594.5,914.6 1590.4,935.8 1589,940.4 1586.8,945.2
			1584,949.8 1581.1,953.7 1577.6,957 1567,963.6 1555.2,973.3 1547.9,976.7 1541.6,985.6 1538.8,988.7 1539.1,987.7 1540.1,984
			1536.1,982.5 1533.9,983.3 1531.9,984.8 1528.3,985.6 1526.9,984 1529.4,980.6 1535,974.7 1534.3,972.9 1534.4,972 1535,969.8
			1532.6,969.6 1530.2,971.5 1527.6,974.2 1525,976.2 1525.4,973.4 1526.4,971.1 1527.8,969.2 1528.7,966.9 1529.1,964.3 1528.7,956
			1522.9,958.8 1520.9,959.2 1518.6,958.7 1516.5,957.6 1515.2,956.5 1515.8,956 1519.7,954.8 1524.6,952 1528.9,948.5 1531.2,944.8
			1524.1,949.3 1520.4,950.9 1516.5,951.2 1518.1,948.5 1522.7,945.7 1525,943.2 1522.7,943.4 1520.4,943.9 1518.4,944.9
			1516.4,946.4 1514.6,943.6 1516.5,941 1520.1,939.1 1523.3,938.4 1526.9,936.9 1530.9,929.8 1533.8,927.8 1533.1,925.6
			1531.9,924.6 1530.5,924.8 1528.7,926 1530.5,922.9 1532.6,919.7 1527.6,918.3 1527.2,918.4 1525.7,917.2 1524.6,915.7
			1525.7,915.1 1526.7,914.8 1528.4,913.6 1529.6,913.3 1531,912.6 1532.8,911.1 1534.5,909.2 1535.1,908 1536.4,903.1 1539.4,899.4
			1546.1,893.3 1549.2,888.8 1550.7,885.3 1551.1,881.1 1551,875.3 1552.4,870.8 1555.6,867.3 1562.2,861.9 1565.7,858.4
			1567.9,855.1 1569.2,851.4 1569.6,846.9 1570.3,844.9 1571.7,842.9 1574.6,839.9 1575.5,838.4 1576.3,836.6 1577.4,834.8
			1579.5,833.5 1587.5,833.5 1589.7,832.8 1591.4,831.2 1591.7,829.5 1586.2,826.9 1580,818.4 1575.9,816.2 1573.7,817.2
			1570.6,820.3 1563.7,830.9 1556.9,839 1554.6,841.1 1551.3,843.4 1547.6,845.2 1544.6,846 1541,844.8 1538.4,842.3 1535.6,840.6
			1531.4,841.2 1529.9,842.9 1529.7,844.4 1528.9,845.6 1523.7,846.6 1522.2,847.9 1520.9,849.4 1519.1,850.8 1517.3,850.9
			1513.9,850.7 1512.4,851.6 1507.6,857.8 1505.8,861.1 1503,868.8 1501.3,871.9 1498.8,875.1 1497,878.2 1496.4,881.1 1498.3,883.8
			1498.3,885.3 1493.4,883.6 1491.3,883.7 1488.5,885.3 1486.5,887.1 1485,889.5 1482.3,894.5 1482.6,896.3 1479.4,899.8
			1478.6,903.3 1478,907.6 1476.6,909.1 1474.5,910.2 1472.3,913.3 1472,916.6 1472.7,920.3 1474,923.3 1475.5,924.6 1475.7,925.7
			1474.2,928.1 1471.6,930.1 1468.8,930.7 1470.7,934.4 1470,936.8 1469,939.5 1469.9,943.3 1465.9,940.8 1464.3,940.3 1461.8,940.2
			1461.2,941.5 1462.7,944.1 1466.1,947.9 1462.9,949.7 1462.6,951.3 1463.3,953.2 1463.7,956 1463.1,959.7 1462.4,960.8
			1457.5,959.2 1456.3,959.6 1454.7,960.4 1453.3,960.8 1452.7,959.9 1452.4,958.6 1451.7,957.1 1451,956.2 1450.1,956 1448.5,957.1
			1444,962 1441.6,963.5 1444.5,957.9 1445,956 1445.1,953.8 1444.7,952.3 1444.2,951.6 1443.8,951.9 1443.3,953.8 1442.1,952
			1441.1,949.2 1441.6,947.9 1439.6,947.3 1438.5,947.5 1437.2,948.8 1435.5,949.6 1434.3,947.5 1434,944.7 1434.7,943.3
			1435.6,942.5 1437.8,937.2 1439.7,934.7 1441.8,931.1 1442.2,927.8 1438.9,926.1 1435,929.6 1432.3,936.8 1429.2,942.3 1424.6,941
			1419.2,932.3 1416.7,929.2 1409.8,922.6 1408.3,919.8 1412,919.2 1413,915.9 1412.3,912.3 1410.1,910.4 1408.5,908.6 1408.3,904.7
			1407.7,900.9 1404.4,899.5 1404.3,894.8 1395,889.3 1397.1,887 1401.2,887.9 1406.1,891.4 1410.2,895.7 1412,898.9 1412.6,901.4
			1414.2,903.6 1417.5,906.7 1419.8,907.2 1421.7,904.6 1423.6,901.3 1424.9,899.7 1428.9,897.2 1430.4,891.7 1430.9,885.5
			1431.8,880.9 1426.5,879.7 1420.7,879.4 1420.7,877.8 1432.7,878.1 1436.9,879.4 1446.3,863.6 1450.6,854.8 1450.3,848.3
			1451.2,847.1 1452.9,843.5 1449.1,844.6 1442.7,849.4 1439.3,851.3 1429.1,852 1422.9,856 1418.9,855.6 1414.9,853.9 1411,852.9
			1403,852.4 1399,851 1396.2,848.2 1399.3,847 1408.6,849.9 1420.7,849.9 1432.1,846.8 1443,841.9 1439.3,837.4 1431.9,836.9
			1417.8,838.9 1399.7,836.5 1398.3,834.3 1397.5,827.9 1396.2,823.3 1394.6,819.7 1393.2,815.4 1392.7,809.7 1393.6,804.4
			1396.1,801.7 1400,801.8 1404.8,804.4 1405.8,805.9 1407,808.6 1408.6,811.2 1410.5,812.4 1417.8,810.7 1422.7,810.9 1426.6,811.9
			1438.3,817.1 1442.9,817.8 1447.4,817.3 1451,814.6 1452.8,812.7 1459.1,807.5 1463.6,802.4 1465.1,801.1 1473.9,799.3
			1478.2,797.3 1480,792.7 1482.2,790.6 1492.5,790.6 1496,788.8 1492.7,786 1498.3,773.5 1497.1,768.4 1498.5,767.5 1500,767.2
			1501.4,767.6 1502.1,769.1 1502.6,770.1 1503.7,769.7 1505.7,768.4 1510.8,767.9 1513.7,768.6 1519.1,773.6 1522.2,774.7
			1528.4,774.7 1529.2,773.3 1534.1,767.1 1536.3,765.2 1546.7,760.4 1551.4,756.3 1553.3,750.4 1553.2,745.1 1553.3,743.4
			1553.9,741.6 1555.6,737.7 1555.8,736.3 1556.9,733.4 1559.3,731.9 1562.2,730.9 1564.7,729 1563.6,727.9 1561.9,725.3
			1560.8,724.2 1565.3,720.6 1565,717.5 1559.7,711.7 1558.7,709.3 1557.5,704.7 1555.9,702.3 1554.2,701 1552.1,700.6 1550.2,700
			1548.7,697.6 1549.1,695.4 1548.1,694.6 1546.7,695.5 1544.2,706.8 1544.3,707.8 1542.4,709.3 1538.7,709.4 1536.2,710.2
			1534.5,711.3 1533.4,712.8 1531.2,716.4 1532.6,718.2 1530.2,721.2 1523.2,726.2 1520.3,729 1519.3,731.4 1519.1,733.9
			1518.1,735.5 1515.3,735.5 1513.7,734.4 1512.5,732.5 1511.7,730.1 1511.5,727.6 1508.9,729.6 1506.2,730.3 1504.7,729.6
			1507.7,723.4 1506.6,721.1 1500.3,715.8 1498.3,715.4 1493.2,715 1487.6,713.2 1485.9,713.4 1483.4,715 1483,716.1 1482.8,717.7
			1482,719.2 1479.1,720.3 1478.5,721.8 1478.5,725.2 1478.6,727.1 1479.5,730 1479.7,731.7 1479.3,732.5 1478.4,733.4 1477.5,734.7
			1476.6,739.2 1475.3,739.2 1473.6,738.3 1472.2,738.6 1471.8,740 1471.4,743.5 1471,745 1468.2,750.4 1466.6,751.6 1464.6,749.7
			1461.5,753.8 1454.9,759.9 1451.3,762.4 1463.6,743.5 1461.5,743.8 1459.7,744.5 1456.1,746.7 1457.9,741.3 1458.1,738.9
			1457.3,735.7 1456.1,735.7 1449.7,750.3 1448.2,752.9 1444.4,753.3 1440.5,754.6 1436.5,756.6 1432.7,759.3 1431.5,757.5
			1433.5,754.3 1435.9,752 1451.1,741.9 1449.4,739.8 1447.3,738.6 1444.9,738.3 1442.4,738.6 1444,736.5 1447.6,734.2 1449.8,732.4
			1443.7,731 1435.9,735.2 1428.5,741.6 1423.6,747.2 1422.7,749.7 1422.6,752 1421.9,753.7 1419.2,754.4 1418,755.1 1417,757.1
			1416.3,759.2 1415.6,760.7 1410,765.8 1408.8,768.4 1412,770 1408,771.8 1405,770.8 1403.6,767.3 1404.4,762.4 1412.9,753.5
			1415.6,749.7 1408.3,747.3 1400.4,751.2 1386.3,762.4 1382.2,763.4 1374.2,762.3 1370.2,762.4 1366.5,764.5 1357.8,774.9
			1357.8,771.8 1356.8,769.7 1355.1,768.1 1353,766.7 1355.9,765 1362.7,759.2 1365.9,757.8 1368.6,758 1374.5,759.2 1380.5,758
			1385.7,755.3 1395.8,748 1400.9,745.3 1405.9,743.3 1411.2,742.1 1417,741.8 1420,741.1 1425.2,737.8 1426.9,737.1 1427.9,736.4
			1426.6,734.7 1423.7,732.3 1423.2,732.6 1421.9,732.9 1420.3,732.8 1418.9,732.3 1422.3,729.9 1430,729.1 1433.7,727.6
			1399.4,725.9 1396.8,727.6 1394.5,730.2 1392.1,731.8 1389.4,730.8 1391.9,727.9 1393.8,725.2 1396.1,722.7 1399.4,721.1
			1402.8,720.6 1409.6,720.6 1412.8,719.5 1420.5,713.2 1432.8,709 1439.6,708.4 1443,707.7 1446.1,706 1449,703 1450.6,702
			1451.9,701.7 1453,700.8 1453.5,698.2 1452.5,696.3 1450.4,695.5 1448.1,695.7 1446.5,696.6 1444.3,699 1435,704.4 1433.1,704.8
			1431,704.5 1429.8,703.4 1430.6,701.3 1431.8,700.2 1432.9,699.7 1434,699.1 1435,697.4 1433.1,696.5 1431.4,695.9 1427.6,695.6
			1426.7,692.5 1407.9,694.2 1411.4,685.5 1411.6,683.7 1405.4,690.2 1399.3,694.9 1396.3,698 1397,701.5 1404.8,701.5 1419,698.7
			1419,700.3 1401.1,710.8 1394.4,711.3 1397.5,709.5 1400.8,708.2 1400.8,706.7 1398.4,705.7 1395.4,705.2 1392.5,704.2
			1390.8,701.9 1391.2,698.9 1393,696.5 1394.1,694.2 1392,692.3 1391.9,688.5 1387.9,686.6 1378.4,685.9 1378.4,684.3 1383,682.8
			1387.2,683.3 1395.6,685.9 1400.1,685.8 1403.9,683.9 1410.5,677.9 1407.6,676.6 1405.8,678.2 1403.9,680.4 1401.7,681.2
			1399.8,679.7 1399.6,677 1399.3,674 1396.7,671.8 1407.5,672.4 1412.4,671.4 1417.6,668.5 1409.7,663 1400.6,662.3 1392.1,666.5
			1385.7,674.8 1388.7,676.2 1387.3,678.2 1383.5,679.4 1379.4,677.9 1382,675.5 1383.7,673 1383.5,670.6 1380.8,668.5 1378.1,668.4
			1352.9,678.6 1346.6,679.4 1346.6,677.8 1348.4,677 1349.6,675.6 1349.8,673.8 1349,671.7 1351.6,670.7 1355.8,667.8 1357.5,666.9
			1368.1,666.9 1374.5,664.1 1377.3,663.5 1383,663.7 1385.8,663.4 1388.4,662.1 1385.8,658.8 1389.6,655.7 1403,651 1403,649.5
			1393.2,651.7 1388.5,652 1385.9,649.5 1389.2,649.3 1391.2,647.9 1393.1,646.1 1395.8,644.7 1406.9,646.2 1409.2,645.4
			1413.7,642.2 1416.2,641.4 1416.1,640.5 1408.3,635 1402.4,632.3 1401,630 1403.3,627.2 1404.9,627.3 1409,629.8 1411.5,630.5
			1416.5,629.9 1422.1,628.4 1427.5,625.9 1431.6,622.3 1428.5,621.9 1416.2,622.3 1414,621.6 1412,619.9 1410.8,618.4 1411.3,617.7
			1419.2,619.2 1452.2,615.4 1455.5,613.4 1457.5,610.1 1457.1,605.1 1455.4,602.7 1453.2,601.7 1450.9,601.1 1449.7,600.1
			1449.7,598.4 1450.7,596.3 1452,594.5 1452.8,593.8 1457.4,595.9 1459.8,596.3 1460.9,594.6 1461.5,593.1 1464.6,589.3
			1465.6,587.4 1464.4,584.1 1464.4,581.9 1466.3,580.9 1467.9,580.6 1471.2,579.5 1473.1,579.5 1473.2,574.7 1480,569.4
			1479.3,566.8 1479.3,565.2 1477.1,564.6 1475.6,563.2 1473,558.8 1470.4,560.4 1467.7,560.5 1465.1,559.8 1463.1,558.8 1463,558.2
			1463.2,556.1 1463.1,555.4 1462.3,555.3 1460.1,555.8 1459.4,555.4 1458.5,554.7 1457.7,554.2 1457.1,553.5 1456.8,551.5
			1454.5,550.2 1449.3,549.7 1443.6,548.4 1439.7,544.5 1442.3,542 1439.4,540.2 1431.3,538.1 1425.9,534.1 1422.6,532.6 1419,533.3
			1416.7,531.8 1409.8,529 1407.3,528.4 1404.6,527.3 1398.4,522.1 1395.6,520.5 1390.8,521.2 1379.1,525.2 1374.8,523.7
			1381.8,519.4 1384.5,518.9 1382.6,518 1378.1,517.5 1376.5,516.5 1374.5,513.7 1373.9,513.6 1373.1,514.6 1371,515.6 1371.2,516.6
			1369.8,518.6 1368,519.6 1367.3,518 1366.5,517.7 1356.9,520.3 1355.5,523.8 1354.8,528.2 1353.1,532.4 1350.3,536.5 1349.7,536.7
			1349.2,534.2 1346.4,530.1 1343.6,532.1 1342.8,535 1341.9,538.3 1340.1,541.3 1339,537.6 1339.6,534.8 1341.2,532 1342.5,528.5
			1337.1,531.1 1335.4,530.8 1335.2,526.8 1329.4,529.6 1327.3,529.2 1327.8,525.4 1319.4,525.8 1314.9,527.5 1311.4,534.3
			1308.4,539.1 1307.1,543.7 1310.7,547.5 1307,550.1 1302.4,552.6 1298.5,555.4 1297,559.4 1296.3,562.9 1295.1,563.2 1294.7,560.6
			1298.8,551.4 1299.9,546.9 1299.2,543 1295.1,541.2 1294.3,540 1294.6,537.1 1295.7,532.4 1296.5,531.5 1301.9,526.9 1299.5,524.4
			1299.8,521.4 1301.9,518.3 1304.4,515.7 1300.6,514.8 1295.1,516.1 1289.6,518.9 1285.9,522.1 1290.3,516.1 1290.9,515
			1292.3,508.6 1292.8,507.2 1302.1,499.5 1300.8,498.4 1297.6,498.8 1290.5,501.1 1286.6,501.5 1284,502.8 1281.2,505.9 1276.6,512
			1267.5,521.8 1265,525.6 1265.6,525.2 1266,525.9 1266.2,527.9 1265.9,529.3 1265.1,529.7 1264.3,529.8 1263.8,530.3 1262.1,533.9
			1261,535.5 1260.2,536.7 1258.7,537.5 1255.3,538.9 1253.9,539.8 1252.5,541.4 1251.2,544.4 1250.1,546.2 1249.2,550 1248.2,551.6
			1246.3,551 1245.3,549.4 1245.2,547.1 1245.6,544.9 1246.3,543.2 1244.2,543.7 1242.7,545.1 1241.7,547.4 1241.4,550.2
			1241.7,554.7 1241.2,556.1 1239.7,558.2 1235,561.9 1232.6,559.4 1231.9,555.1 1232.3,552.7 1231.7,550.7 1231.6,536.9
			1232.5,532.4 1232,530.8 1229.3,530.5 1227.7,531.5 1225.8,533.7 1224.1,536.3 1223,538.6 1222.1,541.9 1222,544.4 1223.2,545.9
			1226.1,546.4 1226.5,547.6 1225.6,555.1 1225,557.1 1223.5,558.9 1221.7,560.4 1219.9,561 1217.8,560.2 1217,558.4 1216.7,556.7
			1216.1,555.9 1211.6,556.2 1209,557.5 1204.5,565.5 1202.3,568.4 1199.1,571.2 1195.9,572.5 1193.4,571.9 1199.2,567 1202,563.7
			1203.2,560.1 1202.8,556.6 1199.5,545 1197.1,549.6 1193.9,548.3 1190.5,544.6 1187.1,541.8 1187.3,545.3 1188.5,548.5
			1192.2,554.5 1190.8,555.9 1192.2,557.6 1166.4,570.4 1160.5,574.4 1157.5,576 1154.6,576.7 1153,577.2 1151.3,578.7 1150.1,580.8
			1150.3,583.2 1151.2,583.1 1156.4,581.5 1156.4,583.2 1153.6,586.2 1151.1,591.1 1150.3,596.5 1152.1,601.2 1155.3,601.7
			1164.4,596.7 1168.8,595.8 1168.8,597.3 1155.5,607 1152.1,608.4 1147,608.1 1144.5,608.6 1141.6,609.9 1135.6,614.3 1133.2,614.8
			1135.8,611.8 1141.3,608.1 1144,605.3 1145.6,602.2 1145.9,599.1 1144.4,597.1 1140.5,597.2 1144,589.4 1141.8,588.8 1136.6,588.8
			1135.5,587.7 1136.4,585.9 1142.8,581.3 1144.1,579.1 1145.4,576.5 1146.9,574 1149.1,571.8 1154.2,569 1158,568.1 1160.3,566.6
			1161.9,564.4 1162.6,561.5 1162.5,552.4 1160.6,546 1161.5,540.6 1163.7,535.4 1166.4,532.2 1168.2,535 1171,533 1172.9,529
			1171.2,525.9 1174,522.7 1176.8,520.3 1179.1,517.6 1179.9,513.8 1179.6,510 1178.7,506.5 1177.2,503.7 1175,501.7 1175,500.1
			1177.6,500.1 1174.1,498.2 1170.7,498.8 1167.2,500.5 1163.8,501.7 1164.4,503.1 1165.6,506.7 1166.4,508.2 1164.5,508
			1162.9,507.4 1161.4,506.3 1160.1,504.9 1162.5,502.7 1160.9,501.1 1155.2,498.5 1152.9,500.5 1150.4,501.4 1145.6,501.7
			1153.9,514.3 1153,517 1152.8,520.7 1153.2,524.4 1153.9,527.2 1159.3,534.2 1159.4,535.4 1158.2,536.6 1156.4,539.3 1154,542
			1148.4,543.9 1146.7,545.7 1146.6,548.2 1147.9,551.1 1147.2,551.9 1146.6,552.3 1145.4,552.8 1144.7,550.1 1143.4,547.2
			1142,544.8 1140.5,543.3 1143.5,541.6 1146.4,540.9 1148.8,539.5 1150.3,535.4 1150.1,532.8 1145.8,535.6 1142.8,535.4 1145.4,532
			1142.2,532.2 1139.2,537.3 1136.1,543.7 1133.1,547.9 1134.7,541.4 1131.5,539.9 1126.3,541.2 1121.9,543.2 1124.3,540.1
			1130.7,535.9 1142.2,522.9 1145.3,520.8 1140.6,519.3 1130,525.6 1124.5,527 1124.5,525.6 1128.3,522.9 1139.2,511 1138.1,509.6
			1137,510.3 1134.3,511 1135.5,507.9 1125.1,509.6 1122,511 1120.4,513.9 1118.8,517.6 1116.9,518.8 1114.6,514.2 1113.1,516.6
			1112,519.2 1112.6,520.1 1112.9,520.8 1113.1,521.5 1113.3,522.4 1110.3,522.9 1108.5,524.5 1107.4,527.2 1107.2,531.1 1106.3,534
			1104.2,536.9 1099.7,541.6 1098.9,538.6 1099.1,535.8 1099.9,533 1101.1,530.3 1100.8,526.7 1103.2,520.9 1108.4,511.1
			1102.5,512.1 1097.4,516.1 1089.6,526.4 1088.4,529 1087.5,532.2 1086.2,535.3 1084,536.8 1081.4,536 1080.2,533.7 1080.2,531
			1081.4,528.9 1081.4,527.1 1080.3,527.2 1076.5,527.1 1077.1,523.4 1079.5,519.2 1080.2,516 1070.1,520.3 1064.4,521.6
			1060.7,520.8 1062.2,519.6 1063.7,517.9 1064.7,516.4 1064.3,516 1066.3,515.3 1067.6,515.4 1068.9,515.7 1071.2,516 1073,515.2
			1071.4,513.7 1068.7,512.3 1067.5,512 1066.2,511.1 1064.2,510.8 1060.7,511 1061.6,509.9 1063.1,506.4 1054.5,504.4 1047,504.9
			1031.3,509.5 1024.2,513 1015.5,524.9 1008.4,526.7 1004.4,528.9 1002.9,528.9 1004.7,525.8 1010.9,519.6 1012,517.3 1012,515.4
			1012.4,514.2 1015.1,513.8 1016.6,513.1 1020.1,510 1022.1,509.2 1029.8,507.8 1037.5,503.8 1044.1,497.9 1048.2,490.2
			1041.8,490.4 1038.9,489.5 1037.2,486.9 1045.8,481.3 1048.2,479 1048.8,477.4 1049.3,475.2 1049.9,473.2 1051.3,472.4
			1052.8,472.1 1054.1,470.9 1055.1,469.3 1055.8,467.7 1048.8,468.6 1045.8,468.3 1044.7,466.1 1042.3,468.3 1039.5,469.8
			1036.5,470.6 1033.5,471 1033.5,469.2 1036.7,468.7 1042.7,465.5 1045.9,464.6 1045.8,463.4 1045.5,462.7 1044.6,461.3
			1042.5,462.6 1039.8,463.6 1036.9,464.4 1034.1,464.6 1031.7,465.1 1019.2,471.9 1008.6,480.3 1003.9,485.1 999.3,492.2
			996.6,494.7 995.4,492.2 995.7,488.6 996.6,485.6 997.8,483.3 999.2,481.6 1010.2,474.2 1014.9,469.7 1013.8,465.9 1022.4,462.2
			1025.3,459.4 1023.6,456.3 1025.8,453.3 1027.5,453.6 1029.1,455.4 1031.1,456.3 1033.1,455.9 1060.5,441.9 1077.1,437.2
			1081.4,431 1089.1,428.7 1102.1,418.7 1108.8,416.5 1112.6,416 1116.6,414.6 1120,412.2 1121.9,408.5 1122,404.4 1120.7,400.6
			1116.9,394 1116.9,392.4 1103.2,400.9 1101,401.9 1096,402.1 1086,401.2 1081.5,403.4 1082.7,405.2 1081.6,407 1079.7,409.2
			1077.7,411 1075.8,411.8 1071.6,411.7 1067.8,410 1067.3,409.1 1066.7,407.5 1066,405.9 1064.8,405.2 1063.4,405.6 1062.4,406
			1061.2,405.8 1054.4,399.6 1053.1,397.2 1054.1,397.2 1050.5,391.8 1045.4,388.3 1039.5,386.6 1033.5,386.2 1031.4,389.8
			1029.1,396.9 1025.5,402.3 1020,400.4 1025.5,395.4 1027.5,392 1026.7,388.3 1024.3,388.3 1015.8,391.5 1013.2,393.1 1003.9,406
			998.5,411 991.9,413.2 999.6,405 1001.7,401.9 1003.3,398.2 1006.5,387.6 1008.6,384.8 1013.7,379.2 1015.1,376.3 1014.2,373.1
			1011.5,371 1008.4,369 1006.4,366.7 1009.3,365.7 1009,364.4 1007,363.4 1003.9,363.4 1004.3,362.3 1004.9,359.5 1005.2,358.4
			1002.4,358.3 999.5,359.1 996.8,360.5 994.7,362.6 983,370.6 977.7,381.6 973.8,384.1 969.3,386.3 965.7,391.4 957.2,407.9
			957.5,410.9 959.3,414 961,419.2 955.4,415.9 953.6,414.4 949.7,418.1 949.2,421.7 950.4,425.6 951.1,429.8 950,431.5 942.5,419.4
			939.1,420.4 933.4,427.3 928.2,429.4 926.3,431 924.8,432.8 924.1,434.5 923.6,435.9 918.8,439.4 896.3,467.7 893.5,475.5
			883.7,487.8 879,495.4 876.1,498.7 872.8,500.7 877.5,492.9 878.6,490.2 880,483.2 885.2,469.6 885.5,467.3 886.1,466.2
			886.2,458.6 885.2,457.7 883.1,457.8 880.9,457.5 879.9,455.4 877.6,454.8 867,453.8 864,452.9 868.1,448.8 882.3,441.7
			884.5,440.1 886.5,437.7 888.4,435 889.7,432.1 889.6,431.4 888.6,430.6 888,429.5 888.5,427.2 889.3,426 890.8,425.1 893.5,423.9
			893.5,422.5 893,419.8 896.3,411.1 897.3,407.2 895.6,404.8 892.2,407.1 888.4,411.2 886.1,414.4 886.2,410.5 887.1,406.7
			893.6,389 895.7,385.7 898.1,383.2 906.9,376 910.3,372.1 911.2,369.6 909.6,367.4 905.6,364.7 908.2,363.3 910.7,363.7
			913.1,364.6 915.4,364.7 917.6,363.4 932.3,349.3 935.7,344.2 935.1,339.2 939.3,336.1 943.3,330.6 946.6,324.3 948.8,318.7
			949.3,310.9 945.2,308.8 940,307.9 936.5,304 945.1,302.6 946.6,303.9 947.9,306.1 949.5,307.7 952.6,307.4 955.2,304.9
			960.6,296.2 963.5,292.9 969.8,288.1 975.8,281.7 978.4,277.1 976.8,275.6 972.9,275.1 968.4,273.7 968.4,272 981.4,272
			982.7,270.7 984.5,262.2 986.9,258.8 992.6,255.3 1000.9,247 1001.6,246.2 1003.4,244.9 1008.2,238.8 1008.9,236.3 1007.1,235.4
			1002.8,234.9 999.4,232.5 997.8,229.8 996.9,226.5 996.4,221.9 996.5,220.5 997.3,218.3 997.7,216.9 997.2,216.1 995.6,214.1
			995.2,212.9 998.2,208.7 999,207.2 1000.2,202.6 1000.3,197.8 998.9,194.5 995.2,194.3 997.1,189.3 999.5,185.7 1002.9,183.6
			1007.4,182.9 1005.9,188.7 1003.6,194.5 1002.3,200.4 1003.8,207 1003.3,208.1 1001.5,213.3 1004.7,218.2 1006.9,219 1010.1,216.5
			1009.9,218.8 1009.4,220.9 1008.7,222.9 1007.4,224.5 1011.6,226 1014.6,222.5 1017.2,217.6 1020.6,215.1 1020.9,214.3 1025,210.1
			1033.1,198.9 1037,190.7 1039.7,187.3 1043.7,184.4 1045.6,184.4 1048.3,192.3 1048.7,188.7 1050,185.9 1052.1,183.9 1054.5,182.4
			1053.1,181.3 1052.1,180.9 1051,181.4 1049.5,182.4 1049.1,179.5 1049.9,175.6 1051.4,172.3 1053.4,170.8 1054.6,172.4
			1055.2,175.4 1056.3,177.4 1059.5,176 1058.3,171.3 1057.4,169.3 1055.9,167.9 1055.9,166.4 1057.6,165 1058.7,162.9 1059.6,160.4
			1060.9,157.9 1066.9,151.5 1065.2,151 1063,149.8 1061.4,148.2 1060.8,146 1061.4,143.5 1062.9,144.2 1064.6,145.9 1065.8,146.9
			1069.1,145.7 1072.5,143.3 1074.3,140.2 1073.2,137 1074.3,135 1075.9,131.7 1076.9,128.6 1076.2,127.1 1073.2,126 1072.8,123.4
			1073.7,120.5 1074.3,119 1075.3,117.6 1076.5,117.1 1076.9,116 1075,113.3 1071.1,109.7 1068.7,108.2 1066.9,107.4 1053.6,104.9
			1050.1,106.7 1046.3,110 1042.3,111.8 1033.7,112.4 1033.9,114.2 1033.9,115.9 1033.8,117 1033.7,117.4 1034.5,118.6 1036,122.3
			1032.5,122.1 1029.8,119.7 1025.1,112.5 1024.3,111 1023.9,109.3 1023,108.1 1019,107.2 1012.7,104.4 1015.3,102.9 1021.1,102.1
			1023.8,101 1018.9,98 1017.7,96.2 1019.7,96.6 1021.4,96.5 1022.9,95.8 1023.9,94.4 1023.6,93.4 1022.7,86.4 1020.3,85.2
			1012,83.3 1009.2,83.1 1009.6,80.1 1010.9,74.8 1010.5,73.3 1010.5,71.9 1012.8,71.5 1015.2,71.9 1017.4,72.8 1019.1,75
			1019.6,73.4 1019.9,72 1020.3,70.4 1020.3,68.6 1024.8,71.1 1028.7,74.9 1032.6,77.6 1037.6,76.7 1036,73.2 1035.1,71.9
			1037.8,72.3 1039.8,73.5 1043.7,76.7 1045.4,77.7 1046.8,78.1 1050.5,78.4 1061.6,76.1 1083.1,80 1087.1,81.7 1091.1,85.2
			1095.4,87.7 1099.1,86.5 1097.8,84.9 1097,82 1096.7,79 1096.8,76.7 1098.4,77.8 1099.9,78.2 1103.5,78.4 1104.9,77.8 1106.2,76.7
			1106.7,75.5 1106,75 1104.2,74.3 1103.7,72.8 1104,69.4 1104.6,67.2 1105.9,67.1 1110.6,69.6 1112,71.5 1113.6,72.3 1116.4,70.1
			1117.9,67.6 1119.6,61.9 1121.5,58.8 1121.6,55.3 1124.1,49.8 1124.7,45.9 1119.9,46.9 1117.6,45 1112.5,41.7 1110.4,39 1119.1,39
			1124.4,40.7 1126.3,39.8 1127.7,37.3 1128.5,34.2 1128.9,31.7 1127.9,31.4 1123.1,27.8 1121.6,25.9 1124.2,26.2 1128,28
			1131.6,28.8 1133.9,25.9 1133.1,22 1129.7,20.1 1122.9,19.4 1122.6,20.4 1121.7,22 1120.8,22.1 1120.3,18.6 1114.2,16.1 1111.1,17
			1100.8,22.5 1101.4,22.7 1102.1,23 1102.7,23.4 1103.3,24.4 1100.7,25.2 1096.9,24.9 1093.6,23.7 1092.2,21.8 1091.6,20.5
			1090.5,19.7 1089.9,18.5 1090.9,17.2 1093,14.5 1088.2,17 1080.5,25 1076.3,27.5 1078.8,20.6 1075.7,22.4 1074.1,27.6 1083,31.6
			1083.7,34.3 1083.7,37.6 1084.7,40.5 1087.4,42.8 1094.2,44 1097.1,45.5 1091.1,47.3 1084.4,45.4 1077.6,42.5 1071.5,40.5
			1059.1,40.5 1053.2,41.8 1050.1,41.8 1047,40.5 1051.8,34.3 1055.3,27.7 1048.6,28.4 1049.3,23.9 1059.1,11.5 1056.1,12
			1053.5,13.3 1050.9,14.1 1048,13.1 1046.5,10.5 1026.6,22.6 1023.8,23.6 1016.3,28.2 1011.5,32.5 1008.3,34.1 993.1,38.3
			988.7,40.6 986.8,43.2 984.5,45.6 970.8,48.9 967.2,51.1 959.8,57.5 956.7,58.8 947.8,59.7 939,62 908.3,76.6 898.5,83.9
			895.4,87.1 893,92.2 890.1,99 888.8,100.5 885.5,103.4 883.9,105.4 888.9,109.8 891,112.2 892.7,115.2 889.3,115.2 887.8,114.7
			886.4,113.5 881.4,117 884.9,124.3 885.4,126.9 883.9,129.9 881.2,131.6 873.3,134.2 871.7,135.6 869.7,144.1 864.7,148.2
			858.1,149.4 851,149.5 854.2,151.5 861.6,152.3 864.5,154.1 865.3,158.3 862.3,160.5 855.2,163.1 851.1,165.5 848.2,163.3
			846.6,159.5 845.4,157.6 834.8,156.2 831.3,157.6 833.4,157.6 835.3,158.2 837.1,159.2 838.7,160.7 839.4,162.1 840.6,166.2
			841.1,167.4 844.9,169.2 851.7,168.8 854.5,170.6 850.3,173.1 848.2,174.7 850,176.5 850.9,178.1 852.2,178.9 854.5,177.1
			858.3,178.8 859.9,180 860.8,182.1 858.3,183.6 855.7,184.1 853.8,183.1 852.5,183.4 852,187.8 851.5,190.9 850.1,192.7
			848.2,194.3 844.9,198 839.9,201.6 838.3,203.7 836.2,207.8 835,209.8 831.1,213 822.9,217.1 819.5,220.3 817.7,221.4 812.5,220.9
			810.3,221.2 809.1,221.9 804.4,226 796.1,229.3 788.5,230.8 787.3,230.4 787.1,228.2 785.8,227.6 784.7,227.8 783.1,228.9
			778.1,230.5 776.4,232 776,234.3 779.2,236.1 784.6,236.1 789.7,237.1 792.1,241.4 793.7,246 801.7,245.7 804.4,248.9 802.9,249.7
			801.4,250.3 799.8,250.6 797.9,250.6 797.9,252.2 801.2,253.5 804.7,253.6 817.8,251 819.7,251.6 818.3,254.5 811.9,258.6
			804.8,257.8 790.5,253.7 784.1,256.2 780.6,262.1 778.2,269.6 775,276.3 767.8,282.6 765.7,285 765,287 764.5,291 763.5,293
			758.9,298.6 755.7,306.9 754.8,310.5 754,311.1 753.2,311.6 752.7,312.2 752.9,313.7 753.4,314.5 753.8,314.9 754,315.6
			753.2,320.8 750.9,326 745.5,335.4 741,345.5 739.8,350.3 739.4,355.4 738.1,359.3 729.4,372.3 722.4,387.7 716.3,396.5
			711.2,410.6 708.7,414.5 702.6,421.7 700,430 694.9,436.6 695.4,439.1 694,441.1 693.5,443.3 693.5,445.4 693,447.2 691.7,448.3
			688.2,450.6 686.6,452.1 684.2,455.6 679.2,466.5 677.8,472.5 677.2,480.6 678.6,487.6 683.1,490 682.8,490.9 682.6,491.7
			682.4,492.4 681.8,493.4 685.4,496.6 687.2,498.5 688,500.6 688.4,502.3 689.3,504.6 690.5,506.7 691.7,507.9 694.7,507.8
			696.9,505.2 698.5,502 700.4,499.8 701.1,507.1 705,511.8 720.1,520.6 722.4,522.7 721.8,523.7 716.4,523.3 711.5,522 706.3,519
			701.5,515.3 696.8,512.5 692.1,512.4 687.7,515.7 687.6,520.2 692.1,530.1 687.5,528.1 685.3,523.6 684.7,517.7 684.7,511.8
			683.3,506.9 679.6,502.8 675.1,500.3 668.9,499.8 665.1,501.5 658.7,507.8 652.9,510.8 644.6,517.8 636,527.3 631.4,535
			628.4,543.9 627.1,559.5 627.2,564 628.3,567.7 631,571.3 634.8,573.6 644.7,577.2 663,579.5 667.7,579.2 671.7,577.8 678.3,574.1
			682.6,572.8 675.3,582.6 671.2,586.4 666.6,588.6 651.3,587.6 649.6,590.3 655,595.9 665.3,593.5 682.6,585.5 682.6,587.2
			678,588.9 674.9,591.5 674.9,593.9 679.9,595 684.4,594.1 688.2,591.9 694.7,585.6 696,587.3 687.1,597.8 684.9,600 680.9,600.8
			668.9,598.4 658.2,600.4 649.4,598.8 646.5,598.8 644.8,600.6 644.5,605.4 644.7,608 645.4,609.9 646.8,612.7 649.9,621.4
			652.3,623.8 658.2,628.1 660.9,630.8 667.5,633.9 685.6,633.9 689.7,636.5 683.3,638.8 657,634.9 651.9,630.7 643.3,619.1
			637.9,614.6 631.2,612.8 617.1,612.7 614.2,613.4 608.1,616 605.5,615.8 603.3,613.2 603.6,610.6 605.6,608.1 607.9,606.2
			607.9,604.5 602.4,604.5 605.7,602.9 607,599.6 606.5,596.4 604.3,594.9 603,595.3 597.7,598.3 594,603 589.4,616.7 587.3,620.3
			579,628.3 577.2,645.5 575.5,646.7 574.3,649.4 573,655 571.3,659.3 570.5,660.8 569.1,662.9 562.5,669.4 559.4,673.4 557,681.4
			549.4,692.9 547.6,701.9 547.4,711.8 546.1,721.3 541.1,729 537.6,730 532.2,730.3 526.7,729.7 523.3,728.2 521.8,726.6
			518.6,724.2 518.3,722.2 518.1,719.7 517.7,713.3 516.5,713.3 517.3,719.8 517.2,722.5 515.8,725.1 511.6,730 508.9,732.3
			507.7,731.3 507.8,726.4 507.6,724.8 503,722.6 498.5,719.9 497.1,717.9 496.7,714.7 499.2,709.8 504.1,703.5 509.6,698.2
			513.3,695.9 517.9,694.2 522.8,690.2 527.4,685.1 530.9,680.3 524.8,682.4 494.9,704.5 469.5,719.6 452.7,732.1 449.2,735.5
			447.6,739.4 447.8,741.9 446.5,745 445.6,746.8 443.6,749.4 442.7,751.1 447.3,751.1 475.6,741.5 483.7,740.1 500.6,741.1
			518.4,739 538.5,732.9 542.6,732.4 561.5,734.1 565.6,736.2 571.8,742.1 575.7,743.3 584.2,741.5 588.5,741.8 591,745.1 595,741.6
			601.4,739.1 613.1,737 616.5,737.4 619.4,738.6 619.9,740.1 616.9,741.7 613.7,742.4 607.5,742.7 595.9,745.6 593.7,746.7
			591,749.6 586.6,756.4 583.7,759.2 581.4,760 572.6,762.4 563.5,766.7 560.3,767.1 564.9,762.5 569.6,760.2 574.6,758.5 579.7,756
			579.7,754.4 572.3,755.5 566.2,758.6 560.9,763.3 555.8,769.1 554.4,770 550.6,770.8 549,771.6 547.7,773.9 546.9,778.5
			546.1,780.4 538.9,789.4 535.7,792.1 525.4,798.5 522.2,801.6 517.8,807.3 514.8,809.8 505.3,813.6 494.6,826.9 488.9,831.4
			459.2,845.8 446,855.7 435,867.3 433.8,869.6 433.2,872.1 431.9,874.2 429.4,875.1 425.4,874.8 423.3,875.1 421.9,875.9
			420.2,877.6 418.5,878.5 417,879.9 416.5,883 416.7,885.3 417.7,886.7 422.6,892.4 423.4,894 423.8,896.2 424.7,897.5 428.9,899.7
			429.8,901.1 429.9,906.3 430.9,910.8 433.5,913.8 438.4,914.2 436.2,919.6 434,927.9 433.1,936.2 434.8,942 433.8,945.2
			435.1,947.2 437.6,948 440.4,948.3 443.4,949.2 445.1,951.6 446.4,954.2 448.4,956.3 450.5,956.4 452.7,955.6 455.1,955.4
			459.9,958.7 463,959.3 469.2,959.4 483.3,956.3 485.1,955.8 489.4,953.7 491.3,953.1 493.2,953.7 494.5,954.7 495.9,954.7
			498,952.3 503.1,950 530.9,951.3 542.3,950 552.1,944.6 553.9,944.7 555.9,947.8 560.3,945.9 564.6,942.5 566.2,940.7 572.4,940
			573.9,938.8 571.1,935.9 573.1,935.5 574.7,936.3 576.1,938.2 577.3,940.7 580.9,938.7 584.1,938.6 587.5,939.9 590.8,942.1
			592.3,942.1 596.8,938 599.1,933.1 602.1,923.5 606,918.8 610.6,916.5 621.7,915.8 619.4,916.5 616.7,917.8 614.3,919.4
			612.4,921.4 607.9,930.1 607.4,931.6 606,933 604.8,936.2 604.8,939.5 607.4,940.9 609.3,940 614.3,935.6 616,933.7 618.3,933.5
			625.1,937.1 627.8,937.8 630.1,936.9 634.8,933.9 650.9,929 655.9,928.5 655.9,929.9 653.2,932.3 654.7,933.7 657.9,933.5
			660.8,928.4 663.8,929.5 666.5,931.9 667.5,933.2 676.4,934.3 679.1,933.2 680.4,931.8 680.9,930.4 681.7,929.1 683.6,928.6
			689,928.6 687,930 685.5,932.9 682.9,939.3 690.1,938.1 692.8,938 695.7,938.8 697.3,940.4 698.8,942.4 701.2,944.1 702.7,944.2
			704.9,942.6 706.1,942.4 707.1,943.4 710,947.2 711.7,945.1 712.2,942 713.2,939.1 716.2,938 718.5,938.5 725.6,941.7 727.8,943.3
			730.4,948.4 732,949.8 735.3,950.3 743.9,945 746,942.6 748.1,941 750.3,940 753.1,939.3 752.5,940.2 752.3,940.9 751.9,942.4
			757.2,943.4 772.6,942.4 774.5,942.8 777.8,943.9 779.4,944.1 780.4,943.9 782,942.7 784.8,941.9 786.7,941 788.2,941 788.7,943.3
			788.2,945.1 787.1,946.8 786.6,948.9 787.5,951.8 789.4,954 791.4,954.7 796,953.6 801.7,950.9 804,950.4 808.5,951.8 810.7,952.2
			812.7,951.2 817,942.5 818.4,943.5 822,948.7 821.1,950.6 817.9,953.3 817.6,954.3 819.3,956 821.7,957.1 824.1,958 826.3,958.3
			850.7,953.8 855.3,954.7 859.3,957.5 862.6,960.6 866.9,962.9 871.2,963.4 874.7,961.4 873.5,965.3 874.6,966.5 879.2,966
			881,965.5 882,964.7 883.2,964.7 885.4,966.9 887.9,966 897.3,959.7 900.7,958.4 900.7,956.8 896.3,955.1 893.9,951.8 892.2,948.5
			889.6,945.9 890.8,944 892.1,942.5 893.9,945 898,952 900.1,953.6 906,956.1 907.3,955.8 908.5,955.1 913.1,953.6 910.7,950.7
			904.5,948.3 901.9,945.8 906.8,944.7 925.8,947.2 935.1,945.8 938,946.2 943.9,948.3 957.3,949.3 962.4,949 967,947.2 969.9,942.9
			971.4,936.9 970.6,931.3 967,928.7 967,923.9 969.7,922.9 970.6,919.8 970.9,916.1 971.9,912.7 972,920.3 973,923.3 975.6,925.3
			973.5,928 973.4,932.5 973.8,937.2 973,940.8 981.3,941.2 985.1,940.1 986.7,936.8 987.5,934.8 989.1,934.7 990.9,936.1
			991.6,938.4 992.6,940.6 994.9,940.4 997.3,939 999,937.6 994.1,934.6 995.2,933.8 995.6,933.1 995.9,932.3 996.6,931.2
			995.5,930.9 993,929.7 995.6,928.5 998.1,928.2 1000.6,927.4 1002.9,925.2 1001.8,923 1000.4,921.4 998.6,920.5 996.6,920.3
			1002.4,915 1003.6,911.9 1004.1,907.2 1003,903 1000.9,899.4 999.5,895.8 1000.3,892.1 1002.6,895.9 1006.4,906.3 1009.3,910.8
			1011.4,911.3 1017.5,906.3 1014.6,910.4 1010.7,914.9 1008.3,918.5 1010,920.4 1010,922.1 1007.3,923.7 1008.8,924.7 1014.2,925.3
			1016.6,924.7 1018.5,923.5 1025.6,915.7 1029,912.9 1032.9,911.1 1047.8,906.8 1052.3,903.8 1054.3,899.4 1055.1,893.5
			1056.8,887.6 1059.7,883.6 1060.1,881.6 1057.9,879.8 1062.4,875.9 1066.1,874.1 1067.9,871.5 1066.7,865.7 1069.3,866.4
			1071.3,868.6 1074.2,873.4 1070.4,876 1065.9,880.2 1064,884.2 1067.9,886.1 1064.2,888.6 1060.2,892.8 1058.7,897.3 1062.8,900.3
			1062.8,901.8 1061,902.1 1060.3,903.1 1060.3,907.4 1059.7,908.4 1056.4,911.5 1055.3,912.9 1056.3,913.7 1057.2,915.2
			1057.9,916.1 1044.6,924.9 1042,928.6 1042.7,934.2 1046.2,938.4 1051,941.3 1055.3,942.6 1060.7,942 1075,933.2 1084.4,929.8
			1089.7,929.1 1093.5,930 1081,935.6 1076.7,936.1 1073.1,937.4 1065.3,943.3 1061.4,945.4 1057.5,946.7 1053.3,947.2 1051.4,947.9
			1048,951.2 1044.8,952.3 1044.2,953.2 1043.6,954.3 1042.8,955.1 1041.6,955.2 1039.4,954.9 1037.8,955.1 1018.7,962.2
			1003.1,964.5 999.8,965.8 996.5,969.5 997.8,972.2 1005.2,977.6 1007.9,978 1023.2,970.5 1031.6,967.9 1035.9,967.6 1038.5,965.9
			1042.1,962.9 1045.9,960.9 1048.8,962.7 1053.6,957.3 1056.6,955.3 1059.9,955.1 1059.6,957.7 1061,956.8 1062.9,954.7
			1064.3,953.5 1066.3,952.9 1070,950.6 1072.4,950.3 1067.8,953.9 1056.4,967.6 1046.6,975.3 1042,979.9 1041.8,984.5 1043.6,982.1
			1046.7,979 1050.1,976.3 1052.8,975 1056.1,976.1 1059.1,978.2 1062.2,978.7 1065.3,975 1064.1,971.6 1065.5,967 1068.4,963
			1071.5,960.9 1070.4,963.9 1069,966.6 1068.2,969.3 1069,972 1070.1,973.1 1069.5,975.4 1067.8,979.8 1071.4,978.9 1074.9,977.5
			1078.3,975.7 1081.4,973.4 1080.5,972.5 1080,971.6 1078.9,968.7 1081.8,968.7 1083.9,969.9 1085.5,971.5 1087.7,972 1089.5,970.9
			1091.9,968.6 1093.9,966 1095,964 1093.5,964 1092.6,963.6 1091.6,963.5 1089.9,964 1092.3,959.7 1095.9,960.6 1099.3,964
			1101.2,967.3 1098.6,968.4 1097.2,970.3 1092.6,979.7 1091.2,981.2 1088.8,982.6 1087.7,984.5 1091.3,984.1 1097.1,980.3
			1101.1,979.7 1101.1,981.3 1099.4,982.5 1099,984 1099.8,987.6 1098.8,991.5 1099.4,993.1 1102.3,992.4 1103.7,990.8 1106,985.1
			1107.3,982.8 1112.7,978.9 1113.3,978.3 1124.1,978.1 1128.2,976.7 1131.1,974.1 1133.8,969.8 1134.6,965.4 1131.8,962.5
			1135.7,954.9 1135.6,953.5 1134.8,952.4 1134.7,951.3 1136.8,950.1 1136.8,948.4 1130.5,950.9 1129.5,950.1 1130.3,948.6
			1135.7,943.8 1131.9,939.8 1129.1,940.6 1126.7,943 1124.3,943.8 1122.3,941.3 1123.4,938.3 1127.6,933.7 1129.4,930.9
			1129.8,928.5 1129.4,921.4 1130.2,920.3 1131.9,920.7 1133.5,922.3 1134.4,924.6 1135.1,925.7 1136.8,925.4 1138.4,924.4
			1139.3,923.9 1138.4,922.7 1137.6,921.3 1136.8,920.5 1138.2,919 1139.6,918 1141.2,917.5 1143.1,917.4 1142.2,919.6 1141.8,920.5
			1144.1,922.2 1143.5,923.5 1141.6,924.6 1140.5,926.1 1140.3,926.7 1139.8,927.1 1139.5,927.9 1139.3,929.2 1139.6,929.9
			1140.5,930.4 1141.3,930.9 1141.8,932.3 1141.6,934.6 1141.9,935.4 1145.6,934.8 1146.7,934.3 1147.3,933.2 1147.6,932.1
			1147.9,931.4 1149,931.4 1150,932.1 1150.9,932.7 1151.6,933.1 1160.5,933.8 1165.2,935 1171.8,939.4 1176.3,938.6 1180.6,936
			1183.5,933.1 1180.9,940.2 1179.8,944.5 1179.8,947.2 1183.3,951.4 1187.4,950.9 1189.8,947.4 1188.4,942.6 1196.2,934.5
			1209.7,913.3 1217.9,905.2 1217.1,909.5 1215.3,913.3 1202.9,928.3 1201.8,930.9 1200.6,934.7 1198.1,938.1 1192.6,943.4
			1190.9,947.4 1193.8,948.4 1213.2,946.5 1225.9,943.4 1237.9,937.7 1248.4,928.8 1247.3,931.8 1250.9,931.9 1257.1,930.8
			1260.7,931.8 1258.3,932.4 1256.4,933.7 1253.3,936.4 1250.9,937.4 1246,938.7 1237,942.9 1235,944.4 1233.3,946.5 1230.4,950.7
			1228.7,952.4 1230.1,954.4 1231.5,954.1 1235,950.7 1234.8,954.7 1232.9,957.1 1226,962.6 1223.4,963.1 1217.2,963.1 1215.6,964.1
			1216.1,968.4 1214.7,969.4 1209.3,969.4 1206.4,970.4 1201.1,973.1 1198.2,974.1 1196.1,974.4 1189.7,974.1 1187.3,974.6
			1183.7,976.9 1177.5,978.1 1173.9,979.9 1161.1,991 1159.3,994.4 1158.8,999.8 1158.2,1002.4 1156,1007.2 1155.2,1009.8
			1155.2,1012.1 1155.4,1017 1155.2,1019.3 1152.8,1023.5 1149.2,1026.1 1145.6,1028.3 1140.6,1032.4 1135.7,1034.8 1129.5,1041
			1127.8,1041.8 1125.8,1042.4 1124.1,1043.2 1123.3,1045 1122.8,1047.1 1121.3,1050.1 1119.4,1052.5 1117.7,1053.5 1113,1054
			1102.4,1058.2 1090.1,1060.1 1087.1,1062.1 1084,1062.8 1074.5,1060.1 1070.3,1059.7 1066.4,1061.2 1059.6,1065.1 1055,1065.9
			1050.7,1067.4 1047.3,1071.1 1040.9,1080 1034,1086.8 1031.2,1090.9 1029.9,1096.1 1030.8,1099.6 1033.2,1103 1036.4,1105.9
			1044.2,1109.9 1054.1,1113.5 1058.7,1114.1 1067.5,1114.3 1071.8,1115 1074.3,1117.3 1076.2,1113.9 1078.3,1113.5 1084,1115.6
			1087,1115.3 1090.4,1114.3 1096.2,1110.9 1099.8,1107.4 1101.2,1106.2 1102.6,1105.6 1103.6,1105.1 1106.2,1104.8 1107.2,1105.3
			1107.5,1106.4 1108,1106.8 1109.9,1104.8 1110.4,1103.1 1110.5,1101.1 1111,1099 1112.4,1096.9 1112.9,1101.9 1115.7,1102.3
			1123.4,1099.7 1122,1107.2 1125.8,1112 1132,1114.1 1138.2,1113.8 1142.5,1112.4 1142.3,1110.1 1140.6,1107.4 1140.5,1104.5
			1142.2,1104.4 1151,1105.9 1156.1,1104.9 1161.7,1102.2 1165.6,1098.3 1165,1093.7 1168.5,1091.9 1170.9,1088.4 1172.1,1083.9
			1172.5,1079 1172,1076.7 1170.5,1071.5 1170.5,1069.7 1171.6,1068.4 1173,1067.3 1174.5,1067.2 1176.1,1068.8 1176,1070.4
			1174.7,1075.8 1174.8,1078.1 1175.8,1079.1 1177.4,1080.5 1179.1,1081.3 1179.9,1080.5 1180.7,1075.7 1182.6,1073.4 1189.8,1070.6
			1189.5,1069.5 1188.9,1066.8 1188.4,1065.7 1193.4,1065.8 1193.9,1062.6 1190.8,1054.9 1190.9,1052.9 1191.5,1050.5 1192,1048.1
			1190.8,1045.6 1189.4,1045.2 1182.4,1045.6 1184.6,1042.7 1187.6,1039.2 1191.1,1037.4 1194,1038.6 1194.7,1042.4 1193.7,1046.1
			1193.6,1048.7 1197.3,1048.8 1199.8,1047.5 1202.1,1045 1203.9,1042.4 1204.6,1040.1 1203.2,1036.9 1200.8,1036.2 1199.7,1034.7
			1202,1030 1206.2,1023.9 1208.9,1020.6 1211.4,1019.3 1213.1,1018.8 1218,1015.4 1219.8,1013.5 1220,1011.8 1219.9,1010.1
			1220.6,1008.1 1223,1005.5 1228.5,1000.9 1231,997.9 1234.1,991.6 1236.1,989 1238.9,988 1237.1,990.6 1235.7,994 1235.7,996.9
			1237.8,998.9 1240.4,991.7 1242.7,988.3 1245.3,988.2 1245.6,991 1243.7,994.8 1239,1000.5 1241.6,1000.3 1243.8,999.6
			1247.8,997.3 1248.4,1001.1 1250.3,1001.8 1252.8,1000.8 1255.2,998.9 1255.7,1002 1257.1,1003.4 1259.2,1003.4 1261.3,1002.2
			1260.8,1001.1 1260.6,1000.3 1260,999.6 1259,998.9 1260,996.8 1261.6,995.1 1263.2,993.8 1265.3,992.8 1265.1,995.1 1265.5,996.7
			1266.2,997.8 1267.5,998.9 1268.9,996.8 1278.6,991.2 1289.1,978.1 1296.3,964 1301.9,959.5 1308.7,949.4 1311.8,946 1312.3,947
			1312.9,947.7 1308.3,958.2 1283.7,994.2 1277.3,998.6 1276.3,1000.5 1278.2,1004.2 1282.8,1002.7 1292.3,997.4 1292.9,998.8
			1295.6,997.6 1302,993 1300.7,991.3 1299.6,992.9 1298.4,993.9 1297.2,993.9 1295.8,993 1297.9,990.1 1301.2,984 1303.2,982.1
			1305.8,981.2 1307.1,982.4 1306.9,985 1305.7,988.4 1308.2,986.9 1314.3,982.2 1311.9,980.2 1310.6,977.4 1309.6,974.2 1308,971
			1306.9,974.2 1305.7,973.5 1305.2,973 1304.7,972.3 1304.5,971 1309.8,967 1312.9,964 1315.6,957.4 1321.3,950.2 1322.7,947
			1323.7,943.9 1328,937.4 1329,933 1327.5,926.2 1327.9,923.2 1330.8,925.4 1336.3,926 1341.8,918.8 1346.2,909.1 1350.9,895.3
			1351.7,890.9 1351,887.1 1348.2,885.2 1344.5,884.3 1340.9,882.9 1338.5,879.2 1349.5,883.8 1354.2,884.7 1355.6,885.6
			1356.1,886.5 1356.4,889.2 1356.9,890.2 1361,894.7 1363.9,896.4 1366.7,896.3 1368.8,894.3 1369.8,888.5 1371.8,885.7
			1371.9,888.4 1372.7,890 1373.7,891.3 1374.2,893.3 1374.4,893.4 1375.2,895.5 1375.5,896.4 1375,896.4 1373.9,897.1 1373.1,898.3
			1373,899.8 1375.5,902.9 1378.9,902.5 1385.4,898.2 1384,901.3 1385,904.2 1386.3,909.5 1387.8,912.1 1388.7,912.4 1389.7,911.6
			1390.8,911 1392.1,911.5 1392.9,912.8 1392.4,913.8 1391.9,914.8 1391.5,916.1 1395.8,929.8 1397,931.6 1396.4,933.9 1396.7,937.3
			1397.3,940.6 1398.2,942.7 1398.8,943.8 1399.5,945.5 1400.1,946.4 1401.1,946.5 1403,944.8 1403.9,944.9 1405.9,948.8 1406,953.7
			1403.9,963.5 1407.1,965 1406.6,967.3 1404.9,970.5 1403.9,973.8 1403.6,975.9 1403,977.3 1400.8,980.1 1400.2,981.8 1401,983.1
			1402.1,984.5 1402.6,986.4 1404.1,987 1413.7,983.9 1413.3,984.4 1414.1,985.4 1416.2,987.2 1417.2,987.4 1421.1,987.2
			1421.1,988.8 1412.9,991.1 1408.9,992.9 1405.8,995.7 1402.6,1000.3 1401.9,1002.5 1403.9,1002.9 1408.6,1002.9 1407.3,1005.6
			1405.2,1007.7 1400.1,1010.5 1400.5,1013.9 1397.4,1015.7 1393.4,1016.1 1390.3,1015.3 1390.5,1015.3 1391.4,1014.7 1391.9,1014.1
			1391.5,1013.6 1388.5,1012.3 1387.1,1013 1386.5,1016.1 1386.6,1021 1387.1,1023.2 1388.3,1025.3 1392,1027.9 1396.6,1030.2
			1398.7,1031.7 1395.3,1032.3 1386,1030.8 1384.6,1031.8 1383.8,1034.5 1383.1,1037.3 1382.2,1039.4 1379.2,1044.1 1368.5,1071.2
			1366.2,1074.9 1359.5,1083.5 1358.6,1085.7 1357.7,1090.5 1357.1,1092.7 1353.2,1100.9 1351.7,1105.5 1351,1110.2 1351.3,1115
			1352.8,1121.8 1352.6,1123 1353.3,1123.6 1355.8,1124.8 1365.1,1126.5 1366.1,1126.9 1367.7,1129 1368.8,1129.4 1369.9,1129.2
			1371.8,1128.2 1373.1,1128 1375.6,1128 1377.5,1127.7 1379.3,1126.7 1381.8,1124.8 1386,1120 1388,1118.7 1394.3,1117.6
			1396,1116.4 1396.9,1114.1 1397.5,1111.9 1398.4,1110 1402.3,1108.8 1406.5,1106 1407.6,1104.8 1408.6,1102.9 1409.5,1098.4
			1410.2,1096.9 1411.6,1096.1 1418,1093.9 1419.2,1092.7 1427,1077.1 1428.4,1075.2 1429.8,1074.8 1434,1074.5 1436,1073.7
			1439.8,1070.4 1441.3,1068.4 1439.7,1066.8 1441.3,1065.1 1443.5,1063.7 1444.6,1063.6 1447.2,1055.1 1448.4,1052.8 1449.6,1050.9
			1451.2,1049.5 1453.4,1048.9 1452.2,1051.5 1449.5,1059.6 1455.4,1057.1 1459.6,1051.3 1465.6,1037.9 1465.3,1040.7 1463.3,1047.6
			1463.7,1048.9 1466.4,1048.4 1470.5,1046.5 1473.1,1045.7 1471.8,1049 1472.1,1051.8 1473.8,1053.5 1476.7,1053.5 1474.3,1056.5
			1465.2,1062.1 1461.8,1065.8 1463.9,1067.8 1462.5,1070.8 1457.7,1075.9 1454,1081.1 1450.8,1087.4 1457.1,1086 1458.5,1087
			1456.4,1091.3 1455.8,1093.3 1456.9,1094.6 1458.7,1095.3 1460,1095.5 1460.6,1094.5 1462.6,1090.6 1463.2,1089 1464.4,1089
			1465.2,1091 1465.4,1092.9 1465.2,1094.8 1464.4,1096.8 1466.8,1097.6 1469,1096.7 1471.2,1094.7 1473.2,1092.1 1472.8,1096.7
			1468.2,1100.4 1459,1105.4 1457.8,1107.7 1456.5,1113.6 1455.2,1116.1 1453.5,1118.5 1452.2,1120.5 1451.4,1122.9 1450.7,1128.9
			1450.9,1130 1452.1,1129.4 1456.6,1126 1468.7,1109.9 1470.9,1108.2 1476.6,1107 1479.1,1106 1476.8,1109.7 1468.7,1111.5
			1466.8,1114.7 1465.3,1118.9 1458.7,1126.5 1457.2,1130 1457.4,1132.5 1458,1135 1458.4,1137.5 1457.7,1139.4 1455.3,1142.8
			1452.1,1149.3 1452.1,1153.3 1452.3,1155.1 1453.9,1160.2 1454.6,1161.9 1460.3,1168.5 1466.6,1170.2 1473.1,1167.9 1479.6,1162.5
			1481.3,1161.6 1483.5,1161 1485.6,1159.9 1487,1156.2 1488.4,1154.6 1491.3,1152.4 1496.2,1146.6 1499,1144 1502.4,1143.1
			1497.5,1152.1 1496.2,1155.5 1499.7,1150.9 1501.7,1148.8 1503.7,1148 1504.5,1149.2 1505.6,1151.6 1506.8,1153.4 1508,1153.3
			1512.6,1147.3 1515.5,1144.6 1518.4,1143.2 1518.2,1148.6 1520.7,1155.7 1524.6,1162.2 1528.4,1166.4 1531.7,1168.1 1534.7,1168.7
			1540.7,1167.8 1549.8,1163.3 1554.3,1159.6 1560.6,1143.9 1564.6,1140.3 1564.9,1139.9 1570,1138.6 1571.2,1137.1 1573.2,1133.2
			1576.8,1131.3 1577.5,1128.6 1577.7,1125.4 1578.8,1123.1 1578.1,1118.6 1579.5,1113.9 1581.5,1108.9 1582.5,1104.1 1587.4,1095.4
			1586.7,1094 1585.2,1093.2 1584.5,1091.8 1584.9,1090.2 1587.4,1089.2 1585,1085.3 1586.1,1082.7 1592.3,1078.3 1592.3,1076.6
			1591.1,1075.9 1590.1,1074.4 1589.1,1072.6 1588.6,1070.6 1591.9,1071.5 1593.8,1070.2 1593.2,1068.3 1589.8,1067.3 1586.4,1067
			1577.3,1064.3 1580.4,1062.8 1587.1,1062.4 1589.7,1061.1 1591.4,1058 1592.6,1053.6 1593.5,1046.4 1593.8,1044.8 1594.8,1043.8
			1595.5,1042.5 1596.4,1037.9 1598.1,1034.1 1599.4,1029 1601,1027.3 1601.8,1025.5 1599.5,1022.1 1605.2,1020.1 1607.7,1018.5
			1609.3,1016 1607.3,1016.2 1605.4,1016.1 1603.5,1015.6 1601.9,1014.4 1604.6,1013.4 1610.5,1012.8 1613.1,1011.2 1614.5,1008.5
			1616.7,1000.4 1618,997.2 1619.7,995 1624.5,990.5 1626.5,987.9 1627.7,984.8 1627.1,982.8 1621.8,978.5 1627.3,974.6
			1630.1,973.2 1632.8,973.6 1634.9,967.6 1634.9,965.3 	"/>
		<polygon fill="#e3dac9" points="1075.2,498.1 1074,500.5 1073.3,503.9 1073.3,507.4 1073.9,509.5 1078.3,510.6 1083.6,507.7
			1087.5,503 1087.4,498.3 1077.6,497.6 	"/>
		<polygon fill="#e3dac9" points="1106.1,175 1107.9,173.7 1109.4,171.9 1110.7,168.5 1108.1,164.9 1104.3,165.3 1097.2,169.9
			1092.5,170.1 1090.7,171.1 1091.9,173.9 1095.4,178.2 1095.6,180.3 1093.6,182.9 1099.9,186.6 1103.3,187.9 1107.3,187.9
			1105.7,184.2 1103.6,182.1 1102.6,180.2 1103.9,177.2 	"/>
		<polygon fill="#e3dac9" points="1036.8,928.1 1031.6,928 1011.3,932.5 1006.8,935.4 1006.4,939.3 1008.7,940.9 1014.6,940.8
			1019,943.2 1033.8,946.3 1038.6,946.6 1043.3,946.1 1047.9,944 1044.1,942.1 1039.5,938.8 1037,934.6 1039.4,930 	"/>
		<polygon fill="#e3dac9" points="1355.6,962.5 1354.9,957.6 1356.7,950.3 1361.6,937.7 1362,933.1 1361,931.7 1359.6,932.9
			1353.9,946.1 1353,950.3 1350.6,948.6 1351.3,947.2 1353,942.6 1350.8,944 1340.6,955.7 1339.5,958.1 1345.2,957.1 1344.6,961.4
			1337,973.6 1320.9,987.9 1318.7,990.8 1320.8,992.3 1334.8,994 1337.7,993.3 1339.8,991.3 1351.3,968.9 	"/>
		<polygon fill="#e3dac9" points="996.7,1134 996.9,1132.6 997.4,1131.4 998.3,1130.3 999.2,1129.2 999.8,1126.1 997.4,1125.2
			994,1125.6 991.9,1126.3 989.1,1128.3 986.9,1130.5 983.1,1135.5 986.5,1138.1 991,1138.4 995.9,1137.5 1000.2,1135.5
			999.2,1135.2 	"/>
		<polygon fill="#e3dac9" points="977.3,1106.4 972.5,1106.2 970.6,1105.4 969.8,1102.5 969.8,1093.2 970.1,1092.6 970.9,1091.8
			971.4,1090.7 971.1,1089.2 970.1,1088.3 969,1088.1 968,1088.1 966.5,1087.5 965.5,1087.5 964.4,1087.3 963.6,1086.1 963.6,1084
			964.7,1083.7 967.3,1084.5 970.4,1083.1 971.7,1082.9 972.3,1083.5 972.5,1084.5 973,1085.6 974.1,1086.1 976.2,1085.1
			977.4,1082.9 978.1,1080.7 980.5,1078.7 981.2,1075.9 981.4,1072.7 981.1,1070.6 971.9,1063.9 965.6,1062.5 962.5,1061.2
			960,1058.7 959.8,1056.4 961.8,1054.1 965.1,1051.9 963,1050.6 960.8,1050.8 958.8,1052.2 957,1054.3 955.5,1057 955.4,1059.2
			956.3,1062.9 956.9,1071 957.5,1074.7 966.1,1092.9 967.6,1101.8 965,1110.7 958.4,1116 955.5,1119.5 956.3,1122.3 959.3,1124.6
			959.3,1126.2 958.7,1127.9 960,1130.8 962.2,1132.1 964.5,1131.5 974.7,1124.7 981.8,1118.3 984.3,1111.7 	"/>
		<polygon fill="#e3dac9" points="1235.2,1022.7 1235.5,1028.1 1238.5,1030.7 1241,1028.2 1242,1024.5 1244.5,1021.1 1241.7,1019.8 	"/>
		<polygon fill="#e3dac9" points="1356.1,999.9 1357.7,992.6 1355.2,989.3 1351.7,988.6 1348.5,994.2 1346.9,996.1 1344.7,996.9
			1344.1,999.9 1346,1001.8 1351.6,1001.8 	"/>
		<polygon fill="#e3dac9" points="1558.9,943.2 1556.8,947.7 1561.3,949 1566.6,948.3 1571.9,943.4 1577.1,939.7 1576.6,935.6
			1569.9,935 	"/>
		<polygon fill="#e3dac9" points="1052.8,346.4 1052.2,348.6 1047,348.8 1046.6,350.3 1049.9,351.4 1053.9,351.9 1055.6,350.7
			1057.7,348.8 1056.3,347 1054.5,346.2 	"/>
		<polygon fill="#e3dac9" points="1074.4,342.7 1070.6,342.3 1068.5,342.3 1061.8,342.7 1061.4,345.1 1063.7,348.1 1069.5,349.9
			1074.5,350.3 1078.1,352.3 1080.5,351.4 1079.5,348.9 1077.5,345.1 	"/>
		<polygon fill="#e3dac9" points="800.7,209.3 802.3,210 804.6,210.3 807.3,208.4 807.6,206.8 810.4,205.4 812.8,204.5 814.3,203.7
			813.3,202.5 811.4,201 810.1,199.5 807.9,199.8 806.7,200.4 806.1,199.5 802.7,199.5 800.4,200.4 798.2,202.7 797.9,205
			799.2,206.8 801.2,207.1 803.5,207.1 804.7,207.8 802.5,208.6 	"/>
</g>
<!-- paths -->
<g id="trail-path" display="none">
<path display="inline" fill="none" stroke="#010101"	stroke-width="5" stroke-miterlimit="10"
	d="M1617.7,957.8c-2,11.8-5.9,26.8-13.6,42.8c-3.5,7.2-7.3,13.6-11,19c-1,2-2.6,5.2-4.1,9.4
		c-5,13.7-2.5,18.4-7.5,24.7c-4.8,6-11.1,6.6-10.6,10c0.3,3,5.7,2.8,8.5,7s-0.1,8.2-3.4,21.6c-3.3,13.3-2.2,16.8-6.6,30.5
		c-1,2.9-40,26.5-47.1,22.9c-4.6-2.3-6.3-6.2-12.6-7.5c-9.3-2-14.7,4.8-24.3,6.8c-6.8,1.4-11.6-1.3-25.5-11.1
		c-0.2,0.1,4.7-6.6,9.2-13.4c9.3-14.1,11.9-13.6,11.6-15.5c-0.5-3.1-4.4-5.5-5.5-8.5c-3.1-9.2-0.8-19.2,4.9-34.1
		c5.4-14,2.2-31.1-2.6-30.6c-0.3,0-16.4-1.2-18-1.3c-5.1-0.2-7.8,6.6-16,15.7c-6.2,6.8-7.3,6.1-12.9,11.9
		c-10.3,10.8-8.9,16.4-18.4,30.6c-9.8,14.6-14.6,21.9-22.8,23c-10.1,1.4-21.1-7.2-31.4-1.8c-1,0.4-1.7,1-2.4,0.7
		c-3.1-1.8,13.2-35.4,23.3-54.1c10.2-15.1,13.4-7.3,20.3-23c4.2-9.8-1.3-14.1,3.2-19.4c9.1-11,17.3-10.7,26.9-19.3
		c11.2-9.9,7.7-19.3,1.3-34.4c-7.5-17.9-12.3-19.8-32.9-50.4c-7.4-12.6-11.9-8.1-18.2-14.6c-18.4-30.5,21.5-66.5,6.1-92.4
		c-11.1-18.6-34.5-15.5-38.1-34.1c-0.1-0.9-2.1-11.6,4.1-18c3.1-3.4,7.7-4.7,11.2-5.7c7.6-2.3,10-0.7,12.9-2.2
		c5.9-3.3,10.6-25.4,0-41.7c-5.1-7.9-12.8-12.8-15.3-14.4c-3.3-2.1-3.3-1.6-12.9-6.3c-12-5.9-18.2-8.9-22.7-13.1
		c-3.7-3.5-3.5-4.4-8.5-9.1c-1.3-1.2-5.5-5.1-11.4-8.9c-10.1-6.5-14.4-6-28.1-12.5c-10.4-5-15.5-7.5-16.8-10.7
		c-3.4-8.8,11.1-15,19.7-34.6c9.1-20.6,5.5-41.3,4.6-46.3c-1.1-5.1-7.7-7.4-6.3-17.8c3.6-26.8,61-53,60.4-54.9
		c-0.7-2.3-26.6,9.8-51.8,28.8c-10.3,7.8-12.1,23.4-20.6,34.1c-17.1,22-26.9,38.3-39.6,41.8c-10.7,2.9-24,9.4-33.9,12.9
		c-14.3,5-11.3,6.7-38.7,21.2c-13.6,9.1-37,11.2-47.8,18.2c-23.1,14.7-74.6,13.4-91.9-7.4c-22.6-27.1,9.2-71-16.1-95.5
		c-10.8-10.6-24.3-12.2-29.4-12.4c-31.8-1.2-61.6,9.3-75.6,19.6c-5.2,3.8-19.5,14-26.6,10.8c-8.2-3.6-12.2-6.2-18.6-7.6
		c-5.5-1.2-10,11.6-16,18.4c-15.3,17.3-44.5,28.8-62.3,22.9c-22-7.4-27-58.7-57.4-80.6c-16.9-12.1-15.2,12-21.5-1.8
		c-6.2-13.2-0.7-28.6,2-36c5.3-14.9,11.8-17.2,22.2-36c5-9,10.2-15.4,15.8-30.4c46.4-124,15.2-38,43.8-109.3
		c2.6-6.4,5.9-14.9,14.3-20.7c14.4-10.1,33.7-6,34.2-9.2c0.3-3-16-4.3-17.8-11.5c-1.7-6.9,11.6-13.7,24.6-25
		c13.7-11.8,34.4-26.6,51.7-58.2c21.5-39.4,6.8-48.6,4.9-52.3"/>
</g>
<g id="camera-path" display="none">
	<path display="inline" fill="none" stroke="#EC2227" stroke-width="3" stroke-miterlimit="10"
		d="
		M1602.1,942.1c23.7,72.9-44.4,136.2-97.3,166.6c-64.9,37.3-104,13.4-111.6-23c-6.2-29.9,36.4-47.7,41.7-98.4
		c4.7-45.2-55.5-485.9-111.2-510c-41.3-17.9-87.5,43.8-221,92c-162.2,58.5-385.9,35.8-405.6-75.8C675,369.1,916.2,284.7,892.8,115.1
		"/>
</g>
<!-- points -->
<g id="points" display="none">
	<circle id="St Barbe" display="inline" fill="#405b54" cx="886.6" cy="108.1" r="3.1415"/><!-- Day 7 Ste Barbe -->
	<circle id="Norris Point" display="inline" fill="#405b54" cx="692" cy="503.9" r="3.1415"/><!-- Day 6 Gros Morne -->
	<circle id="Fogo Island" display="inline" fill="#405b54" cx="1338" cy="471" r="3.1415"/><!-- Day 5 Fogo Island -->
	<circle id="Arnold's Cove" display="inline" fill="#405b54" cx="1379" cy="895.6" r="3.1415"/><!-- Day 4 Arnold's Cove -->
	<circle id="Mt. Carmel" display="inline" fill="#405b54" cx="1482.9" cy="1042" r="3.1415"/><!-- Day 3 Mt Carmel -->
	<circle id="" display="inline" fill="#405b54" cx="1618.4" cy="955.3" r="0.01"/><!-- Day 2 St John's -->
	<circle id="St John's" display="inline" fill="#405b54" cx="1617.7" cy="957.1" r="3.1415"/> <!-- Day 1 Arrival -->
</g>
<!-- Maps decoration -->
<g id="Parks">
	<g id="grosmorne">
			<path fill="#0E4431" d="M775.6,533.8c0-0.2-0.9-0.6-1.3-0.8c-0.4-0.3-0.8-1-0.8-1s-0.6-0.2-1-0.2c-0.3,0-1-0.2-1-0.2
				c0.2-0.8,0.3-1.7,0.3-2.6c0-6.1-5-11.1-11.1-11.1s-11.1,5-11.1,11.1c0,0.9,0.1,1.8,0.3,2.6c0,0-2,0.4-2.2,0.7
				c-0.3,0.3-0.3,0.6-0.6,0.8s-1.1,0.5-1.1,0.7s0.4,1,0.5,1c0.1,0.1,0.4,0,0.5,0.1c0.1,0.1,0.4,0.5,0.6,0.5c0.1,0,1.6-0.2,2-0.2
				c0.4,0.1,0.8,0.6,1.2,0.6c0.3,0,1.3-0.1,1.3-0.1c2,2.6,5.2,4.3,8.8,4.3c3.5,0,6.6-1.6,8.6-4.1c0.3,0,0.3,0.1,0.8,0.2
				c0.5,0.1,0.7,0.1,1,0.1s0.9-0.6,1.2-0.7c0.3-0.1,0.3-0.1,0.7-0.1s0.8,0.1,0.9,0c0.1,0,0.5-0.4,0.5-0.4s0.3,0,0.4,0
				c0,0,0.2-0.2,0.4-0.5C775.5,534.3,775.6,534,775.6,533.8z M774,533.9c-0.1,0.2-0.9,0-2.2-0.2s-2.3-0.4-2.4-0.1
				c0,0.2,0.4,0.2,0.8,0.3c0.4,0.1,0.7,0.1,0.7,0.2c0,0.1-0.1,0.4-0.3,0.4s-0.9,0-1.4-0.1c-0.5-0.1-1.4-0.2-1.4-0.2s-0.3,0.4-0.6,0.7
				c-0.3,0.3-0.7,0.6-0.7,0.6s0.6,0.1,0.8,0.2c0.3,0,0.7,0.1,0.7,0.1c-1.8,1.9-4.4,3.1-7.2,3.1c-3,0-5.7-1.3-7.5-3.4
				c1.9-0.4,3.3-0.4,3.3-0.5c0-0.1-0.2-0.4-0.3-0.8c-0.1-0.4-0.1-0.8-0.1-0.8c-0.1,0-1.6,0.2-2.7,0.4c-1.1,0.2-2.7,0.5-2.9,0.3
				s0.4-0.3,0.6-0.4c0.2,0,0.8-0.2,0.8-0.2l-0.2-0.3c-0.1,0-0.9,0.2-2.2,0.4c-1.3,0.3-1.8,0.5-1.9,0.5s-0.2-0.1-0.2-0.1
				s0-0.2-0.1-0.2c0-0.1,0.2-0.1,0.4-0.3c0.2-0.2,0.4-0.4,0.4-0.5c0.5-0.3,2.3-0.6,3.9-0.9c1.5-0.2,4.3-0.4,4.4-0.4
				c0,0,0.1-0.2,0.2-0.4c0.1-0.2,0.3-0.4,0.2-0.4s-1.1,0-2.8,0.1c-1.7,0.1-3.1,0.4-3.1,0.4c-0.2-0.8-0.3-1.6-0.3-2.4
				c0-5.5,4.4-9.9,9.9-9.9s9.9,4.4,9.9,9.9c0,0.9-0.1,1.7-0.3,2.5c0,0-1.1-0.2-1.2-0.1c0,0,0,0.2-0.1,0.5c-0.1,0.2-0.2,0.4-0.2,0.5
				c0,0,1.1,0.2,2.2,0.4c1.1,0.2,1.9,0.3,2,0.3s0.3,0.3,0.5,0.5C773.7,533.5,774.1,533.8,774,533.9z"/>
			<path fill="#0E4431" d="M763.1,532.4c-0.2,0.4-0.4,0.8-0.7,1.1c0.5,0.2,0.9,0.3,1.2,0.4c0.1-0.2,0.3-0.4,0.5-0.6
				c0.1-0.1,0.1-0.2,0.2-0.3c-0.2-0.1-0.5-0.2-0.7-0.3C763.5,532.6,763.3,532.5,763.1,532.4z"/>
			<path fill="#0E4431" d="M760.3,533.3c-0.1,0.2-0.3,0.4-0.5,0.6c0.2,0.1,0.4,0.2,0.6,0.3c0.2,0.1,0.4,0.2,0.5,0.2
				c0.2-0.2,0.4-0.4,0.7-0.8c-0.3-0.2-0.8-0.4-1.1-0.7C760.4,533.1,760.3,533.2,760.3,533.3z"/>
			<path fill="#0E4431" d="M768.7,527.2c-0.6-3.4-3.3-5.2-5.4-5.5c-2.1-0.3-5.7,1.8-6.1,1.9c-0.4,0.1-1,0-1.6,0s-3.5,2.7-3.7,3.6
				c-0.3,0.9,2.3,2.7,2.3,2.7s0.6-0.3,1.5-0.3s1.6,0.8,1.6,0.8c0.8-1,2.6-1.5,2.6-1.5s-0.2-1,0-1.8c0.1-0.8,0.8-1.4,0.8-1.4
				s-0.1-0.3,0.5-1.3s1.6-1,1.7-0.9c0.1,0.1,0,0.2,0,0.2s-0.5,0.2-0.7,0.5s-0.5,1-0.5,1.1c0,0.1,0.5-0.1,0.7-0.1c0.2,0.1,0,0.2,0,0.2
				s-0.6,0.3-1.1,1.1c-0.6,0.7-0.2,2.2-0.2,2.2s0.7-0.1,1.6-0.2c1.1,0,3.1,0.2,3.1,0.2c0.1,0,0.9-0.5,1-0.4c0.4,0.2-1,1-1.3,1.1
				c-0.3,0.1-3.5-0.3-4.5,0c-2.5,0.5-3.1,1.9-3.6,2.9s-0.1,5.6,5.4,4.4C768.1,535.8,769.3,530.5,768.7,527.2z M755.7,525.8
				c-0.2,0.3-1.4,0.6-1.5,0.4s0.1-0.7,0.4-0.8C754.7,525.2,755.9,525.4,755.7,525.8z M765.6,531.8c0,0.1-0.2,0.5-0.5,1
				c0.1,0,0.2,0,0.3,0.1c0.1,0,0.2,0.2,0.2,0.3c0,0.1-0.2,0.3-0.3,0.3c0,0-0.2-0.1-0.4-0.2c-0.1,0.1-0.2,0.3-0.2,0.4
				c-0.1,0.1-0.2,0.3-0.3,0.5c0.1,0,0.1,0,0.1,0c0.2,0,0.3,0.1,0.3,0.3c-0.1,0.2-0.3,0.4-0.4,0.3c0,0-0.2-0.1-0.4-0.1
				c-0.2,0.2-0.3,0.4-0.4,0.4c-0.1,0.1-0.3,0-0.4-0.1c-0.1-0.1-0.1-0.3,0-0.4c0,0,0.1-0.1,0.2-0.1c-0.3-0.1-0.7-0.3-1-0.4
				c-0.2,0.2-0.4,0.5-0.6,0.7c0.2,0.1,0.3,0.1,0.3,0.1c0.1,0,0.2,0.2,0.2,0.3c0,0.1-0.2,0.3-0.3,0.3s-0.3-0.1-0.6-0.2
				c-0.2,0.2-0.4,0.4-0.5,0.5c-0.1,0.1-0.4,0.1-0.5-0.1c-0.1-0.1-0.1-0.3,0.1-0.4c0.1,0,0.1-0.1,0.3-0.2c-0.1-0.1-0.3-0.1-0.4-0.2
				c-0.2-0.1-0.4-0.2-0.6-0.4c-0.2,0.2-0.3,0.3-0.3,0.4c-0.1,0.1-0.3,0-0.4-0.1c-0.1-0.1-0.1-0.3,0-0.4c0,0,0.1-0.1,0.3-0.2
				c-0.2-0.2-0.4-0.3-0.5-0.3c-0.1-0.1-0.2-0.2-0.1-0.3c0.1-0.1,0.2-0.1,0.3,0c0.1,0,0.3,0.2,0.5,0.3c0.1-0.2,0.3-0.4,0.5-0.6
				c0-0.1,0.1-0.1,0.2-0.2c-0.3-0.2-0.5-0.3-0.5-0.4c-0.1-0.1-0.3-0.3-0.1-0.4c0.1-0.1,0.3,0.1,0.5,0.1c0.1,0,0.2,0.1,0.4,0.2
				c0.3-0.4,0.6-0.9,0.6-1c0.1-0.1,0.1-0.2,0.3-0.1c0.2,0.1,0.1,0.2,0.1,0.3s-0.3,0.6-0.6,1c0.4,0.2,0.9,0.4,1.2,0.6
				c0.2-0.3,0.5-0.8,0.8-1.1c-0.4-0.3-0.7-0.5-0.7-0.5c-0.1-0.1-0.2-0.2-0.1-0.3c0.1-0.1,0.2-0.1,0.3,0c0.1,0,0.4,0.2,0.8,0.5
				c0.1-0.2,0.2-0.3,0.3-0.4c0.1-0.2,0.2-0.4,0.4-0.4c0.2,0.1,0.2,0.3,0.1,0.4c0,0.1-0.1,0.3-0.3,0.6c0.2,0.1,0.4,0.2,0.5,0.3
				c0.3,0.1,0.6,0.2,0.7,0.3C765.3,532.4,765.5,531.9,765.6,531.8c0.1-0.1,0.1-0.2,0.3-0.1C765.7,531.5,765.6,531.7,765.6,531.8z"/>
		</g>
	<g id="terranova">
		<path fill="#0E4431" d="M1383.9,823.6c0-0.2-0.9-0.6-1.3-0.8c-0.4-0.3-0.8-1-0.8-1c0,0-0.6-0.2-1-0.2c-0.3,0-1-0.2-1-0.2
			c0.2-0.8,0.3-1.7,0.3-2.6c0-6.1-5-11.1-11.1-11.1c-6.1,0-11.1,5-11.1,11.1c0,0.9,0.1,1.8,0.3,2.6c0,0-2,0.4-2.2,0.7
			c-0.3,0.3-0.3,0.6-0.6,0.8s-1.1,0.5-1.1,0.7c-0.1,0.2,0.4,1,0.5,1c0.1,0.1,0.4,0,0.5,0.1s0.4,0.5,0.6,0.5c0.1,0,1.6-0.2,2-0.2
			c0.4,0.1,0.8,0.6,1.2,0.6c0.3,0,1.3-0.1,1.3-0.1c2,2.6,5.2,4.3,8.8,4.3c3.5,0,6.6-1.6,8.6-4.1c0.3,0,0.3,0.1,0.8,0.2
			c0.5,0.1,0.7,0.1,1,0.1s0.9-0.6,1.2-0.7c0.3-0.1,0.3-0.1,0.7-0.1c0.4,0,0.8,0.1,0.9,0c0.1,0,0.5-0.4,0.5-0.4c0.1,0,0.3,0,0.4,0
			c0,0,0.2-0.2,0.4-0.5S1383.9,823.8,1383.9,823.6z M1382.2,823.7c-0.1,0.2-0.9,0-2.2-0.2c-1.3-0.2-2.3-0.4-2.4-0.1
			c0,0.2,0.4,0.2,0.8,0.3c0.4,0.1,0.7,0.1,0.7,0.2c0,0.1-0.1,0.4-0.3,0.4c-0.2,0-0.9,0-1.4-0.1c-0.4-0.1-1.4-0.2-1.4-0.2
			c0,0-0.3,0.4-0.6,0.7s-0.7,0.6-0.7,0.6c0,0,0.6,0.1,0.8,0.2c0.3,0,0.7,0.1,0.7,0.1c-1.8,1.9-4.4,3.1-7.2,3.1c-3,0-5.7-1.3-7.5-3.4
			c1.9-0.4,3.3-0.4,3.3-0.5c0-0.1-0.2-0.4-0.3-0.8c-0.1-0.4-0.1-0.8-0.1-0.8c-0.1,0-1.6,0.2-2.7,0.4s-2.7,0.5-2.9,0.3
			c-0.2-0.2,0.4-0.3,0.6-0.4c0.2,0,0.8-0.2,0.8-0.2c0,0-0.2-0.3-0.2-0.3s-0.9,0.2-2.2,0.4c-1.3,0.3-1.8,0.5-1.9,0.5
			c0,0-0.2-0.1-0.2-0.1c0-0.1,0-0.2-0.1-0.2c0-0.1,0.2-0.1,0.4-0.3c0.2-0.2,0.4-0.4,0.4-0.5c0.5-0.3,2.3-0.6,3.9-0.9
			s4.3-0.4,4.4-0.4c0,0,0.1-0.2,0.2-0.4c0.1-0.2,0.3-0.4,0.2-0.4c-0.1,0-1.1,0-2.8,0.1c-1.7,0.1-3.1,0.4-3.1,0.4
			c-0.2-0.8-0.3-1.6-0.3-2.4c0-5.5,4.4-9.9,9.9-9.9c5.5,0,9.9,4.4,9.9,9.9c0,0.9-0.1,1.7-0.3,2.5c0,0-1.1-0.2-1.2-0.1
			c0,0,0,0.2-0.1,0.5c-0.1,0.2-0.2,0.4-0.2,0.5c0,0,1.1,0.2,2.2,0.4c1.1,0.2,1.9,0.3,2,0.3c0,0,0.3,0.3,0.5,0.5
			S1382.3,823.5,1382.2,823.7z"/>
		<path fill="#0E4431" d="M1371.3,822.1c-0.2,0.4-0.4,0.8-0.7,1.1c0.5,0.2,0.9,0.3,1.2,0.4c0.1-0.2,0.3-0.4,0.5-0.6
			c0.1-0.1,0.1-0.2,0.2-0.3c-0.2-0.1-0.5-0.2-0.7-0.3C1371.7,822.4,1371.5,822.3,1371.3,822.1z"/>
		<path fill="#0E4431" d="M1368.5,823.1c-0.1,0.2-0.3,0.4-0.5,0.6c0.2,0.1,0.4,0.2,0.6,0.3c0.2,0.1,0.4,0.2,0.5,0.2
			c0.2-0.2,0.4-0.4,0.7-0.8c-0.3-0.2-0.8-0.4-1.1-0.7C1368.6,822.9,1368.6,823,1368.5,823.1z"/>
		<path fill="#0E4431" d="M1376.9,816.9c-0.6-3.4-3.3-5.2-5.4-5.5c-2.1-0.3-5.7,1.8-6.1,1.9s-1,0-1.6,0c-0.6,0-3.5,2.7-3.7,3.6
			c-0.3,0.9,2.3,2.7,2.3,2.7s0.6-0.3,1.5-0.3c0.9,0,1.6,0.8,1.6,0.8c0.8-1,2.6-1.5,2.6-1.5s-0.2-1,0-1.8c0.1-0.8,0.8-1.4,0.8-1.4
			s-0.1-0.3,0.5-1.3c0.6-1,1.6-1,1.7-0.9c0.1,0.1,0,0.2,0,0.2s-0.5,0.2-0.7,0.5s-0.5,1-0.5,1.1c0,0.1,0.5-0.1,0.7-0.1
			c0.2,0.1,0,0.2,0,0.2s-0.6,0.3-1.1,1.1c-0.6,0.7-0.2,2.2-0.2,2.2s0.7-0.1,1.6-0.2c1.1,0,3.1,0.2,3.1,0.2c0.1,0,0.9-0.5,1-0.4
			c0.4,0.2-1,1-1.3,1.1c-0.3,0.1-3.5-0.3-4.5,0c-2.5,0.5-3.1,1.9-3.6,2.9c-0.5,1-0.1,5.6,5.4,4.4
			C1376.4,825.5,1377.6,820.3,1376.9,816.9z M1363.9,815.5c-0.2,0.3-1.4,0.6-1.5,0.4s0.1-0.7,0.4-0.8
			C1363,815,1364.1,815.2,1363.9,815.5z M1373.8,821.5c0,0.1-0.2,0.5-0.5,1c0.1,0,0.2,0,0.3,0.1c0.1,0,0.2,0.2,0.2,0.3
			c0,0.1-0.2,0.3-0.3,0.3c0,0-0.2-0.1-0.4-0.2c-0.1,0.1-0.2,0.3-0.2,0.4c-0.1,0.1-0.2,0.3-0.3,0.5c0.1,0,0.1,0,0.1,0
			c0.2,0,0.3,0.1,0.3,0.3c-0.1,0.2-0.3,0.4-0.4,0.3c0,0-0.2-0.1-0.4-0.1c-0.2,0.2-0.3,0.4-0.4,0.4c-0.1,0.1-0.3,0-0.4-0.1
			c-0.1-0.1-0.1-0.3,0-0.4c0,0,0.1-0.1,0.2-0.1c-0.3-0.1-0.7-0.3-1-0.4c-0.2,0.2-0.4,0.5-0.6,0.7c0.2,0.1,0.3,0.1,0.3,0.1
			c0.1,0,0.2,0.2,0.2,0.3c0,0.1-0.2,0.3-0.3,0.3c-0.1,0-0.3-0.1-0.6-0.2c-0.2,0.2-0.4,0.4-0.5,0.5c-0.1,0.1-0.4,0.1-0.5-0.1
			c-0.1-0.1-0.1-0.3,0.1-0.4c0.1,0,0.1-0.1,0.3-0.2c-0.1-0.1-0.3-0.1-0.4-0.2c-0.2-0.1-0.4-0.2-0.6-0.4c-0.2,0.2-0.3,0.3-0.3,0.4
			c-0.1,0.1-0.3,0-0.4-0.1c-0.1-0.1-0.1-0.3,0-0.4c0,0,0.1-0.1,0.3-0.2c-0.2-0.2-0.4-0.3-0.5-0.3c-0.1-0.1-0.2-0.2-0.1-0.3
			s0.2-0.1,0.3,0c0.1,0,0.3,0.2,0.5,0.3c0.1-0.2,0.3-0.4,0.5-0.6c0-0.1,0.1-0.1,0.2-0.2c-0.3-0.2-0.5-0.3-0.5-0.4
			c-0.1-0.1-0.3-0.3-0.1-0.4c0.1-0.1,0.3,0.1,0.5,0.1c0.1,0,0.2,0.1,0.4,0.2c0.3-0.4,0.6-0.9,0.6-1c0.1-0.1,0.1-0.2,0.3-0.1
			s0.1,0.2,0.1,0.3c0,0.1-0.3,0.6-0.6,1c0.4,0.2,0.9,0.4,1.2,0.6c0.2-0.3,0.5-0.8,0.8-1.1c-0.4-0.3-0.7-0.5-0.7-0.5
			c-0.1-0.1-0.2-0.2-0.1-0.3c0.1-0.1,0.2-0.1,0.3,0c0.1,0,0.4,0.2,0.8,0.5c0.1-0.2,0.2-0.3,0.3-0.4c0.1-0.2,0.2-0.4,0.3-0.4
			c0.2,0.1,0.2,0.3,0.1,0.4c0,0.1-0.1,0.3-0.3,0.6c0.2,0.1,0.4,0.2,0.5,0.3c0.3,0.1,0.6,0.2,0.7,0.3c0.3-0.4,0.5-0.9,0.6-1
			c0.1-0.1,0.1-0.2,0.3-0.1C1373.9,821.3,1373.9,821.4,1373.8,821.5z"/>
	</g>
</g>
<g id="Ferry">
	<g id="ferry">
		<path fill="#4D5D6C" d="M1327.2,505.1l0.1-1.4l-10.8-0.2c-0.3,0-0.7-0.1-1-0.2c-1.4-0.5-2.8-0.7-4.3-0.7c-0.2,0-0.5,0-0.7,0l-2.5,0.1
			l0.8,2.5c0.1,0.2,0.3,0.4,0.6,0.4h17.3C1326.9,505.7,1327.2,505.4,1327.2,505.1z"/>
		<path fill="#4D5D6C" d="M1325.3,502.1v-1.5c0-0.2,0.1-0.4,0.3-0.4h0.9c0.2,0,0.3-0.2,0.3-0.4v-0.7c0-0.2-0.1-0.4-0.3-0.4h-9.4
			c-0.1,0-0.2,0.1-0.3,0.2l-0.6,1.2h-6.7c-0.1,0-0.2,0.1-0.2,0.2s0.1,0.2,0.2,0.2h0.5v0.6l-2.7,0.1l0.4,1.1l2.6-0.1
			c0.2,0,0.5,0,0.8,0c1.5,0,3,0.2,4.4,0.7c0.3,0.1,0.6,0.1,0.9,0.1l5.5,0.2l3.4,0.1l2,0l0-1.1L1325.3,502.1z M1311.2,501.1
			L1311.2,501.1c-0.2,0-0.5,0-0.7,0v-0.6h0.7V501.1L1311.2,501.1z M1312.3,501.1c-0.2,0-0.5,0-0.7,0v-0.6h0.7V501.1z M1313.4,501.2
			c-0.2,0-0.5,0-0.7-0.1v-0.7h0.7V501.2z M1314.6,501.3c-0.2,0-0.5,0-0.7,0v-0.8h0.7V501.3z M1315.6,501.3c-0.2,0-0.4,0-0.6,0v-0.8
			h1L1315.6,501.3z M1318.3,501c0,0.1-0.1,0.1-0.1,0.1h-0.7c-0.1,0-0.1-0.1-0.1-0.1v-0.2c0-0.1,0.1-0.1,0.1-0.1h0.7
			c0.1,0,0.1,0.1,0.1,0.1V501z M1318.3,499.9c0,0.1-0.1,0.1-0.1,0.1h-0.7c-0.1,0-0.1-0.1-0.1-0.1v-0.2c0-0.1,0.1-0.1,0.1-0.1h0.7
			c0.1,0,0.1,0.1,0.1,0.1V499.9z M1319.9,501c0,0.1-0.1,0.1-0.1,0.1h-0.7c-0.1,0-0.1-0.1-0.1-0.1v-0.2c0-0.1,0.1-0.1,0.1-0.1h0.7
			c0.1,0,0.1,0.1,0.1,0.1V501z M1319.9,499.9c0,0.1-0.1,0.1-0.1,0.1h-0.7c-0.1,0-0.1-0.1-0.1-0.1v-0.2c0-0.1,0.1-0.1,0.1-0.1h0.7
			c0.1,0,0.1,0.1,0.1,0.1V499.9z M1321.4,501c0,0.1-0.1,0.1-0.1,0.1h-0.7c-0.1,0-0.1-0.1-0.1-0.1v-0.2c0-0.1,0.1-0.1,0.1-0.1h0.7
			c0.1,0,0.1,0.1,0.1,0.1V501z M1321.4,499.9c0,0.1-0.1,0.1-0.1,0.1h-0.7c-0.1,0-0.1-0.1-0.1-0.1v-0.2c0-0.1,0.1-0.1,0.1-0.1h0.7
			c0.1,0,0.1,0.1,0.1,0.1V499.9z M1323,501c0,0.1-0.1,0.1-0.1,0.1h-0.7c-0.1,0-0.1-0.1-0.1-0.1v-0.2c0-0.1,0.1-0.1,0.1-0.1h0.7
			c0.1,0,0.1,0.1,0.1,0.1V501z M1323,499.9c0,0.1-0.1,0.1-0.1,0.1h-0.7c-0.1,0-0.1-0.1-0.1-0.1v-0.2c0-0.1,0.1-0.1,0.1-0.1h0.7
			c0.1,0,0.1,0.1,0.1,0.1V499.9z M1324.6,501c0,0.1-0.1,0.1-0.1,0.1h-0.7c-0.1,0-0.1-0.1-0.1-0.1v-0.2c0-0.1,0.1-0.1,0.1-0.1h0.7
			c0.1,0,0.1,0.1,0.1,0.1V501z M1324.6,499.9c0,0.1-0.1,0.1-0.1,0.1h-0.7c-0.1,0-0.1-0.1-0.1-0.1v-0.2c0-0.1,0.1-0.1,0.1-0.1h0.7
			c0.1,0,0.1,0.1,0.1,0.1V499.9z"/>
		<path fill="#4D5D6C" d="M1323,494.8h-0.8c-0.1,0-0.1,0-0.1,0.1l-0.4,1.5h-1.2c-0.2,0-0.3,0.1-0.4,0.2l-0.6,1.6c0,0,0,0,0,0h5.8v-1.5
			c0-0.2-0.2-0.4-0.4-0.4h-0.8l0.2-0.7c0-0.1,0-0.1-0.1-0.1h-0.8c-0.1,0-0.1,0-0.1,0.1l-0.3,0.8h-0.4l0.3-1.4
			C1323.1,494.9,1323.1,494.8,1323,494.8z M1321.4,497.6c0,0.1-0.1,0.1-0.1,0.1h-0.7c-0.1,0-0.1-0.1-0.1-0.1v-0.2
			c0-0.1,0.1-0.1,0.1-0.1h0.7c0.1,0,0.1,0.1,0.1,0.1V497.6z M1323.6,497.3c0-0.1,0.1-0.1,0.1-0.1h0.7c0.1,0,0.1,0.1,0.1,0.1v0.2
			c0,0.1-0.1,0.1-0.1,0.1h-0.7c-0.1,0-0.1-0.1-0.1-0.1V497.3z M1322.8,497.2c0.1,0,0.1,0.1,0.1,0.1v0.2c0,0.1-0.1,0.1-0.1,0.1h-0.7
			c-0.1,0-0.1-0.1-0.1-0.1v-0.2c0-0.1,0.1-0.1,0.1-0.1H1322.8z"/>
	</g>
</g>
<g id="Icebergs">
	<path fill="#6DD2DA" d="M1646,970.4l0.4,0.7h2.5c0.1,0,0.1,0,0.1,0.1c0,0.1,0,0.1-0.1,0.1h-3.7c-0.1,0-0.1,0-0.1-0.1
		c0-0.1,0-0.1,0.1-0.1h0.4l-0.2-0.3l-1.1-0.7h1.1L1646,970.4z M1648.5,975.3l1.5-1.5l0.8,0.2l1.2-1.3l0.9,0.6l0.2-0.8h0.6l-0.4,1.8
		l-1.3-0.8l-1.1,1.2l-0.8-0.2l-1.7,1.8l-1.6-2h0.8L1648.5,975.3z M1643.6,967.4l1.9-4.4l1.5,0.8v-1.2l2.9-2.3l2.2,3.1l0.3-0.2
		l0.7,1.7l1.3,0l0.7,2.2l0.1,0.3h1.8v0.6H1641v-0.6H1643.6z M1654.6,967.4l-0.1-0.2l-0.5-1.4l-0.8,0.7l0.5-1l-1.1,0l-0.6-1.3
		l-0.8,0.1l-0.5,1.6v-1.9l0.7-0.3l-1.7-2.5l-0.1,0.1l-1.5,2.8v2.4l-0.9-1.9l-1.1-0.6l0.2,0.6l-0.5,0.6v-0.6l-0.3-0.6l-1.3,3.3
		L1654.6,967.4L1654.6,967.4z M1652.1,969.4c0-0.1,0-0.1,0.1-0.1h1.8l0.6-0.7h0.8l-0.5,0.7h1.7c0.1,0,0.1,0,0.1,0.1
		c0,0.1,0,0.1-0.1,0.1L1652.1,969.4C1652.1,969.5,1652.1,969.5,1652.1,969.4z M1651.3,971.9C1651.3,971.8,1651.3,971.8,1651.3,971.9
		l2-0.1l0.4-1.7h0.6l-0.4,1.7h1.2c0.1,0,0.1,0,0.1,0.1c0,0.1,0,0.1-0.1,0.1L1651.3,971.9C1651.3,972,1651.3,971.9,1651.3,971.9z
		 M1644.6,973.4h1.5l-0.8-0.9l0.2-0.5h0.7l-0.1,0.4l0.8,1.1h1.4c0.1,0,0.1,0,0.1,0.1c0,0.1,0,0.1-0.1,0.1h-3.7
		C1644.5,973.6,1644.5,973.6,1644.6,973.4C1644.5,973.4,1644.5,973.4,1644.6,973.4z M1642.2,969.3h1.8l0.1-0.7h0.6l-0.1,0.7h2.6
		c0.1,0,0.1,0,0.1,0.1c0,0.1,0,0.1-0.1,0.1h-4.9c-0.1,0-0.1,0-0.1-0.1C1642.1,969.4,1642.1,969.3,1642.2,969.3z"/>
	<path fill="#6DD2DA" d="M1627.9,1010.4l0.4,0.7h2.5c0.1,0,0.1,0,0.1,0.1c0,0.1,0,0.1-0.1,0.1h-3.7c-0.1,0-0.1,0-0.1-0.1
		c0-0.1,0-0.1,0.1-0.1h0.4l-0.2-0.3l-1.1-0.7h1.1L1627.9,1010.4z M1630.3,1015.3l1.5-1.5l0.8,0.2l1.2-1.3l0.9,0.6l0.2-0.8h0.6
		l-0.4,1.8l-1.3-0.8l-1.1,1.2l-0.8-0.2l-1.7,1.8l-1.6-2h0.8L1630.3,1015.3z M1625.5,1007.3l1.9-4.4l1.5,0.8v-1.2l2.9-2.3l2.2,3.1
		l0.3-0.2l0.7,1.7l1.3,0l0.7,2.2l0.1,0.3h1.8v0.6h-15.9v-0.6H1625.5z M1636.5,1007.3l-0.1-0.2l-0.5-1.4l-0.8,0.7l0.5-1l-1.1,0
		l-0.6-1.3l-0.8,0.1l-0.5,1.6v-1.9l0.7-0.3l-1.7-2.5l-0.1,0.1l-1.5,2.8v2.4l-0.9-1.9l-1.1-0.6l0.2,0.6l-0.5,0.6v-0.6l-0.3-0.6
		l-1.3,3.3L1636.5,1007.3L1636.5,1007.3z M1634,1009.4c0-0.1,0-0.1,0.1-0.1h1.8l0.6-0.7h0.8l-0.5,0.7h1.7c0.1,0,0.1,0,0.1,0.1
		c0,0.1,0,0.1-0.1,0.1L1634,1009.4C1634,1009.5,1634,1009.4,1634,1009.4z M1633.2,1011.8C1633.2,1011.7,1633.2,1011.7,1633.2,1011.8
		l2-0.1l0.4-1.7h0.6l-0.4,1.7h1.2c0.1,0,0.1,0,0.1,0.1c0,0.1,0,0.1-0.1,0.1L1633.2,1011.8
		C1633.2,1011.9,1633.2,1011.9,1633.2,1011.8z M1626.5,1013.3h1.5l-0.8-0.9l0.2-0.5h0.7l-0.1,0.4l0.8,1.1h1.4c0.1,0,0.1,0,0.1,0.1
		c0,0.1,0,0.1-0.1,0.1h-3.7C1626.4,1013.6,1626.4,1013.5,1626.5,1013.3C1626.4,1013.4,1626.4,1013.3,1626.5,1013.3z M1624.1,1009.2
		h1.8l0.1-0.7h0.6l-0.1,0.7h2.6c0.1,0,0.1,0,0.1,0.1c0,0.1,0,0.1-0.1,0.1h-4.9c-0.1,0-0.1,0-0.1-0.1
		C1624,1009.3,1624,1009.2,1624.1,1009.2z"/>
	<path fill="#6DD2DA" d="M1639.1,990.4l0.4,0.7h2.5c0.1,0,0.1,0,0.1,0.1c0,0.1,0,0.1-0.1,0.1h-3.7c-0.1,0-0.1,0-0.1-0.1
		c0-0.1,0-0.1,0.1-0.1h0.4l-0.2-0.3l-1.1-0.7h1.1L1639.1,990.4z M1641.5,995.3l1.5-1.5l0.8,0.2l1.2-1.3l0.9,0.6l0.2-0.8h0.6
		l-0.4,1.8l-1.3-0.8l-1.1,1.2l-0.8-0.2l-1.7,1.8l-1.6-2h0.8L1641.5,995.3z M1636.7,987.3l1.9-4.4l1.5,0.8v-1.2l2.9-2.3l2.2,3.1
		l0.3-0.2l0.7,1.7l1.3,0l0.7,2.2l0.1,0.3h1.8v0.6h-15.9v-0.6H1636.7z M1647.7,987.3l-0.1-0.2l-0.5-1.4l-0.8,0.7l0.5-1l-1.1,0
		l-0.6-1.3l-0.8,0.1l-0.5,1.6v-1.9l0.7-0.3l-1.7-2.5l-0.1,0.1l-1.5,2.8v2.4l-0.9-1.9l-1.1-0.6l0.2,0.6l-0.5,0.6v-0.6l-0.3-0.6
		l-1.3,3.3L1647.7,987.3L1647.7,987.3z M1645.1,989.4c0-0.1,0-0.1,0.1-0.1h1.8l0.6-0.7h0.8l-0.5,0.7h1.7c0.1,0,0.1,0,0.1,0.1
		c0,0.1,0,0.1-0.1,0.1L1645.1,989.4C1645.2,989.5,1645.1,989.5,1645.1,989.4z M1644.3,991.8C1644.3,991.8,1644.4,991.7,1644.3,991.8
		l2-0.1l0.4-1.7h0.6l-0.4,1.7h1.2c0.1,0,0.1,0,0.1,0.1c0,0.1,0,0.1-0.1,0.1L1644.3,991.8C1644.4,991.9,1644.3,991.9,1644.3,991.8z
		 M1637.7,993.4h1.5l-0.8-0.9l0.2-0.5h0.7l-0.1,0.4l0.8,1.1h1.4c0.1,0,0.1,0,0.1,0.1c0,0.1,0,0.1-0.1,0.1h-3.7
		C1637.6,993.6,1637.6,993.5,1637.7,993.4C1637.6,993.4,1637.6,993.4,1637.7,993.4z M1635.2,989.3h1.8l0.1-0.7h0.6l-0.1,0.7h2.6
		c0.1,0,0.1,0,0.1,0.1c0,0.1,0,0.1-0.1,0.1h-4.9c-0.1,0-0.1,0-0.1-0.1C1635.1,989.3,1635.2,989.3,1635.2,989.3z"/>
	<path fill="#6DD2DA" d="M1582.1,1140.2l0.4,0.7h2.5c0.1,0,0.1,0,0.1,0.1c0,0.1,0,0.1-0.1,0.1h-3.7c-0.1,0-0.1,0-0.1-0.1
		c0-0.1,0-0.1,0.1-0.1h0.4l-0.2-0.3l-1.1-0.7h1.1L1582.1,1140.2z M1584.5,1145.1l1.5-1.5l0.8,0.2l1.2-1.3l0.9,0.6l0.2-0.8h0.6
		l-0.4,1.8l-1.3-0.8l-1.1,1.2l-0.8-0.2l-1.7,1.8l-1.6-2h0.8L1584.5,1145.1z M1579.7,1137.2l1.9-4.4l1.5,0.8v-1.2l2.9-2.3l2.2,3.1
		l0.3-0.2l0.7,1.7l1.3,0l0.7,2.2l0.1,0.3h1.8v0.6h-15.9v-0.6H1579.7z M1590.7,1137.2l-0.1-0.2l-0.5-1.4l-0.8,0.7l0.5-1l-1.1,0
		l-0.6-1.3l-0.8,0.1l-0.5,1.6v-1.9l0.7-0.3l-1.7-2.5l-0.1,0.1l-1.5,2.8v2.4l-0.9-1.9l-1.1-0.6l0.2,0.6l-0.5,0.6v-0.6l-0.3-0.6
		l-1.3,3.3L1590.7,1137.2L1590.7,1137.2z M1588.1,1139.2c0-0.1,0-0.1,0.1-0.1h1.8l0.6-0.7h0.8l-0.5,0.7h1.7c0.1,0,0.1,0,0.1,0.1
		c0,0.1,0,0.1-0.1,0.1L1588.1,1139.2C1588.2,1139.3,1588.1,1139.3,1588.1,1139.2z M1587.3,1141.7
		C1587.3,1141.6,1587.4,1141.6,1587.3,1141.7l2-0.1l0.4-1.7h0.6l-0.4,1.7h1.2c0.1,0,0.1,0,0.1,0.1c0,0.1,0,0.1-0.1,0.1
		L1587.3,1141.7C1587.4,1141.8,1587.3,1141.7,1587.3,1141.7z M1580.7,1143.2h1.5l-0.8-0.9l0.2-0.5h0.7l-0.1,0.4l0.8,1.1h1.4
		c0.1,0,0.1,0,0.1,0.1c0,0.1,0,0.1-0.1,0.1h-3.7C1580.6,1143.4,1580.6,1143.4,1580.7,1143.2
		C1580.6,1143.2,1580.6,1143.2,1580.7,1143.2z M1578.2,1139.1h1.8l0.1-0.7h0.6l-0.1,0.7h2.6c0.1,0,0.1,0,0.1,0.1
		c0,0.1,0,0.1-0.1,0.1h-4.9c-0.1,0-0.1,0-0.1-0.1C1578.1,1139.1,1578.2,1139.1,1578.2,1139.1z"/>
	<path fill="#6DD2DA" d="M1299.5,473.2l0.4,0.7h2.5c0.1,0,0.1,0,0.1,0.1c0,0.1,0,0.1-0.1,0.1h-3.7c-0.1,0-0.1,0-0.1-0.1
		c0-0.1,0-0.1,0.1-0.1h0.4l-0.2-0.3l-1.1-0.7h1.1L1299.5,473.2z M1302,478.1l1.5-1.5l0.8,0.2l1.2-1.3l0.9,0.6l0.2-0.8h0.6l-0.4,1.8
		l-1.3-0.8l-1.1,1.2l-0.8-0.2l-1.7,1.8l-1.6-2h0.8L1302,478.1z M1297.1,470.1l1.9-4.4l1.5,0.8v-1.2l2.9-2.3l2.2,3.1l0.3-0.2l0.7,1.7
		l1.3,0l0.7,2.2l0.1,0.3h1.8v0.6h-15.9v-0.6H1297.1z M1308.1,470.1l-0.1-0.2l-0.5-1.4l-0.8,0.7l0.5-1l-1.1,0l-0.6-1.3l-0.8,0.1
		l-0.5,1.6v-1.9l0.7-0.3l-1.7-2.5l-0.1,0.1l-1.5,2.8v2.4l-0.9-1.9l-1.1-0.6l0.2,0.6l-0.5,0.6v-0.6l-0.3-0.6l-1.3,3.3L1308.1,470.1
		L1308.1,470.1z M1305.6,472.2c0-0.1,0-0.1,0.1-0.1h1.8l0.6-0.7h0.8l-0.5,0.7h1.7c0.1,0,0.1,0,0.1,0.1c0,0.1,0,0.1-0.1,0.1
		L1305.6,472.2C1305.6,472.3,1305.6,472.2,1305.6,472.2z M1304.8,474.6C1304.8,474.5,1304.8,474.5,1304.8,474.6l2-0.1l0.4-1.7h0.6
		l-0.4,1.7h1.2c0.1,0,0.1,0,0.1,0.1c0,0.1,0,0.1-0.1,0.1L1304.8,474.6C1304.8,474.7,1304.8,474.7,1304.8,474.6z M1298.1,476.1h1.5
		l-0.8-0.9l0.2-0.5h0.7l-0.1,0.4l0.8,1.1h1.4c0.1,0,0.1,0,0.1,0.1c0,0.1,0,0.1-0.1,0.1h-3.7C1298.1,476.4,1298,476.3,1298.1,476.1
		C1298,476.2,1298.1,476.1,1298.1,476.1z M1295.7,472h1.8l0.1-0.7h0.6l-0.1,0.7h2.6c0.1,0,0.1,0,0.1,0.1c0,0.1,0,0.1-0.1,0.1h-4.9
		c-0.1,0-0.1,0-0.1-0.1C1295.6,472.1,1295.6,472,1295.7,472z"/>
	<path fill="#6DD2DA" d="M1543,961l0.4,0.7h2.5c0.1,0,0.1,0,0.1,0.1c0,0.1,0,0.1-0.1,0.1h-3.7c-0.1,0-0.1,0-0.1-0.1
		c0-0.1,0-0.1,0.1-0.1h0.4l-0.2-0.3l-1.1-0.7h1.1L1543,961z M1545.4,965.9l1.5-1.5l0.8,0.2l1.2-1.3l0.9,0.6l0.2-0.8h0.6l-0.4,1.8
		l-1.3-0.8l-1.1,1.2l-0.8-0.2l-1.7,1.8l-1.6-2h0.8L1545.4,965.9z M1540.6,957.9l1.9-4.4l1.5,0.8v-1.2l2.9-2.3l2.2,3.1l0.3-0.2
		l0.7,1.7l1.3,0l0.7,2.2l0.1,0.3h1.8v0.6H1538v-0.6H1540.6z M1551.6,957.9l-0.1-0.2l-0.5-1.4l-0.8,0.7l0.5-1l-1.1,0l-0.6-1.3
		l-0.8,0.1l-0.5,1.6v-1.9l0.7-0.3l-1.7-2.5l-0.1,0.1l-1.5,2.8v2.4l-0.9-1.9l-1.1-0.6l0.2,0.6l-0.5,0.6v-0.6l-0.3-0.6l-1.3,3.3
		L1551.6,957.9L1551.6,957.9z M1549.1,960c0-0.1,0-0.1,0.1-0.1h1.8l0.6-0.7h0.8l-0.5,0.7h1.7c0.1,0,0.1,0,0.1,0.1
		c0,0.1,0,0.1-0.1,0.1L1549.1,960C1549.1,960.1,1549.1,960.1,1549.1,960z M1548.2,962.4C1548.2,962.4,1548.3,962.3,1548.2,962.4
		l2-0.1l0.4-1.7h0.6l-0.4,1.7h1.2c0.1,0,0.1,0,0.1,0.1c0,0.1,0,0.1-0.1,0.1L1548.2,962.4C1548.3,962.5,1548.2,962.5,1548.2,962.4z
		 M1541.6,964h1.5l-0.8-0.9l0.2-0.5h0.7l-0.1,0.4l0.8,1.1h1.4c0.1,0,0.1,0,0.1,0.1c0,0.1,0,0.1-0.1,0.1h-3.7
		C1541.5,964.2,1541.5,964.1,1541.6,964C1541.5,964,1541.5,964,1541.6,964z M1539.1,959.9h1.8l0.1-0.7h0.6l-0.1,0.7h2.6
		c0.1,0,0.1,0,0.1,0.1c0,0.1,0,0.1-0.1,0.1h-4.9c-0.1,0-0.1,0-0.1-0.1C1539.1,959.9,1539.1,959.9,1539.1,959.9z"/>
	<path fill="#6DD2DA" d="M1268,466.4l0.4,0.7h2.5c0.1,0,0.1,0,0.1,0.1c0,0.1,0,0.1-0.1,0.1h-3.7c-0.1,0-0.1,0-0.1-0.1
		c0-0.1,0-0.1,0.1-0.1h0.4l-0.2-0.3l-1.1-0.7h1.1L1268,466.4z M1270.4,471.3l1.5-1.5l0.8,0.2l1.2-1.3l0.9,0.6l0.2-0.8h0.6l-0.4,1.8
		l-1.3-0.8l-1.1,1.2l-0.8-0.2l-1.7,1.8l-1.6-2h0.8L1270.4,471.3z M1265.6,463.4l1.9-4.4l1.5,0.8v-1.2l2.9-2.3l2.2,3.1l0.3-0.2
		l0.7,1.7l1.3,0l0.7,2.2l0.1,0.3h1.8v0.6H1263v-0.6H1265.6z M1276.6,463.4l-0.1-0.2l-0.5-1.4l-0.8,0.7l0.5-1l-1.1,0l-0.6-1.3
		l-0.8,0.1l-0.5,1.6v-1.9l0.7-0.3l-1.7-2.5l-0.1,0.1l-1.5,2.8v2.4l-0.9-1.9l-1.1-0.6l0.2,0.6l-0.5,0.6v-0.6l-0.3-0.6l-1.3,3.3
		L1276.6,463.4L1276.6,463.4z M1274,465.4c0-0.1,0-0.1,0.1-0.1h1.8l0.6-0.7h0.8l-0.5,0.7h1.7c0.1,0,0.1,0,0.1,0.1
		c0,0.1,0,0.1-0.1,0.1L1274,465.4C1274.1,465.5,1274,465.5,1274,465.4z M1273.2,467.9C1273.2,467.8,1273.2,467.8,1273.2,467.9l2-0.1
		l0.4-1.7h0.6l-0.4,1.7h1.2c0.1,0,0.1,0,0.1,0.1s0,0.1-0.1,0.1L1273.2,467.9C1273.2,467.9,1273.2,467.9,1273.2,467.9z M1266.6,469.4
		h1.5l-0.8-0.9l0.2-0.5h0.7l-0.1,0.4l0.8,1.1h1.4c0.1,0,0.1,0,0.1,0.1c0,0.1,0,0.1-0.1,0.1h-3.7
		C1266.5,469.6,1266.5,469.6,1266.6,469.4C1266.5,469.4,1266.5,469.4,1266.6,469.4z M1264.1,465.3h1.8l0.1-0.7h0.6l-0.1,0.7h2.6
		c0.1,0,0.1,0,0.1,0.1c0,0.1,0,0.1-0.1,0.1h-4.9c-0.1,0-0.1,0-0.1-0.1C1264,465.3,1264,465.3,1264.1,465.3z"/>
</g>
<g id="Puffins">
<path id="puffins-witbay" fill="#939598" d="M1603.4,1025c0.4,0,0.8-0.1,1.3-0.2l1-0.2l1,0.1c0.2,0,0.3-0.1,0.3-0.1c0,0,0,0,0,0l-0.1,0
	l-0.7-0.2c0.1-0.1,0.2-0.1,0.2-0.1c0.1,0,0.1-0.1,0.1-0.1s-0.1,0-0.2-0.1l-0.8-0.3c-0.3-0.6-0.8-1.3-1.4-1.8
	c-0.7-0.7-1.6-1.3-2.5-1.7c-0.2-0.1-0.3-0.1-0.3-0.2s-0.1-0.2-0.1-0.4c0.1-0.4,0-0.8-0.2-1c-0.1-0.2-0.3-0.3-0.6-0.5
	c-0.3-0.1-0.5-0.2-0.8-0.1c-0.2,0-0.4,0.1-0.5,0.2c-0.1,0.1-0.3,0.2-0.3,0.3l-0.1,0.1c-0.1,0-0.2,0.1-0.3,0.2
	c-0.3,0.3-0.5,0.6-0.5,0.8c0,0.2,0,0.3,0,0.3c0.2,0.1,0.5,0.1,0.7,0.1c0.3,0,0.5-0.1,0.5-0.2h0c0,0,0,0,0.1,0c0,0,0.1,0,0.1,0
	c0,0,0,0,0,0.1c0,0,0,0.1,0,0.2c-0.2,0.7-0.3,1.3-0.3,1.6c0,0.4,0.2,0.9,0.5,1.3s0.7,0.9,1.2,1.2c0.3,0.2,0.6,0.3,0.9,0.5
	c0.3,0.1,0.5,0.2,0.7,0.2l0.2,0.1c-0.1,0.3-0.2,0.5-0.2,0.5c-0.1,0.1-0.2,0.2-0.3,0.2h-0.5l-0.2,0.1c-0.1,0-0.2,0-0.2,0
	c0,0,0,0-0.1,0c0,0,0,0,0,0.1v0c0,0,0.1,0,0.1-0.1l0.2,0c-0.1,0-0.1,0.1-0.2,0.1c0,0-0.1,0-0.2,0l-0.1,0c-0.1,0-0.2,0-0.2,0
	l-0.1,0.1c0.1-0.1,0.1-0.1,0.1-0.1h0.1c0,0,0.1,0,0.1,0h0.2c-0.1,0-0.1,0-0.1,0.1l0,0.1c0-0.1,0.1-0.1,0.1-0.1l0.1,0
	c0,0,0.1,0,0.1,0c0.2-0.1,0.4-0.1,0.5-0.1c0.3,0,0.5,0,0.6-0.1c0.1-0.1,0.1-0.2,0.2-0.4c0-0.1,0-0.2,0.1-0.2c0-0.1,0.1-0.1,0.1-0.2
	l0-0.1h0.1h0.1l0,0.6c0,0.2-0.1,0.3-0.2,0.4c-0.2,0.1-0.4,0.2-0.6,0.2l-0.2,0c-0.1,0-0.2,0-0.3,0c0,0-0.1,0-0.1,0.1s0,0,0,0.1v0
	c0.1,0,0.1,0,0.2-0.1h0.1c0,0-0.1,0.1-0.2,0.1c0,0-0.1,0-0.2,0l-0.1,0.1c-0.1,0-0.2,0-0.2,0l-0.1,0.1c0.1,0,0.1,0,0.1-0.1h0.1
	c0,0,0,0,0,0.1l0.1,0c-0.1,0-0.1,0-0.1,0.1l-0.1,0.2l0.1-0.1l0.1,0c0,0,0,0.1,0.1,0.1c0.2,0,0.4,0,0.5-0.1c0.3-0.1,0.6-0.3,0.8-0.4
	c0.1-0.1,0.2-0.2,0.1-0.4c0-0.3,0-0.6,0-0.7L1603.4,1025z"/>
<path id="puffins-stmar" fill="#939598" d="M1359.3,1123.1c0.4,0,0.8-0.1,1.3-0.2l1-0.2l1,0.1c0.2,0,0.3-0.1,0.3-0.1c0,0,0,0,0,0
	l-0.1,0l-0.7-0.2c0.1-0.1,0.2-0.1,0.2-0.1c0.1,0,0.1-0.1,0.1-0.1c0,0-0.1,0-0.2-0.1l-0.8-0.3c-0.3-0.6-0.8-1.3-1.4-1.8
	c-0.7-0.7-1.6-1.3-2.5-1.7c-0.2-0.1-0.3-0.1-0.3-0.2c0-0.1-0.1-0.2-0.1-0.4c0.1-0.4,0-0.8-0.2-1c-0.1-0.2-0.3-0.3-0.6-0.5
	c-0.3-0.1-0.5-0.2-0.8-0.1c-0.2,0-0.4,0.1-0.5,0.2c-0.1,0.1-0.3,0.2-0.3,0.3l-0.1,0.1c-0.1,0-0.2,0.1-0.3,0.2
	c-0.3,0.3-0.5,0.6-0.5,0.8c0,0.2,0,0.3,0,0.3c0.2,0.1,0.5,0.1,0.7,0.1c0.3,0,0.5-0.1,0.5-0.2h0c0,0,0,0,0.1,0c0,0,0.1,0,0.1,0
	c0,0,0,0,0,0.1s0,0.1,0,0.2c-0.2,0.7-0.3,1.3-0.3,1.6c0,0.4,0.2,0.9,0.5,1.3c0.3,0.5,0.7,0.9,1.2,1.2c0.3,0.2,0.6,0.3,0.9,0.5
	c0.3,0.1,0.5,0.2,0.7,0.2l0.2,0.1c-0.1,0.3-0.2,0.5-0.2,0.5c-0.1,0.1-0.2,0.2-0.3,0.2h-0.5l-0.2,0.1c-0.1,0-0.2,0-0.2,0
	c0,0,0,0-0.1,0s0,0,0,0.1v0c0,0,0.1,0,0.1-0.1l0.2,0c-0.1,0-0.1,0.1-0.2,0.1c0,0-0.1,0-0.2,0l-0.1,0c-0.1,0-0.2,0-0.2,0l-0.1,0.1
	c0.1-0.1,0.1-0.1,0.1-0.1h0.1c0,0,0.1,0,0.1,0h0.2c-0.1,0-0.1,0-0.1,0.1l0,0.1c0-0.1,0.1-0.1,0.1-0.1l0.1,0c0,0,0.1,0,0.1,0
	c0.2-0.1,0.4-0.1,0.5-0.1c0.3,0,0.5,0,0.6-0.1c0.1-0.1,0.1-0.2,0.2-0.4c0-0.1,0-0.2,0.1-0.2c0-0.1,0.1-0.1,0.1-0.2l0-0.1h0.1h0.1
	l0,0.6c0,0.2-0.1,0.3-0.2,0.4c-0.2,0.1-0.4,0.2-0.6,0.2l-0.2,0c-0.1,0-0.2,0-0.3,0c0,0-0.1,0-0.1,0.1s0,0,0,0.1v0
	c0.1,0,0.1,0,0.2-0.1h0.1c0,0-0.1,0.1-0.2,0.1c0,0-0.1,0-0.2,0l-0.1,0.1c-0.1,0-0.2,0-0.2,0l-0.1,0.1c0.1,0,0.1,0,0.1-0.1h0.1
	c0,0,0,0,0,0.1l0.1,0c-0.1,0-0.1,0-0.1,0.1l-0.1,0.2l0.1-0.1l0.1,0c0,0,0,0.1,0.1,0.1c0.2,0,0.4,0,0.5-0.1c0.3-0.1,0.6-0.3,0.8-0.4
	c0.1-0.1,0.2-0.2,0.1-0.4c0-0.3,0-0.6,0-0.7L1359.3,1123.1z"/>
</g>
<!-- PoI -->
<g>
	<text transform="matrix(1 0 0 1 1361.4258 1120.5414)" fill="#939598" font-family="'Helvetica Neue',Helvetica,Arial,sans-serif" font-weight='400' font-size="5">Cape St Mary's</text>
	<text transform="matrix(1.0129 0 0 1 1605.3828 1022.4222)" fill="#939598" font-family="'Helvetica Neue',Helvetica,Arial,sans-serif" font-weight='400' font-size="5">Witless Bay</text>
	<text transform="matrix(1.0129 0 0 1 688.6241 546.0522)" fill="#939598" font-family="'Helvetica Neue',Helvetica,Arial,sans-serif" font-weight='400' font-size="5">Tablelands</text>
	<circle fill="#A8AAAD" cx="684.5" cy="546" r="2.52"/>
</g>
</svg>
