<?xml version="1.0" encoding="utf-8"?>
<!DOCTYPE svg PUBLIC "-//W3C//DTD SVG 1.1//EN" "http://www.w3.org/Graphics/SVG/1.1/DTD/svg11.dtd">
<svg version="1.1" id="Layer_1" xmlns="http://www.w3.org/2000/svg" xmlns:xlink="http://www.w3.org/1999/xlink" x="0px" y="0px"
	 width="2040.5px" height="1178.5px" viewBox="0 0 2040.5 1178.5" enable-background="new 0 0 2040.5 1178.5" xml:space="preserve">
<!-- background -->
<g>
	<path fill="#e3dac9" d="M422.985-53.964"/>
	<polygon fill="#e3dac9" points="870.200 11.600, 797.400 28.300, 797.400 67.800, 797.500 83.900, 797.500 149.300, 797.600 149.300, 800.500 148.700, 802.900 147.500, 804.800 147.300, 806.200 149.200, 809.500 147.900, 816.300 148.300, 819.800 147.800, 822.600 145.900, 824.100 143.100, 824.000 140.000, 822.100 137.100, 826.600 131.100, 831.400 136.300, 837.400 136.600, 843.100 133.400, 847.000 128.100, 845.600 125.400, 847.900 124.200, 851.200 123.000, 852.800 120.400, 852.800 119.100, 854.000 117.600, 855.800 116.100, 858.000 114.900, 862.800 113.800, 864.100 112.200, 865.300 107.000, 866.100 100.900, 867.000 98.800, 869.300 98.000, 880.100 98.000, 884.200 96.700, 901.100 86.100, 903.000 84.200, 903.800 82.200, 904.900 78.000, 907.400 77.700, 911.700 80.100, 914.300 79.100, 917.700 76.800, 920.600 73.700, 921.800 70.100, 923.900 69.300, 936.700 69.300, 941.200 68.200, 944.800 66.000, 947.900 63.000, 950.800 59.400, 951.900 58.400, 955.900 55.700, 959.400 52.000, 960.500 51.200, 966.300 49.700, 972.100 44.500, 973.400 43.700, 976.800 43.100, 990.600 37.800, 993.500 35.600, 995.000 33.000, 995.900 28.400, 994.500 25.600, 987.600 20.100, 984.700 17.100, 989.600 17.400, 997.600 20.400, 1001.600 20.200, 1010.400 17.000, 1014.500 14.200, 1018.600 9.500, 1013.600 5.500, 1011.900 3.500, 1016.700 1.600, 1021.700 2.200, 1026.500 1.900, 1031.000 -2.700, 1030.900 -2.900, 870.200 11.600, 870.200 11.600 	"/>
	<polygon fill="#e3dac9" points="1198.500 570.800, 1200.200 570.800, 1202.400 568.700, 1200.100 566.100, 1196.400 564.900, 1194.500 567.100, 1193.000 569.300, 1186.400 572.300, 1184.100 575.200, 1184.800 579.600, 1188.000 582.400, 1191.600 583.600, 1193.300 583.200, 1194.100 581.200, 1195.700 578.900, 1196.800 576.600, 1196.300 574.400, 1195.500 572.500, 1196.600 571.200, 1198.500 570.800 	"/>
	<polygon fill="#e3dac9" points="1162.100 548.100, 1162.700 550.700, 1162.900 551.800, 1163.900 552.400, 1166.200 552.300, 1166.900 552.500, 1168.900 555.800, 1170.100 557.200, 1173.300 558.300, 1174.900 559.300, 1175.600 560.300, 1175.000 560.800, 1171.800 561.000, 1169.300 561.600, 1166.800 562.900, 1164.000 565.000, 1168.100 566.600, 1172.100 566.000, 1179.900 563.700, 1184.100 565.000, 1186.000 565.000, 1186.700 563.000, 1186.800 560.000, 1187.200 558.400, 1188.200 557.400, 1190.100 556.200, 1193.400 554.600, 1208.500 550.500, 1214.200 548.200, 1218.600 545.400, 1218.300 543.000, 1220.000 540.700, 1221.100 538.800, 1221.400 536.700, 1220.200 532.500, 1219.800 531.400, 1218.900 531.000, 1219.700 529.000, 1216.600 530.600, 1211.800 535.200, 1207.400 538.600, 1204.700 537.000, 1205.500 536.300, 1207.100 534.100, 1204.200 534.700, 1201.600 536.700, 1199.700 539.700, 1199.000 543.700, 1197.700 546.700, 1194.300 549.100, 1187.700 551.800, 1184.800 552.000, 1180.500 551.600, 1177.400 549.900, 1178.200 546.700, 1179.800 543.000, 1177.300 541.900, 1173.400 541.800, 1170.700 541.300, 1168.000 544.000, 1162.600 543.100, 1160.500 546.000, 1161.200 545.900, 1162.100 548.100 	"/>
	<polygon fill="#e3dac9" points="1259.300 538.900, 1260.300 544.800, 1262.900 547.400, 1264.400 547.700, 1265.100 548.300, 1265.900 548.200, 1271.000 543.500, 1271.900 543.100, 1273.900 542.600, 1280.300 540.100, 1287.000 539.400, 1289.400 538.600, 1291.600 537.100, 1292.900 535.700, 1294.300 534.600, 1299.300 533.500, 1301.000 531.900, 1302.200 530.400, 1303.600 529.700, 1308.500 531.300, 1310.700 531.100, 1312.100 528.300, 1308.600 528.200, 1305.800 527.500, 1303.600 525.700, 1301.800 522.300, 1301.700 521.300, 1302.200 520.400, 1302.800 519.500, 1303.000 518.600, 1302.600 517.300, 1301.600 516.900, 1300.400 516.800, 1299.500 516.400, 1298.200 515.100, 1295.900 513.100, 1293.200 509.600, 1290.100 508.700, 1283.500 508.900, 1285.100 512.400, 1285.800 513.500, 1283.700 514.200, 1281.700 513.600, 1279.800 513.300, 1277.900 514.800, 1277.600 516.800, 1278.000 519.500, 1278.100 522.400, 1276.800 525.300, 1274.400 520.900, 1275.700 519.500, 1272.400 517.100, 1268.000 515.000, 1263.800 514.700, 1260.900 517.900, 1261.700 517.800, 1263.600 518.000, 1264.400 517.900, 1263.900 518.700, 1263.500 519.500, 1263.000 520.200, 1262.100 520.900, 1262.800 522.600, 1263.800 524.000, 1265.100 524.900, 1266.600 525.400, 1264.200 526.400, 1259.800 525.700, 1257.700 526.700, 1258.600 532.000, 1259.300 538.900 	"/>
	<polygon fill="#e3dac9" points="1085.500 47.200, 1088.900 44.300, 1096.500 30.700, 1098.600 26.200, 1099.200 20.700, 1096.400 21.800, 1092.200 25.600, 1088.800 27.700, 1086.800 28.100, 1081.900 30.000, 1080.500 30.900, 1074.700 39.900, 1073.200 45.900, 1076.100 47.900, 1085.500 47.200 	"/>
	<polygon fill="#e3dac9" points="1045.400 543.300, 1048.200 543.100, 1049.200 542.600, 1049.600 541.600, 1049.300 540.500, 1048.200 540.100, 1047.400 540.300, 1046.200 541.400, 1045.300 541.400, 1044.100 541.200, 1039.900 541.400, 1040.500 538.800, 1039.500 537.300, 1037.500 536.800, 1035.200 537.100, 1035.700 536.300, 1036.200 534.200, 1032.800 534.200, 1029.000 536.000, 1027.700 537.300, 1026.600 541.500, 1024.200 544.900, 1023.800 546.100, 1025.700 548.300, 1029.300 549.000, 1033.100 548.400, 1037.900 545.300, 1045.400 543.300 	"/>
	<polygon fill="#e3dac9" points="1387.300 838.700, 1383.700 837.500, 1379.700 841.000, 1366.200 848.000, 1361.600 849.600, 1357.200 849.200, 1350.200 844.900, 1346.400 843.800, 1334.700 845.100, 1331.100 843.800, 1325.200 838.100, 1321.400 835.600, 1319.700 837.300, 1320.200 842.600, 1321.500 845.100, 1323.800 847.200, 1326.600 851.000, 1327.500 853.600, 1327.900 856.600, 1329.100 858.900, 1337.500 861.100, 1339.700 861.300, 1354.900 859.800, 1371.400 864.000, 1380.100 864.000, 1385.300 858.500, 1384.500 858.600, 1381.900 858.500, 1384.600 854.000, 1386.900 850.900, 1387.600 848.000, 1385.300 843.900, 1388.600 841.900, 1387.300 838.700 	"/>
	<polygon fill="#e3dac9" points="993.100 1033.500, 995.100 1034.700, 996.900 1035.400, 999.100 1034.400, 1000.200 1037.400, 1004.700 1032.900, 1003.000 1032.900, 1002.000 1032.100, 1001.600 1030.700, 1001.400 1028.700, 997.200 1028.400, 992.100 1029.600, 987.400 1032.300, 987.100 1034.100, 989.000 1033.200, 990.700 1032.900, 993.100 1033.500 	"/>
	<polygon fill="#e3dac9" points="1294.600 955.300, 1293.800 956.700, 1293.100 958.500, 1292.800 960.800, 1291.500 972.900, 1291.700 977.300, 1293.300 976.500, 1293.900 976.000, 1293.200 980.500, 1292.100 984.300, 1292.200 987.400, 1295.100 990.300, 1295.200 986.700, 1296.300 984.000, 1296.800 981.900, 1295.100 980.000, 1297.500 979.000, 1298.100 976.500, 1297.600 974.000, 1296.800 972.900, 1295.500 971.800, 1295.800 966.400, 1295.100 964.300, 1295.100 962.700, 1296.800 961.100, 1297.800 958.800, 1298.300 955.900, 1298.500 952.800, 1297.400 948.800, 1296.500 946.900, 1295.100 945.400, 1295.400 950.000, 1295.100 953.900, 1294.600 955.300 	"/>
	<polygon fill="#e3dac9" points="1065.800 287.600, 1066.300 287.000, 1066.900 286.400, 1069.200 284.700, 1066.800 282.900, 1062.600 282.000, 1059.500 282.700, 1056.500 285.000, 1048.700 288.500, 1045.200 289.400, 1044.900 287.400, 1044.000 285.600, 1042.700 284.800, 1041.300 285.600, 1040.100 287.900, 1040.300 289.800, 1040.700 291.200, 1040.700 292.400, 1036.800 298.500, 1037.500 300.600, 1041.700 302.700, 1043.300 301.500, 1044.800 302.000, 1046.200 303.600, 1047.400 305.900, 1057.200 301.200, 1060.000 298.400, 1059.500 296.500, 1061.400 294.500, 1066.700 291.000, 1065.600 290.400, 1065.200 289.700, 1064.900 288.900, 1064.300 288.000, 1065.100 288.000, 1065.800 287.600 	"/>
	<polygon fill="#e3dac9" points="1534.500 980.000, 1531.800 979.500, 1529.200 977.900, 1527.200 975.600, 1526.400 972.900, 1524.200 974.300, 1528.400 967.400, 1529.700 964.000, 1530.000 953.800, 1529.600 952.000, 1528.000 951.300, 1523.700 952.000, 1521.100 951.700, 1519.600 949.800, 1522.500 943.100, 1523.000 940.600, 1521.800 932.000, 1520.800 930.900, 1514.000 928.400, 1513.200 927.100, 1511.700 923.600, 1510.500 922.500, 1506.300 925.200, 1503.000 934.500, 1499.200 954.000, 1497.900 958.300, 1495.900 962.700, 1493.300 966.900, 1490.600 970.500, 1487.400 973.600, 1477.600 979.700, 1466.700 988.600, 1460.000 991.700, 1454.200 999.900, 1451.600 1002.800, 1451.900 1001.900, 1452.800 998.500, 1449.100 997.100, 1447.100 997.800, 1445.200 999.200, 1441.900 999.900, 1440.600 998.500, 1442.900 995.300, 1448.100 989.900, 1447.400 988.200, 1447.500 987.400, 1448.100 985.400, 1445.900 985.200, 1443.700 986.900, 1441.300 989.400, 1438.900 991.300, 1439.200 988.700, 1440.200 986.600, 1441.400 984.800, 1442.300 982.700, 1442.600 980.300, 1442.300 972.600, 1436.900 975.200, 1435.100 975.600, 1433.000 975.100, 1431.000 974.100, 1429.800 973.100, 1430.400 972.600, 1434.000 971.500, 1438.500 969.000, 1442.500 965.700, 1444.600 962.300, 1438.000 966.500, 1434.600 967.900, 1431.000 968.200, 1432.500 965.700, 1436.700 963.100, 1438.900 960.800, 1436.700 961.000, 1434.600 961.500, 1432.800 962.400, 1430.900 963.800, 1429.300 961.200, 1431.000 958.800, 1434.300 957.100, 1437.300 956.400, 1440.600 955.000, 1444.300 948.500, 1447.000 946.600, 1446.300 944.600, 1445.200 943.700, 1443.900 943.900, 1442.300 945.000, 1443.900 942.100, 1445.900 939.200, 1441.300 937.900, 1440.900 938.000, 1439.500 936.900, 1438.500 935.500, 1439.500 934.900, 1440.400 934.600, 1442.000 933.500, 1443.100 933.300, 1444.400 932.600, 1446.100 931.200, 1447.600 929.500, 1448.200 928.400, 1449.400 923.900, 1452.100 920.400, 1458.300 914.800, 1461.200 910.700, 1462.600 907.400, 1462.900 903.600, 1462.800 898.200, 1464.100 894.100, 1467.100 890.800, 1473.200 885.900, 1476.400 882.600, 1478.400 879.600, 1479.600 876.200, 1480.000 872.000, 1480.600 870.200, 1481.900 868.300, 1484.600 865.600, 1485.400 864.200, 1486.200 862.500, 1487.200 860.900, 1489.100 859.700, 1496.500 859.700, 1498.500 859.000, 1500.100 857.500, 1500.400 856.000, 1495.300 853.600, 1489.600 845.700, 1485.800 843.700, 1483.800 844.600, 1480.900 847.500, 1474.600 857.300, 1468.300 864.700, 1466.200 866.700, 1463.100 868.800, 1459.700 870.500, 1456.900 871.200, 1453.600 870.100, 1451.200 867.800, 1448.600 866.200, 1444.800 866.800, 1443.400 868.300, 1443.200 869.700, 1442.500 870.800, 1437.700 871.700, 1436.300 872.900, 1435.100 874.300, 1433.400 875.600, 1431.800 875.700, 1428.600 875.500, 1427.200 876.400, 1422.800 882.100, 1421.200 885.100, 1418.600 892.200, 1417.000 895.100, 1414.700 898.000, 1413.000 900.900, 1412.500 903.600, 1414.200 906.100, 1414.200 907.400, 1409.700 905.900, 1407.800 906.000, 1405.200 907.400, 1403.400 909.100, 1402.000 911.300, 1399.500 915.900, 1399.800 917.600, 1396.800 920.800, 1396.100 924.000, 1395.500 928.000, 1394.200 929.400, 1392.300 930.400, 1390.300 933.300, 1390.000 936.300, 1390.600 939.700, 1391.800 942.500, 1393.200 943.700, 1393.400 944.700, 1392.000 946.900, 1389.600 948.800, 1387.000 949.300, 1388.800 952.700, 1388.100 954.900, 1387.200 957.400, 1388.000 960.900, 1384.400 958.600, 1382.900 958.200, 1380.600 958.100, 1380.000 959.300, 1381.400 961.700, 1384.500 965.200, 1381.600 966.800, 1381.300 968.300, 1382.000 970.100, 1382.300 972.600, 1381.800 976.100, 1381.100 977.100, 1376.600 975.600, 1375.500 976.000, 1374.000 976.700, 1372.700 977.100, 1372.200 976.200, 1371.900 975.000, 1371.300 973.700, 1370.600 972.800, 1369.800 972.600, 1368.300 973.700, 1364.200 978.200, 1361.900 979.600, 1364.600 974.400, 1365.100 972.600, 1365.200 970.600, 1364.800 969.200, 1364.300 968.600, 1364.000 968.900, 1363.500 970.600, 1362.400 969.000, 1361.500 966.400, 1361.900 965.200, 1360.100 964.600, 1359.100 964.800, 1357.900 966.000, 1356.300 966.700, 1355.200 964.800, 1354.900 962.200, 1355.600 960.900, 1356.400 960.200, 1358.400 955.300, 1360.200 953.000, 1362.100 949.700, 1362.500 946.600, 1359.500 945.100, 1355.900 948.300, 1353.400 954.900, 1350.500 960.000, 1346.300 958.800, 1341.300 950.800, 1339.000 947.900, 1332.600 941.800, 1331.200 939.300, 1334.600 938.700, 1335.600 935.700, 1334.900 932.300, 1332.900 930.600, 1331.400 928.900, 1331.200 925.300, 1330.700 921.800, 1327.600 920.500, 1327.500 916.200, 1319.000 911.100, 1320.900 909.000, 1324.700 909.800, 1329.200 913.100, 1333.000 917.000, 1334.600 920.000, 1335.200 922.300, 1336.700 924.300, 1339.700 927.200, 1341.800 927.600, 1343.600 925.200, 1345.300 922.200, 1346.500 920.700, 1350.200 918.400, 1351.600 913.300, 1352.100 907.600, 1352.900 903.400, 1348.000 902.300, 1342.700 902.000, 1342.700 900.500, 1353.700 900.800, 1357.600 902.000, 1366.300 887.400, 1370.200 879.300, 1370.000 873.300, 1370.800 872.200, 1372.400 868.900, 1368.900 869.900, 1363.000 874.300, 1359.800 876.100, 1350.400 876.700, 1344.700 880.400, 1341.000 880.000, 1337.300 878.500, 1333.700 877.600, 1326.300 877.100, 1322.700 875.800, 1320.100 873.200, 1322.900 872.100, 1331.500 874.800, 1342.700 874.800, 1353.200 871.900, 1363.200 867.400, 1359.800 863.300, 1353.000 862.800, 1340.000 864.600, 1323.300 862.400, 1322.000 860.400, 1321.300 854.500, 1320.100 850.300, 1318.600 846.900, 1317.300 843.000, 1316.800 837.700, 1317.700 832.800, 1320.000 830.300, 1323.600 830.400, 1328.000 832.800, 1328.900 834.200, 1330.000 836.700, 1331.500 839.100, 1333.300 840.200, 1340.000 838.600, 1344.500 838.800, 1348.100 839.700, 1358.900 844.500, 1363.100 845.200, 1367.300 844.700, 1370.600 842.200, 1372.300 840.500, 1378.100 835.700, 1382.200 831.000, 1383.600 829.800, 1391.700 828.100, 1395.700 826.300, 1397.400 822.000, 1399.400 820.100, 1408.900 820.100, 1412.100 818.400, 1409.100 815.900, 1414.200 804.300, 1413.100 799.600, 1414.400 798.800, 1415.800 798.500, 1417.100 798.900, 1417.700 800.300, 1418.200 801.200, 1419.200 800.800, 1421.100 799.600, 1425.800 799.200, 1428.400 799.800, 1433.400 804.400, 1436.300 805.400, 1442.000 805.400, 1442.700 804.100, 1447.300 798.400, 1449.300 796.700, 1458.900 792.200, 1463.200 788.500, 1465.000 783.000, 1464.900 778.100, 1465.000 776.600, 1465.500 774.900, 1467.100 771.300, 1467.300 770.000, 1468.300 767.300, 1470.500 766.000, 1473.200 765.000, 1475.500 763.300, 1474.500 762.300, 1472.900 759.900, 1471.900 758.900, 1476.000 755.500, 1475.800 752.700, 1470.900 747.300, 1469.900 745.100, 1468.800 740.900, 1467.400 738.700, 1465.800 737.500, 1463.900 737.100, 1462.100 736.500, 1460.700 734.300, 1461.100 732.300, 1460.200 731.600, 1458.900 732.400, 1456.600 742.800, 1456.700 743.700, 1454.900 745.100, 1451.500 745.200, 1449.200 745.900, 1447.600 747.000, 1446.600 748.300, 1444.600 751.700, 1445.900 753.300, 1443.700 756.100, 1437.200 760.700, 1434.500 763.300, 1433.600 765.500, 1433.400 767.800, 1432.500 769.300, 1429.900 769.300, 1428.400 768.300, 1427.300 766.500, 1426.600 764.300, 1426.400 762.000, 1424.000 763.800, 1421.500 764.500, 1420.100 763.800, 1422.900 758.100, 1421.900 756.000, 1416.100 751.100, 1414.200 750.700, 1409.500 750.400, 1404.400 748.700, 1402.800 748.900, 1400.500 750.400, 1400.100 751.400, 1399.900 752.900, 1399.200 754.200, 1396.500 755.300, 1396.000 756.600, 1396.000 759.800, 1396.100 761.500, 1396.900 764.200, 1397.100 765.800, 1396.700 766.500, 1395.900 767.300, 1395.100 768.500, 1394.200 772.700, 1393.000 772.700, 1391.500 771.900, 1390.200 772.100, 1389.800 773.400, 1389.400 776.700, 1389.100 778.000, 1386.500 783.000, 1385.000 784.100, 1383.200 782.400, 1380.300 786.200, 1374.200 791.800, 1370.900 794.100, 1382.200 776.700, 1380.300 776.900, 1378.600 777.600, 1375.300 779.600, 1377.000 774.600, 1377.200 772.400, 1376.400 769.500, 1375.300 769.500, 1369.400 782.900, 1368.000 785.300, 1364.500 785.700, 1360.900 786.900, 1357.200 788.700, 1353.700 791.200, 1352.600 789.600, 1354.500 786.600, 1356.700 784.500, 1370.700 775.200, 1369.100 773.200, 1367.200 772.100, 1365.000 771.900, 1362.700 772.100, 1364.200 770.200, 1367.500 768.100, 1369.500 766.400, 1363.900 765.100, 1356.700 769.000, 1349.900 774.900, 1345.300 780.100, 1344.500 782.400, 1344.400 784.500, 1343.800 786.100, 1341.300 786.700, 1340.200 787.400, 1339.300 789.200, 1338.600 791.100, 1338.000 792.500, 1332.800 797.200, 1331.700 799.600, 1334.600 801.100, 1331.000 802.800, 1328.200 801.800, 1326.900 798.600, 1327.600 794.100, 1335.500 785.900, 1338.000 782.400, 1331.200 780.200, 1323.900 783.800, 1310.900 794.100, 1307.200 795.000, 1299.800 794.000, 1296.100 794.100, 1292.700 796.000, 1284.700 805.600, 1284.700 802.800, 1283.700 800.800, 1282.200 799.300, 1280.200 798.100, 1282.900 796.500, 1289.200 791.100, 1292.100 789.800, 1294.600 790.000, 1300.100 791.100, 1305.600 790.000, 1310.400 787.500, 1319.700 780.800, 1324.400 778.300, 1329.000 776.500, 1333.900 775.400, 1339.300 775.100, 1342.000 774.400, 1346.800 771.400, 1348.400 770.800, 1349.300 770.100, 1348.100 768.500, 1345.400 766.300, 1345.000 766.600, 1343.800 766.900, 1342.300 766.800, 1341.000 766.300, 1344.100 764.100, 1351.200 763.400, 1354.700 762.000, 1323.000 760.400, 1320.600 762.000, 1318.500 764.400, 1316.300 765.900, 1313.800 764.900, 1316.100 762.300, 1317.900 759.800, 1320.000 757.500, 1323.000 756.000, 1326.200 755.500, 1332.400 755.500, 1335.400 754.500, 1342.500 748.700, 1353.800 744.800, 1360.100 744.300, 1363.200 743.600, 1366.100 742.100, 1368.800 739.300, 1370.200 738.400, 1371.400 738.100, 1372.500 737.300, 1372.900 734.900, 1372.000 733.100, 1370.100 732.400, 1367.900 732.600, 1366.500 733.400, 1364.400 735.600, 1355.900 740.600, 1354.100 741.000, 1352.200 740.700, 1351.100 739.700, 1351.800 737.700, 1352.900 736.700, 1353.900 736.300, 1354.900 735.700, 1355.900 734.100, 1354.100 733.300, 1352.500 732.800, 1349.000 732.500, 1348.200 729.600, 1330.900 731.200, 1334.100 723.200, 1334.300 721.500, 1328.600 727.500, 1322.900 731.800, 1320.200 734.700, 1320.800 737.900, 1328.000 737.900, 1341.100 735.300, 1341.100 736.800, 1324.600 746.500, 1318.400 747.000, 1321.300 745.300, 1324.300 744.100, 1324.300 742.700, 1322.100 741.800, 1319.300 741.300, 1316.700 740.400, 1315.100 738.300, 1315.500 735.500, 1317.100 733.300, 1318.100 731.200, 1316.200 729.400, 1316.100 725.900, 1312.400 724.200, 1303.700 723.500, 1303.700 722.100, 1307.900 720.700, 1311.800 721.100, 1319.500 723.500, 1323.700 723.400, 1327.200 721.700, 1333.300 716.200, 1330.600 715.000, 1328.900 716.400, 1327.200 718.500, 1325.100 719.200, 1323.400 717.800, 1323.200 715.300, 1322.900 712.600, 1320.500 710.500, 1330.500 711.100, 1335.000 710.200, 1339.800 707.500, 1332.500 702.400, 1324.100 701.800, 1316.300 705.600, 1310.400 713.300, 1313.200 714.600, 1311.900 716.400, 1308.400 717.500, 1304.600 716.200, 1307.000 713.900, 1308.500 711.600, 1308.400 709.400, 1305.900 707.500, 1303.400 707.400, 1280.100 716.800, 1274.300 717.500, 1274.300 716.100, 1276.000 715.300, 1277.100 714.000, 1277.300 712.400, 1276.500 710.400, 1278.900 709.500, 1282.800 706.800, 1284.400 706.000, 1294.200 706.000, 1300.100 703.400, 1302.600 702.900, 1307.900 703.100, 1310.500 702.800, 1312.900 701.600, 1310.500 698.500, 1314.000 695.700, 1326.300 691.300, 1326.300 690.000, 1317.300 692.000, 1313.000 692.300, 1310.600 690.000, 1313.600 689.800, 1315.500 688.500, 1317.200 686.800, 1319.700 685.500, 1329.900 686.900, 1332.100 686.200, 1336.200 683.200, 1338.500 682.500, 1338.400 681.700, 1331.200 676.600, 1325.800 674.100, 1324.500 672.000, 1326.600 669.400, 1328.100 669.500, 1331.900 671.800, 1334.200 672.400, 1338.800 671.900, 1344.000 670.500, 1348.900 668.200, 1352.700 664.900, 1349.900 664.500, 1338.500 664.900, 1336.500 664.200, 1334.600 662.700, 1333.500 661.300, 1334.000 660.600, 1341.300 662.000, 1371.700 658.500, 1374.800 656.700, 1376.600 653.600, 1376.200 649.000, 1374.700 646.800, 1372.600 645.900, 1370.500 645.300, 1369.400 644.400, 1369.400 642.800, 1370.300 640.900, 1371.500 639.200, 1372.300 638.600, 1376.500 640.500, 1378.700 640.900, 1379.700 639.300, 1380.300 637.900, 1383.200 634.400, 1384.100 632.700, 1383.000 629.600, 1383.000 627.600, 1384.700 626.700, 1386.200 626.400, 1389.200 625.400, 1391.000 625.400, 1391.100 621.000, 1397.400 616.100, 1396.700 613.700, 1396.700 612.200, 1394.700 611.700, 1393.300 610.400, 1390.900 606.300, 1388.500 607.800, 1386.000 607.900, 1383.600 607.200, 1381.800 606.300, 1381.700 605.800, 1381.900 603.800, 1381.800 603.200, 1381.000 603.100, 1379.000 603.500, 1378.400 603.200, 1377.500 602.500, 1376.800 602.100, 1376.200 601.400, 1376.000 599.600, 1373.800 598.400, 1369.000 597.900, 1363.800 596.700, 1360.200 593.100, 1362.600 590.800, 1359.900 589.200, 1352.400 587.200, 1347.500 583.500, 1344.400 582.100, 1341.100 582.800, 1339.000 581.400, 1332.600 578.800, 1330.300 578.300, 1327.800 577.300, 1322.100 572.500, 1319.500 571.000, 1315.100 571.600, 1304.300 575.300, 1300.300 573.900, 1306.800 570.000, 1309.300 569.500, 1307.500 568.700, 1303.400 568.200, 1301.900 567.300, 1300.100 564.700, 1299.500 564.600, 1298.800 565.500, 1296.800 566.500, 1297.000 567.400, 1295.700 569.200, 1294.100 570.200, 1293.400 568.700, 1292.700 568.400, 1283.800 570.800, 1282.500 574.000, 1281.900 578.100, 1280.300 582.000, 1277.700 585.700, 1277.200 585.900, 1276.700 583.600, 1274.100 579.800, 1271.600 581.700, 1270.800 584.400, 1270.000 587.400, 1268.300 590.200, 1267.300 586.800, 1267.900 584.200, 1269.300 581.600, 1270.500 578.400, 1265.600 580.800, 1264.000 580.500, 1263.800 576.800, 1258.500 579.400, 1256.500 579.000, 1257.000 575.500, 1249.200 575.900, 1245.100 577.400, 1241.900 583.700, 1239.100 588.100, 1237.900 592.400, 1241.200 595.900, 1237.800 598.300, 1233.600 600.600, 1230.000 603.200, 1228.600 606.900, 1227.900 610.100, 1226.800 610.400, 1226.500 608.000, 1230.200 599.500, 1231.300 595.300, 1230.600 591.700, 1226.800 590.100, 1226.100 589.000, 1226.400 586.300, 1227.400 582.000, 1228.100 581.100, 1233.100 576.900, 1230.900 574.600, 1231.200 571.800, 1233.100 569.000, 1235.400 566.600, 1231.900 565.700, 1226.800 566.900, 1221.800 569.500, 1218.300 572.500, 1222.400 566.900, 1223.000 565.900, 1224.200 560.000, 1224.700 558.700, 1233.300 551.600, 1232.100 550.600, 1229.100 551.000, 1222.600 553.100, 1219.000 553.500, 1216.600 554.700, 1214.000 557.500, 1209.800 563.100, 1201.400 572.200, 1199.100 575.700, 1199.600 575.300, 1200.000 576.000, 1200.200 577.800, 1199.900 579.100, 1199.200 579.500, 1198.400 579.600, 1198.000 580.000, 1196.400 583.300, 1195.400 584.800, 1194.600 585.900, 1193.300 586.700, 1190.100 588.000, 1188.800 588.800, 1187.500 590.300, 1186.300 593.000, 1185.300 594.700, 1184.500 598.200, 1183.600 599.700, 1181.800 599.100, 1180.900 597.600, 1180.800 595.500, 1181.200 593.500, 1181.800 591.900, 1179.900 592.400, 1178.500 593.700, 1177.600 595.800, 1177.300 598.400, 1177.600 602.500, 1177.100 603.800, 1175.700 605.800, 1171.400 609.200, 1169.200 606.900, 1168.500 602.900, 1168.900 600.700, 1168.400 598.800, 1168.300 586.100, 1169.100 582.000, 1168.600 580.500, 1166.100 580.200, 1164.700 581.100, 1162.900 583.200, 1161.300 585.600, 1160.300 587.700, 1159.500 590.700, 1159.400 593.000, 1160.500 594.400, 1163.200 594.900, 1163.600 596.000, 1162.700 602.900, 1162.200 604.700, 1160.800 606.400, 1159.100 607.800, 1157.500 608.300, 1155.500 607.600, 1154.800 605.900, 1154.500 604.400, 1154.000 603.600, 1149.800 603.900, 1147.400 605.100, 1143.300 612.500, 1141.200 615.200, 1138.300 617.700, 1135.300 618.900, 1133.000 618.400, 1138.400 613.900, 1141.000 610.800, 1142.100 607.500, 1141.700 604.300, 1138.700 593.600, 1136.400 597.800, 1133.500 596.600, 1130.400 593.200, 1127.200 590.600, 1127.400 593.900, 1128.500 596.800, 1131.900 602.300, 1130.600 603.600, 1131.900 605.200, 1108.100 617.000, 1102.700 620.700, 1099.900 622.200, 1097.200 622.800, 1095.800 623.300, 1094.200 624.700, 1093.100 626.600, 1093.300 628.800, 1094.100 628.700, 1098.900 627.200, 1098.900 628.800, 1096.300 631.600, 1094.000 636.100, 1093.300 641.100, 1094.900 645.400, 1097.900 645.900, 1106.300 641.300, 1110.300 640.400, 1110.300 641.800, 1098.100 650.800, 1094.900 652.100, 1090.200 651.800, 1087.900 652.200, 1085.300 653.400, 1079.700 657.500, 1077.500 658.000, 1079.900 655.200, 1085.000 651.800, 1087.500 649.200, 1088.900 646.300, 1089.200 643.500, 1087.800 641.600, 1084.200 641.700, 1087.500 634.500, 1085.400 634.000, 1080.600 634.000, 1079.600 633.000, 1080.500 631.300, 1086.400 627.100, 1087.600 625.000, 1088.800 622.600, 1090.100 620.300, 1092.200 618.300, 1096.900 615.700, 1100.400 614.900, 1102.500 613.500, 1104.000 611.500, 1104.600 608.800, 1104.500 600.400, 1102.800 594.500, 1103.600 589.500, 1105.600 584.700, 1108.100 581.800, 1109.800 584.400, 1112.400 582.500, 1114.100 578.800, 1112.600 576.000, 1115.100 573.000, 1117.700 570.800, 1119.800 568.300, 1120.600 564.800, 1120.300 561.300, 1119.500 558.100, 1118.100 555.500, 1116.100 553.600, 1116.100 552.200, 1118.500 552.200, 1115.200 550.400, 1112.100 551.000, 1108.900 552.500, 1105.700 553.600, 1106.300 554.900, 1107.400 558.300, 1108.100 559.600, 1106.400 559.500, 1104.900 558.900, 1103.500 557.900, 1102.300 556.600, 1104.500 554.600, 1103.100 553.100, 1097.800 550.700, 1095.700 552.500, 1093.400 553.400, 1088.900 553.600, 1096.600 565.300, 1095.800 567.800, 1095.600 571.200, 1096.000 574.600, 1096.600 577.200, 1101.600 583.600, 1101.700 584.700, 1100.600 585.800, 1098.900 588.300, 1096.700 590.800, 1091.500 592.600, 1090.000 594.200, 1089.900 596.500, 1091.100 599.200, 1090.400 599.900, 1089.900 600.300, 1088.800 600.800, 1088.100 598.300, 1086.900 595.600, 1085.600 593.400, 1084.200 592.000, 1087.000 590.400, 1089.700 589.800, 1091.900 588.500, 1093.300 584.700, 1093.100 582.300, 1089.100 584.900, 1086.400 584.700, 1088.800 581.600, 1085.800 581.800, 1083.000 586.500, 1080.200 592.400, 1077.400 596.300, 1078.900 590.300, 1075.900 588.900, 1071.100 590.100, 1067.100 591.900, 1069.300 589.100, 1075.200 585.200, 1085.800 573.200, 1088.700 571.300, 1084.300 569.900, 1074.600 575.700, 1069.500 577.000, 1069.500 575.700, 1073.000 573.200, 1083.000 562.200, 1082.000 560.900, 1081.000 561.600, 1078.500 562.200, 1079.600 559.400, 1070.000 560.900, 1067.200 562.200, 1065.700 564.900, 1064.200 568.300, 1062.500 569.400, 1060.400 565.200, 1059.000 567.400, 1058.000 569.800, 1058.500 570.600, 1058.800 571.300, 1059.000 571.900, 1059.200 572.700, 1056.400 573.200, 1054.700 574.700, 1053.700 577.200, 1053.500 580.800, 1052.700 583.400, 1050.800 586.100, 1046.600 590.400, 1045.900 587.700, 1046.100 585.100, 1046.800 582.500, 1047.900 580.000, 1047.600 576.700, 1049.800 571.400, 1054.600 562.300, 1049.200 563.200, 1044.500 566.900, 1037.300 576.400, 1036.200 578.800, 1035.400 581.800, 1034.200 584.600, 1032.100 586.000, 1029.700 585.300, 1028.600 583.200, 1028.600 580.700, 1029.700 578.700, 1029.700 577.100, 1028.700 577.200, 1025.200 577.100, 1025.800 573.700, 1028.000 569.800, 1028.600 566.800, 1019.300 570.800, 1014.100 572.000, 1010.600 571.300, 1012.000 570.200, 1013.400 568.600, 1014.300 567.200, 1014.000 566.800, 1015.800 566.200, 1017.000 566.300, 1018.200 566.600, 1020.300 566.800, 1022.000 566.100, 1020.500 564.700, 1018.000 563.400, 1016.900 563.100, 1015.700 562.300, 1013.900 562.000, 1010.600 562.200, 1011.500 561.200, 1012.900 558.000, 1004.900 556.100, 998.000 556.600, 983.500 560.800, 977.000 564.100, 969.000 575.000, 962.400 576.700, 958.700 578.700, 957.300 578.700, 959.000 575.900, 964.700 570.200, 965.700 568.000, 965.700 566.300, 966.100 565.200, 968.600 564.800, 970.000 564.200, 973.200 561.300, 975.000 560.600, 982.100 559.300, 989.200 555.600, 995.300 550.100, 999.100 543.000, 993.200 543.200, 990.500 542.400, 989.000 540.000, 996.900 534.800, 999.100 532.700, 999.700 531.200, 1000.100 529.200, 1000.700 527.400, 1002.000 526.600, 1003.400 526.300, 1004.600 525.200, 1005.500 523.800, 1006.100 522.300, 999.700 523.100, 996.900 522.800, 995.900 520.800, 993.700 522.800, 991.100 524.200, 988.300 525.000, 985.600 525.300, 985.600 523.700, 988.500 523.200, 994.000 520.300, 997.000 519.400, 996.900 518.300, 996.600 517.700, 995.800 516.400, 993.900 517.600, 991.400 518.500, 988.700 519.200, 986.100 519.400, 983.900 519.900, 972.400 526.200, 962.600 533.900, 958.300 538.300, 954.000 544.900, 951.500 547.200, 950.400 544.900, 950.700 541.600, 951.500 538.800, 952.600 536.700, 953.900 535.100, 964.100 528.300, 968.400 524.100, 967.400 520.600, 975.300 517.200, 978.000 514.600, 976.400 511.800, 978.500 509.000, 980.000 509.300, 981.500 510.900, 983.300 511.800, 985.200 511.400, 1010.500 498.500, 1025.800 494.200, 1029.700 488.400, 1036.800 486.300, 1048.800 477.100, 1055.000 475.100, 1058.500 474.600, 1062.200 473.300, 1065.300 471.100, 1067.100 467.700, 1067.200 463.900, 1066.000 460.400, 1062.500 454.300, 1062.500 452.800, 1049.800 460.700, 1047.800 461.600, 1043.200 461.800, 1034.000 461.000, 1029.800 463.000, 1030.900 464.600, 1029.900 466.300, 1028.200 468.300, 1026.300 470.000, 1024.600 470.700, 1020.700 470.600, 1017.200 469.100, 1016.700 468.200, 1016.200 466.800, 1015.500 465.300, 1014.400 464.600, 1013.100 465.000, 1012.200 465.400, 1011.100 465.200, 1004.800 459.500, 1003.600 457.300, 1004.600 457.300, 1001.200 452.300, 996.500 449.100, 991.100 447.500, 985.600 447.100, 983.600 450.400, 981.500 457.000, 978.200 462.000, 973.100 460.200, 978.200 455.600, 980.000 452.500, 979.300 449.100, 977.100 449.100, 969.200 452.000, 966.800 453.500, 958.300 465.400, 953.300 470.000, 947.200 472.000, 954.300 464.500, 956.200 461.600, 957.700 458.200, 960.700 448.400, 962.600 445.800, 967.300 440.700, 968.600 438.000, 967.800 435.000, 965.300 433.100, 962.400 431.300, 960.600 429.100, 963.200 428.200, 963.000 427.000, 961.100 426.100, 958.300 426.100, 958.600 425.100, 959.200 422.500, 959.500 421.500, 956.900 421.400, 954.200 422.100, 951.700 423.400, 949.800 425.400, 939.000 432.700, 934.100 442.900, 930.500 445.200, 926.300 447.200, 923.000 451.900, 915.200 467.100, 915.500 469.900, 917.100 472.800, 918.700 477.600, 913.500 474.500, 911.900 473.100, 908.300 476.500, 907.800 479.900, 908.900 483.500, 909.600 487.300, 908.500 488.900, 901.600 477.700, 898.500 478.700, 893.200 485.000, 888.400 487.000, 886.700 488.400, 885.300 490.100, 884.700 491.700, 884.200 493.000, 879.800 496.200, 859.000 522.300, 856.400 529.500, 847.400 540.800, 843.100 547.800, 840.400 550.900, 837.300 552.700, 841.700 545.500, 842.700 543.000, 844.000 536.600, 848.800 524.000, 849.100 521.900, 849.600 520.900, 849.700 513.900, 848.800 513.100, 846.800 513.200, 844.800 512.900, 843.900 510.900, 841.800 510.400, 832.000 509.500, 829.200 508.600, 833.000 504.900, 846.100 498.300, 848.100 496.800, 850.000 494.600, 851.700 492.100, 852.900 489.500, 852.800 488.800, 851.900 488.100, 851.400 487.100, 851.800 484.900, 852.600 483.800, 853.900 483.000, 856.400 481.900, 856.400 480.600, 856.000 478.100, 859.000 470.100, 859.900 466.500, 858.400 464.300, 855.200 466.400, 851.700 470.200, 849.600 473.100, 849.700 469.500, 850.500 466.000, 856.500 449.700, 858.500 446.700, 860.700 444.400, 868.800 437.700, 871.900 434.100, 872.800 431.800, 871.300 429.800, 867.600 427.300, 870.000 426.000, 872.300 426.400, 874.500 427.200, 876.600 427.300, 878.700 426.100, 892.200 413.100, 895.400 408.400, 894.800 403.800, 898.700 400.900, 902.400 395.800, 905.400 390.000, 907.400 384.900, 907.900 377.700, 904.100 375.700, 899.300 374.900, 896.100 371.300, 904.000 370.000, 905.400 371.200, 906.600 373.200, 908.100 374.700, 910.900 374.400, 913.300 372.100, 918.300 364.100, 921.000 361.100, 926.800 356.600, 932.300 350.700, 934.700 346.500, 933.300 345.100, 929.700 344.700, 925.500 343.400, 925.500 341.800, 937.500 341.800, 938.700 340.600, 940.400 332.800, 942.600 329.600, 947.800 326.400, 955.500 318.700, 956.100 318.000, 957.800 316.800, 962.200 311.200, 962.900 308.900, 961.200 308.000, 957.200 307.600, 954.100 305.400, 952.600 302.900, 951.800 299.800, 951.300 295.600, 951.400 294.300, 952.200 292.300, 952.500 291.000, 952.100 290.200, 950.600 288.400, 950.200 287.300, 953.000 283.400, 953.700 282.000, 954.800 277.800, 954.900 273.400, 953.600 270.300, 950.200 270.100, 952.000 265.500, 954.200 262.200, 957.300 260.300, 961.500 259.600, 960.100 265.000, 958.000 270.300, 956.800 275.800, 958.200 281.800, 957.700 282.900, 956.000 287.700, 959.000 292.200, 961.000 292.900, 964.000 290.600, 963.800 292.700, 963.300 294.700, 962.700 296.500, 961.500 298.000, 965.400 299.400, 968.100 296.100, 970.500 291.600, 973.700 289.300, 973.900 288.600, 977.700 284.700, 985.200 274.400, 988.800 266.800, 991.300 263.700, 995.000 261.000, 996.700 261.000, 999.200 268.300, 999.600 265.000, 1000.800 262.400, 1002.700 260.500, 1004.900 259.200, 1003.600 258.100, 1002.700 257.800, 1001.700 258.200, 1000.300 259.200, 999.900 256.500, 1000.700 252.900, 1002.100 249.800, 1003.900 248.500, 1005.000 249.900, 1005.600 252.700, 1006.600 254.500, 1009.500 253.300, 1008.400 248.900, 1007.600 247.100, 1006.200 245.800, 1006.200 244.400, 1007.800 243.100, 1008.800 241.200, 1009.600 238.900, 1010.800 236.600, 1016.400 230.700, 1014.800 230.200, 1012.800 229.100, 1011.300 227.600, 1010.700 225.600, 1011.300 223.300, 1012.700 223.900, 1014.200 225.500, 1015.300 226.400, 1018.400 225.300, 1021.500 223.100, 1023.200 220.200, 1022.200 217.300, 1023.200 215.400, 1024.700 212.400, 1025.600 209.500, 1024.900 208.200, 1022.200 207.100, 1021.800 204.700, 1022.600 202.100, 1023.200 200.700, 1024.100 199.400, 1025.200 198.900, 1025.600 197.900, 1023.800 195.400, 1020.200 192.100, 1018.000 190.700, 1016.400 190.000, 1004.100 187.700, 1000.900 189.300, 997.400 192.400, 993.700 194.000, 985.700 194.600, 985.900 196.300, 985.900 197.800, 985.800 198.800, 985.700 199.200, 986.500 200.300, 987.900 203.700, 984.600 203.500, 982.100 201.300, 977.800 194.700, 977.100 193.300, 976.700 191.700, 975.900 190.600, 972.200 189.800, 966.400 187.200, 968.800 185.800, 974.100 185.100, 976.600 184.100, 972.100 181.300, 971.000 179.700, 972.800 180.000, 974.400 179.900, 975.800 179.300, 976.700 178.000, 976.400 177.100, 975.600 170.600, 973.400 169.500, 965.700 167.800, 963.100 167.600, 963.500 164.800, 964.700 159.900, 964.300 158.500, 964.300 157.200, 966.500 156.900, 968.700 157.200, 970.700 158.100, 972.300 160.100, 972.700 158.600, 973.000 157.300, 973.400 155.900, 973.400 154.200, 977.500 156.500, 981.100 160.000, 984.700 162.500, 989.300 161.700, 987.900 158.400, 987.000 157.200, 989.500 157.600, 991.400 158.700, 995.000 161.700, 996.500 162.600, 997.800 163.000, 1001.200 163.200, 1011.500 161.100, 1031.300 164.700, 1035.000 166.300, 1038.700 169.500, 1042.600 171.800, 1046.100 170.700, 1044.900 169.200, 1044.100 166.600, 1043.800 163.800, 1043.900 161.700, 1045.400 162.700, 1046.800 163.100, 1050.100 163.200, 1051.400 162.700, 1052.600 161.700, 1053.100 160.600, 1052.400 160.100, 1050.800 159.500, 1050.300 158.100, 1050.600 154.900, 1051.100 152.900, 1052.300 152.800, 1056.700 155.100, 1058.000 156.900, 1059.400 157.600, 1062.000 155.600, 1063.400 153.300, 1065.000 148.000, 1066.700 145.200, 1066.800 141.900, 1069.100 136.900, 1069.700 133.300, 1065.200 134.200, 1063.100 132.400, 1058.400 129.400, 1056.500 126.900, 1064.500 126.900, 1069.400 128.500, 1071.100 127.600, 1072.400 125.300, 1073.200 122.500, 1073.500 120.200, 1072.600 119.900, 1068.200 116.600, 1066.800 114.800, 1069.200 115.100, 1072.700 116.800, 1076.000 117.500, 1078.200 114.800, 1077.400 111.200, 1074.300 109.500, 1068.000 108.800, 1067.700 109.700, 1066.900 111.200, 1066.100 111.300, 1065.600 108.100, 1060.000 105.800, 1057.100 106.600, 1047.600 111.700, 1048.200 111.900, 1048.800 112.100, 1049.400 112.500, 1049.900 113.400, 1047.500 114.200, 1044.000 113.900, 1041.000 112.800, 1039.700 111.000, 1039.100 109.800, 1038.100 109.100, 1037.600 108.000, 1038.500 106.800, 1040.400 104.300, 1036.000 106.600, 1028.900 114.000, 1025.000 116.300, 1027.300 109.900, 1024.500 111.600, 1023.000 116.400, 1031.200 120.100, 1031.900 122.600, 1031.900 125.600, 1032.800 128.300, 1035.300 130.400, 1041.500 131.500, 1044.200 132.900, 1038.700 134.600, 1032.500 132.800, 1026.200 130.100, 1020.600 128.300, 1009.200 128.300, 1003.700 129.500, 1000.900 129.500, 998.000 128.300, 1002.400 122.600, 1005.700 116.500, 999.500 117.100, 1000.100 113.000, 1009.200 101.500, 1006.400 102.000, 1004.000 103.200, 1001.600 103.900, 998.900 103.000, 997.500 100.600, 979.200 111.800, 976.600 112.700, 969.700 116.900, 965.300 120.900, 962.300 122.400, 948.300 126.300, 944.200 128.400, 942.500 130.800, 940.400 133.000, 927.700 136.000, 924.400 138.100, 917.600 144.000, 914.700 145.200, 906.500 146.000, 898.400 148.100, 870.100 161.600, 861.000 168.300, 858.200 171.300, 856.000 176.000, 853.300 182.200, 852.100 183.600, 849.100 186.300, 847.600 188.100, 852.200 192.200, 854.100 194.400, 855.700 197.200, 852.600 197.200, 851.200 196.700, 849.900 195.600, 845.300 198.800, 848.500 205.600, 849.000 208.000, 847.600 210.700, 845.100 212.300, 837.800 214.700, 836.300 216.000, 834.500 223.800, 829.900 227.600, 823.800 228.700, 817.200 228.800, 820.200 230.700, 827.000 231.400, 829.700 233.100, 830.400 236.900, 827.700 239.000, 821.100 241.400, 817.300 243.600, 814.700 241.500, 813.200 238.000, 812.100 236.300, 802.300 235.000, 799.100 236.300, 801.000 236.300, 802.800 236.800, 804.400 237.800, 805.900 239.100, 806.500 240.400, 807.600 244.200, 808.100 245.300, 811.600 247.000, 817.900 246.600, 820.500 248.300, 816.600 250.600, 814.700 252.100, 816.300 253.700, 817.100 255.200, 818.300 255.900, 820.500 254.300, 824.000 255.800, 825.400 256.900, 826.300 258.900, 824.000 260.300, 821.600 260.700, 819.800 259.800, 818.600 260.100, 818.200 264.100, 817.700 267.000, 816.400 268.700, 814.700 270.100, 811.600 273.500, 807.000 276.900, 805.500 278.800, 803.600 282.600, 802.500 284.400, 798.900 287.400, 791.300 291.200, 788.200 294.100, 786.500 295.100, 781.700 294.700, 779.700 294.900, 778.600 295.600, 774.300 299.400, 766.600 302.400, 759.600 303.800, 758.500 303.400, 758.300 301.400, 757.100 300.800, 756.100 301.000, 754.600 302.000, 750.000 303.500, 748.400 304.900, 748.100 307.000, 751.000 308.700, 756.000 308.700, 760.700 309.600, 762.900 313.600, 764.400 317.800, 771.800 317.500, 774.300 320.500, 772.900 321.200, 771.500 321.800, 770.000 322.100, 768.300 322.100, 768.300 323.500, 771.300 324.700, 774.500 324.800, 786.600 322.400, 788.400 323.000, 787.100 325.700, 781.200 329.400, 774.600 328.700, 761.400 324.900, 755.500 327.200, 752.300 332.700, 750.100 339.600, 747.100 345.800, 740.500 351.600, 738.600 353.800, 737.900 355.600, 737.500 359.300, 736.500 361.200, 732.300 366.300, 729.300 374.000, 728.500 377.300, 727.800 377.900, 727.000 378.300, 726.600 378.900, 726.800 380.300, 727.200 381.000, 727.600 381.400, 727.800 382.000, 727.000 386.800, 724.900 391.600, 719.900 400.300, 715.800 409.600, 714.700 414.000, 714.300 418.700, 713.100 422.300, 705.100 434.300, 698.600 448.500, 693.000 456.600, 688.300 469.600, 686.000 473.200, 680.400 479.900, 678.000 487.500, 673.300 493.600, 673.700 495.900, 672.400 497.800, 672.000 499.800, 672.000 501.700, 671.500 503.400, 670.300 504.400, 667.100 506.500, 665.600 507.900, 663.400 511.100, 658.800 521.200, 657.500 526.700, 656.900 534.200, 658.200 540.600, 662.400 542.900, 662.100 543.700, 661.900 544.400, 661.700 545.100, 661.200 546.000, 664.500 548.900, 666.200 550.700, 666.900 552.600, 667.300 554.200, 668.100 556.300, 669.200 558.300, 670.300 559.400, 673.100 559.300, 675.100 556.900, 676.600 553.900, 678.300 551.900, 679.000 558.600, 682.600 563.000, 696.500 571.100, 698.600 573.000, 698.100 573.900, 693.100 573.600, 688.600 572.400, 683.800 569.600, 679.400 566.200, 675.000 563.600, 670.700 563.500, 666.600 566.600, 666.500 570.700, 670.700 579.800, 666.400 578.000, 664.400 573.800, 663.900 568.400, 663.900 563.000, 662.600 558.400, 659.200 554.700, 655.000 552.400, 649.300 551.900, 645.800 553.500, 639.900 559.300, 634.500 562.000, 626.900 568.500, 618.900 577.300, 614.700 584.400, 611.900 592.600, 610.700 607.000, 610.800 611.100, 611.800 614.500, 614.300 617.800, 617.800 620.000, 627.000 623.300, 643.800 625.400, 648.200 625.100, 651.900 623.800, 658.000 620.400, 661.900 619.200, 655.200 628.300, 651.400 631.800, 647.200 633.800, 633.100 632.900, 631.500 635.400, 636.500 640.500, 646.000 638.300, 661.900 630.900, 661.900 632.500, 657.700 634.100, 654.800 636.500, 654.800 638.700, 659.400 639.700, 663.600 638.900, 667.100 636.800, 673.100 631.000, 674.300 632.600, 666.100 642.300, 664.000 644.300, 660.400 645.000, 649.300 642.800, 639.400 644.700, 631.300 643.200, 628.600 643.200, 627.100 644.900, 626.800 649.300, 627.000 651.700, 627.600 653.400, 628.900 656.000, 631.800 664.000, 634.000 666.300, 639.400 670.200, 641.900 672.700, 648.000 675.600, 664.700 675.600, 668.500 678.000, 662.600 680.100, 638.300 676.500, 633.600 672.600, 625.700 661.900, 620.700 657.800, 614.500 656.100, 601.500 656.000, 598.800 656.700, 593.200 659.100, 590.800 658.900, 588.800 656.500, 589.100 654.100, 590.900 651.800, 593.000 650.000, 593.000 648.500, 588.000 648.500, 591.000 647.000, 592.200 643.900, 591.700 641.000, 589.700 639.600, 588.500 640.000, 583.600 642.700, 580.200 647.100, 576.000 659.700, 574.000 663.000, 566.400 670.400, 564.700 686.300, 563.100 687.400, 562.000 689.900, 560.800 695.000, 559.300 699.000, 558.500 700.400, 557.200 702.300, 551.200 708.300, 548.300 712.000, 546.100 719.400, 539.100 730.000, 537.400 738.300, 537.200 747.400, 536.000 756.200, 531.400 763.300, 528.200 764.200, 523.200 764.500, 518.100 763.900, 515.000 762.500, 513.600 761.100, 510.700 758.900, 510.400 757.000, 510.200 754.700, 509.800 748.800, 508.700 748.800, 509.500 754.800, 509.400 757.300, 508.100 759.700, 504.200 764.200, 501.700 766.300, 500.600 765.400, 500.700 760.900, 500.500 759.400, 496.300 757.400, 492.100 754.900, 490.800 753.000, 490.500 750.100, 492.800 745.600, 497.300 739.800, 502.400 734.900, 505.800 732.800, 510.000 731.200, 514.500 727.500, 518.800 722.800, 522.000 718.400, 516.400 720.300, 488.800 740.700, 465.400 754.600, 449.900 766.100, 446.700 769.300, 445.200 772.900, 445.400 775.200, 444.200 778.000, 443.300 779.700, 441.500 782.100, 440.700 783.700, 444.900 783.700, 471.000 774.800, 478.500 773.500, 494.100 774.400, 510.500 772.500, 529.000 766.900, 532.800 766.400, 550.200 768.000, 554.000 769.900, 559.700 775.400, 563.300 776.500, 571.200 774.800, 575.100 775.100, 577.400 778.100, 581.100 774.900, 587.000 772.600, 597.800 770.700, 601.000 771.000, 603.600 772.100, 604.100 773.500, 601.300 775.000, 598.400 775.600, 592.700 775.900, 582.000 778.600, 579.900 779.600, 577.400 782.300, 573.400 788.600, 570.700 791.100, 568.600 791.900, 560.500 794.100, 552.100 798.100, 549.100 798.400, 553.400 794.200, 557.700 792.100, 562.300 790.500, 567.000 788.200, 567.000 786.700, 560.200 787.700, 554.600 790.600, 549.700 794.900, 545.000 800.300, 543.700 801.100, 540.200 801.800, 538.700 802.600, 537.500 804.700, 536.800 808.900, 536.000 810.700, 529.400 819.000, 526.400 821.500, 516.900 827.400, 514.000 830.200, 509.900 835.500, 507.200 837.800, 498.400 841.300, 488.500 853.600, 483.300 857.700, 455.900 871.000, 443.700 880.100, 433.600 890.800, 432.500 893.000, 431.900 895.300, 430.700 897.200, 428.400 898.000, 424.700 897.800, 422.800 898.000, 421.500 898.800, 419.900 900.300, 418.300 901.200, 417.000 902.500, 416.500 905.300, 416.700 907.400, 417.600 908.700, 422.100 914.000, 422.900 915.500, 423.200 917.500, 424.100 918.700, 427.900 920.700, 428.800 922.000, 428.900 926.800, 429.800 931.000, 432.200 933.700, 436.700 934.100, 434.700 939.100, 432.600 946.700, 431.800 954.400, 433.400 959.700, 432.500 962.700, 433.700 964.500, 436.000 965.300, 438.500 965.500, 441.300 966.400, 442.900 968.600, 444.100 971.000, 445.900 972.900, 447.900 973.000, 449.900 972.300, 452.100 972.100, 456.500 975.100, 459.400 975.700, 465.100 975.800, 478.100 972.900, 479.800 972.500, 483.700 970.500, 485.500 970.000, 487.200 970.500, 488.400 971.400, 489.700 971.400, 491.700 969.200, 496.400 967.100, 522.000 968.300, 532.500 967.100, 541.600 962.100, 543.200 962.200, 545.100 965.100, 549.100 963.300, 553.100 960.200, 554.600 958.500, 560.300 957.900, 561.700 956.800, 559.100 954.100, 560.900 953.700, 562.400 954.500, 563.700 956.200, 564.800 958.500, 568.100 956.700, 571.100 956.600, 574.200 957.800, 577.300 959.800, 578.600 959.800, 582.800 956.000, 584.900 951.500, 587.700 942.700, 591.300 938.300, 595.500 936.200, 605.800 935.600, 603.600 936.200, 601.100 937.400, 598.900 938.900, 597.200 940.700, 593.000 948.800, 592.600 950.100, 591.300 951.400, 590.200 954.400, 590.200 957.400, 592.600 958.700, 594.300 957.900, 598.900 953.800, 600.500 952.100, 602.600 951.900, 608.900 955.200, 611.400 955.900, 613.500 955.000, 617.800 952.300, 632.700 947.700, 637.300 947.300, 637.300 948.600, 634.800 950.800, 636.200 952.100, 639.100 951.900, 641.800 947.200, 644.600 948.200, 647.100 950.400, 648.000 951.600, 656.200 952.600, 658.700 951.600, 659.900 950.300, 660.400 949.000, 661.100 947.800, 662.800 947.400, 667.800 947.400, 666.000 948.700, 664.600 951.300, 662.200 957.200, 668.800 956.100, 671.300 956.000, 674.000 956.800, 675.500 958.300, 676.900 960.100, 679.100 961.700, 680.500 961.800, 682.500 960.300, 683.600 960.100, 684.500 961.000, 687.200 964.500, 688.800 962.600, 689.200 959.700, 690.100 957.100, 692.900 956.000, 695.000 956.500, 701.600 959.500, 703.600 960.900, 706.000 965.600, 707.500 966.900, 710.500 967.400, 718.500 962.500, 720.400 960.300, 722.300 958.800, 724.400 957.900, 726.900 957.200, 726.400 958.100, 726.200 958.700, 725.800 960.100, 730.700 961.000, 744.900 960.100, 746.700 960.500, 749.700 961.500, 751.200 961.700, 752.100 961.500, 753.600 960.400, 756.200 959.600, 757.900 958.800, 759.300 958.800, 759.800 960.900, 759.300 962.600, 758.300 964.200, 757.800 966.100, 758.700 968.800, 760.400 970.800, 762.300 971.400, 766.500 970.400, 771.800 967.900, 773.900 967.500, 778.000 968.800, 780.100 969.100, 781.900 968.200, 785.900 960.200, 787.200 961.100, 790.500 965.900, 789.700 967.700, 786.700 970.200, 786.400 971.100, 788.000 972.600, 790.200 973.700, 792.400 974.500, 794.500 974.800, 817.000 970.600, 821.200 971.400, 824.900 974.000, 827.900 976.900, 831.900 979.000, 835.900 979.500, 839.100 977.600, 838.000 981.200, 839.000 982.300, 843.200 981.900, 844.900 981.400, 845.800 980.700, 846.900 980.700, 849.000 982.700, 851.300 981.900, 859.900 976.100, 863.100 974.900, 863.100 973.400, 859.000 971.800, 856.800 968.800, 855.200 965.700, 852.800 963.300, 853.900 961.600, 855.100 960.200, 856.800 962.500, 860.600 969.000, 862.500 970.400, 868.000 972.700, 869.200 972.500, 870.300 971.800, 874.500 970.400, 872.300 967.800, 866.600 965.500, 864.200 963.200, 868.700 962.200, 886.200 964.500, 894.800 963.200, 897.500 963.600, 902.900 965.500, 915.300 966.500, 920.000 966.200, 924.200 964.500, 926.900 960.600, 928.300 955.000, 927.500 949.900, 924.200 947.500, 924.200 943.000, 926.700 942.100, 927.500 939.300, 927.800 935.800, 928.700 932.700, 928.800 939.700, 929.800 942.500, 932.200 944.300, 930.200 946.800, 930.100 951.000, 930.500 955.300, 929.800 958.600, 937.400 959.000, 940.900 958.000, 942.400 954.900, 943.100 953.100, 944.600 953.000, 946.300 954.300, 946.900 956.400, 947.800 958.400, 950.000 958.300, 952.200 957.000, 953.700 955.700, 949.200 952.900, 950.200 952.200, 950.600 951.500, 950.900 950.800, 951.500 949.800, 950.500 949.500, 948.200 948.400, 950.600 947.300, 952.900 947.000, 955.200 946.300, 957.300 944.200, 956.300 942.200, 955.000 940.700, 953.400 939.900, 951.500 939.700, 956.900 934.800, 958.000 932.000, 958.400 927.600, 957.400 923.800, 955.500 920.400, 954.200 917.100, 954.900 913.700, 957.100 917.200, 960.600 926.800, 963.200 931.000, 965.200 931.400, 970.800 926.800, 968.100 930.600, 964.500 934.700, 962.300 938.100, 963.900 939.800, 963.900 941.400, 961.400 942.900, 962.800 943.800, 967.800 944.300, 970.000 943.800, 971.700 942.700, 978.300 935.500, 981.400 932.900, 985.000 931.200, 998.700 927.300, 1002.900 924.500, 1004.700 920.400, 1005.500 915.000, 1007.000 909.600, 1009.700 905.900, 1010.100 904.000, 1008.100 902.400, 1012.200 898.800, 1015.600 897.100, 1017.300 894.700, 1016.200 889.400, 1018.600 890.000, 1020.400 892.000, 1023.100 896.500, 1019.600 898.900, 1015.400 902.700, 1013.700 906.400, 1017.300 908.200, 1013.900 910.500, 1010.200 914.400, 1008.800 918.500, 1012.600 921.300, 1012.600 922.700, 1010.900 922.900, 1010.300 923.900, 1010.300 927.800, 1009.700 928.700, 1006.700 931.600, 1005.700 932.900, 1006.600 933.600, 1007.400 935.000, 1008.100 935.800, 995.800 944.000, 993.400 947.400, 994.000 952.500, 997.300 956.400, 1001.700 959.100, 1005.700 960.300, 1010.600 959.700, 1023.800 951.600, 1032.500 948.500, 1037.400 947.800, 1040.900 948.700, 1029.400 953.800, 1025.400 954.300, 1022.100 955.500, 1014.900 960.900, 1011.300 962.900, 1007.700 964.100, 1003.800 964.500, 1002.100 965.200, 998.900 968.200, 996.000 969.200, 995.400 970.100, 994.900 971.100, 994.100 971.800, 993.000 971.900, 991.000 971.600, 989.500 971.800, 971.900 978.400, 957.500 980.500, 954.500 981.700, 951.400 985.100, 952.600 987.600, 959.500 992.600, 961.900 992.900, 976.100 986.000, 983.800 983.600, 987.800 983.300, 990.200 981.800, 993.500 979.000, 997.000 977.200, 999.700 978.800, 1004.100 973.800, 1006.900 972.000, 1009.900 971.800, 1009.600 974.200, 1010.900 973.400, 1012.700 971.400, 1014.000 970.300, 1015.800 969.800, 1019.200 967.700, 1021.400 967.400, 1017.200 970.700, 1006.700 983.300, 997.600 990.400, 993.400 994.700, 993.200 998.900, 994.900 996.700, 997.700 993.900, 1000.900 991.400, 1003.400 990.200, 1006.400 991.200, 1009.200 993.100, 1012.000 993.600, 1014.900 990.200, 1013.800 987.000, 1015.100 982.800, 1017.700 979.100, 1020.600 977.200, 1019.600 979.900, 1018.300 982.400, 1017.600 984.900, 1018.300 987.400, 1019.300 988.400, 1018.800 990.500, 1017.200 994.600, 1020.500 993.800, 1023.700 992.500, 1026.900 990.800, 1029.700 988.700, 1028.900 987.900, 1028.400 987.000, 1027.400 984.400, 1030.100 984.400, 1032.000 985.500, 1033.500 986.900, 1035.500 987.400, 1037.200 986.400, 1039.400 984.300, 1041.300 981.900, 1042.300 980.000, 1040.900 980.000, 1040.100 979.700, 1039.100 979.600, 1037.600 980.000, 1039.800 976.100, 1043.100 976.900, 1046.200 980.000, 1048.000 983.100, 1045.600 984.100, 1044.300 985.800, 1040.100 994.500, 1038.800 995.900, 1036.600 997.200, 1035.500 998.900, 1038.900 998.600, 1044.200 995.100, 1047.900 994.500, 1047.900 996.000, 1046.300 997.100, 1046.000 998.500, 1046.700 1001.800, 1045.800 1005.400, 1046.300 1006.900, 1049.000 1006.200, 1050.300 1004.700, 1052.400 999.500, 1053.600 997.400, 1058.600 993.800, 1059.200 993.200, 1069.100 993.000, 1072.900 991.700, 1075.600 989.300, 1078.100 985.400, 1078.800 981.300, 1076.200 978.600, 1079.800 971.600, 1079.700 970.300, 1079.000 969.300, 1078.900 968.300, 1080.800 967.200, 1080.800 965.600, 1075.000 967.900, 1074.100 967.200, 1074.800 965.800, 1079.800 961.400, 1076.300 957.700, 1073.700 958.400, 1071.500 960.700, 1069.300 961.400, 1067.500 959.100, 1068.500 956.300, 1072.300 952.100, 1074.000 949.500, 1074.400 947.300, 1074.000 940.700, 1074.700 939.700, 1076.300 940.100, 1077.800 941.600, 1078.600 943.700, 1079.300 944.700, 1080.800 944.400, 1082.300 943.500, 1083.100 943.000, 1082.300 941.900, 1081.600 940.600, 1080.800 939.900, 1082.100 938.500, 1083.400 937.600, 1084.900 937.100, 1086.600 937.000, 1085.800 939.100, 1085.400 939.900, 1087.600 941.500, 1087.000 942.700, 1085.300 943.700, 1084.200 945.100, 1084.100 945.600, 1083.600 946.000, 1083.300 946.700, 1083.100 947.900, 1083.400 948.600, 1084.200 949.000, 1085.000 949.500, 1085.400 950.800, 1085.300 952.900, 1085.500 953.600, 1088.900 953.100, 1090.000 952.600, 1090.500 951.600, 1090.800 950.600, 1091.100 950.000, 1092.100 950.000, 1093.000 950.600, 1093.800 951.200, 1094.500 951.500, 1102.700 952.200, 1107.000 953.300, 1113.100 957.300, 1117.300 956.600, 1121.200 954.200, 1123.900 951.500, 1121.500 958.100, 1120.500 962.000, 1120.500 964.500, 1123.700 968.400, 1127.500 967.900, 1129.700 964.700, 1128.400 960.300, 1135.600 952.800, 1148.100 933.300, 1155.600 925.800, 1154.900 929.800, 1153.200 933.300, 1141.800 947.100, 1140.800 949.500, 1139.700 953.000, 1137.400 956.100, 1132.300 961.000, 1130.700 964.700, 1133.400 965.600, 1151.300 963.900, 1163.000 961.000, 1174.100 955.800, 1183.800 947.600, 1182.700 950.300, 1186.100 950.400, 1191.800 949.400, 1195.100 950.300, 1192.900 950.900, 1191.100 952.100, 1188.300 954.600, 1186.100 955.500, 1181.500 956.700, 1173.200 960.600, 1171.400 961.900, 1169.800 963.900, 1167.200 967.800, 1165.600 969.300, 1166.900 971.200, 1168.200 970.900, 1171.400 967.800, 1171.200 971.400, 1169.500 973.700, 1163.100 978.700, 1160.700 979.200, 1155.000 979.200, 1153.500 980.100, 1154.000 984.100, 1152.700 985.000, 1147.700 985.000, 1145.000 985.900, 1140.100 988.400, 1137.500 989.300, 1135.500 989.600, 1129.600 989.300, 1127.400 989.800, 1124.100 991.900, 1118.400 993.000, 1115.000 994.700, 1103.200 1004.900, 1101.600 1008.100, 1101.100 1013.000, 1100.600 1015.400, 1098.500 1019.900, 1097.800 1022.300, 1097.800 1024.400, 1098.000 1028.900, 1097.800 1031.000, 1095.600 1034.900, 1092.300 1037.300, 1088.900 1039.300, 1084.300 1043.100, 1079.800 1045.300, 1074.100 1051.000, 1072.500 1051.800, 1070.700 1052.300, 1069.100 1053.100, 1068.400 1054.700, 1067.900 1056.700, 1066.500 1059.400, 1064.800 1061.600, 1063.200 1062.600, 1058.900 1063.000, 1049.100 1066.900, 1037.800 1068.700, 1035.000 1070.500, 1032.100 1071.100, 1023.400 1068.700, 1019.500 1068.300, 1015.900 1069.700, 1009.600 1073.300, 1005.400 1074.000, 1001.400 1075.400, 998.300 1078.800, 992.400 1087.000, 986.000 1093.300, 983.400 1097.100, 982.200 1101.900, 983.100 1105.100, 985.300 1108.200, 988.200 1110.900, 995.400 1114.600, 1004.600 1117.900, 1008.800 1118.500, 1016.900 1118.600, 1020.900 1119.300, 1023.200 1121.400, 1024.900 1118.300, 1026.900 1117.900, 1032.100 1119.800, 1034.900 1119.600, 1038.000 1118.600, 1043.400 1115.500, 1046.700 1112.300, 1048.000 1111.200, 1049.300 1110.600, 1050.200 1110.200, 1052.600 1109.900, 1053.500 1110.300, 1053.800 1111.400, 1054.300 1111.700, 1056.000 1109.900, 1056.500 1108.300, 1056.600 1106.500, 1057.000 1104.500, 1058.300 1102.600, 1058.800 1107.200, 1061.400 1107.600, 1068.500 1105.200, 1067.200 1112.100, 1070.700 1116.500, 1076.400 1118.500, 1082.100 1118.200, 1086.100 1116.900, 1085.900 1114.800, 1084.300 1112.300, 1084.200 1109.600, 1085.800 1109.500, 1093.900 1110.900, 1098.600 1110.000, 1103.800 1107.500, 1107.400 1103.900, 1106.800 1099.600, 1110.100 1098.000, 1112.300 1094.800, 1113.400 1090.600, 1113.800 1086.100, 1113.300 1084.000, 1111.900 1079.200, 1111.900 1077.500, 1112.900 1076.300, 1114.200 1075.300, 1115.600 1075.200, 1117.100 1076.700, 1117.000 1078.200, 1115.800 1083.100, 1115.900 1085.300, 1116.800 1086.200, 1118.300 1087.500, 1119.800 1088.200, 1120.600 1087.500, 1121.300 1083.000, 1123.100 1080.900, 1129.700 1078.300, 1129.400 1077.300, 1128.900 1074.800, 1128.400 1073.800, 1133.000 1073.900, 1133.500 1071.000, 1130.600 1063.900, 1130.700 1062.000, 1131.300 1059.800, 1131.700 1057.600, 1130.600 1055.300, 1129.300 1054.900, 1122.900 1055.300, 1124.900 1052.600, 1127.700 1049.400, 1130.900 1047.700, 1133.600 1048.800, 1134.200 1052.300, 1133.300 1055.700, 1133.200 1058.100, 1136.600 1058.200, 1138.900 1057.000, 1141.100 1054.700, 1142.700 1052.300, 1143.400 1050.200, 1142.100 1047.300, 1139.900 1046.600, 1138.800 1045.200, 1141.000 1040.900, 1144.800 1035.300, 1147.300 1032.200, 1149.600 1031.000, 1151.200 1030.600, 1155.700 1027.400, 1157.400 1025.700, 1157.600 1024.100, 1157.500 1022.500, 1158.100 1020.700, 1160.300 1018.300, 1165.400 1014.100, 1167.700 1011.300, 1170.600 1005.500, 1172.400 1003.100, 1175.000 1002.200, 1173.300 1004.600, 1172.000 1007.700, 1172.000 1010.400, 1174.000 1012.200, 1176.400 1005.600, 1178.500 1002.400, 1180.900 1002.300, 1181.200 1004.900, 1179.400 1008.400, 1175.100 1013.700, 1177.500 1013.500, 1179.500 1012.900, 1183.200 1010.700, 1183.800 1014.200, 1185.500 1014.900, 1187.800 1014.000, 1190.000 1012.200, 1190.500 1015.100, 1191.800 1016.400, 1193.700 1016.400, 1195.700 1015.300, 1195.200 1014.200, 1195.000 1013.500, 1194.500 1012.900, 1193.500 1012.200, 1194.500 1010.300, 1195.900 1008.700, 1197.400 1007.500, 1199.300 1006.600, 1199.200 1008.700, 1199.500 1010.200, 1200.200 1011.200, 1201.400 1012.200, 1202.700 1010.300, 1211.600 1005.100, 1221.300 993.000, 1227.900 980.000, 1233.100 975.900, 1239.400 966.600, 1242.200 963.400, 1242.700 964.300, 1243.200 965.000, 1239.000 974.700, 1216.300 1007.900, 1210.400 1011.900, 1209.500 1013.700, 1211.200 1017.100, 1215.500 1015.700, 1224.200 1010.800, 1224.800 1012.100, 1227.300 1011.000, 1233.200 1006.800, 1232.000 1005.200, 1231.000 1006.700, 1229.900 1007.600, 1228.800 1007.600, 1227.500 1006.800, 1229.400 1004.100, 1232.500 998.500, 1234.300 996.700, 1236.700 995.900, 1237.900 997.000, 1237.700 999.400, 1236.600 1002.500, 1238.900 1001.100, 1244.500 996.800, 1242.300 995.000, 1241.100 992.400, 1240.200 989.400, 1238.700 986.500, 1237.700 989.400, 1236.600 988.800, 1236.100 988.300, 1235.700 987.700, 1235.500 986.500, 1240.400 982.800, 1243.200 980.000, 1245.700 973.900, 1251.000 967.300, 1252.300 964.300, 1253.200 961.500, 1257.200 955.500, 1258.100 951.400, 1256.700 945.200, 1257.100 942.400, 1259.800 944.400, 1264.800 945.000, 1269.900 938.300, 1274.000 929.400, 1278.300 916.700, 1279.000 912.600, 1278.400 909.100, 1275.800 907.300, 1272.400 906.500, 1269.100 905.200, 1266.900 901.800, 1277.000 906.100, 1281.300 906.900, 1282.600 907.700, 1283.100 908.500, 1283.400 911.000, 1283.800 912.000, 1287.600 916.100, 1290.300 917.700, 1292.900 917.600, 1294.800 915.700, 1295.700 910.400, 1297.600 907.800, 1297.700 910.300, 1298.400 911.800, 1299.300 913.000, 1299.800 914.800, 1300.000 914.900, 1300.700 916.800, 1301.000 917.700, 1300.500 917.700, 1299.500 918.300, 1298.800 919.400, 1298.700 920.800, 1301.000 923.700, 1304.100 923.300, 1310.100 919.300, 1308.800 922.200, 1309.700 924.900, 1310.900 929.800, 1312.300 932.200, 1313.200 932.400, 1314.100 931.700, 1315.100 931.100, 1316.300 931.600, 1317.000 932.800, 1316.600 933.700, 1316.100 934.600, 1315.700 935.800, 1319.700 948.500, 1320.800 950.100, 1320.300 952.300, 1320.500 955.400, 1321.100 958.400, 1321.900 960.400, 1322.500 961.400, 1323.100 963.000, 1323.700 963.800, 1324.600 963.900, 1326.300 962.300, 1327.200 962.400, 1329.000 966.000, 1329.100 970.500, 1327.200 979.600, 1330.100 980.900, 1329.700 983.100, 1328.100 986.000, 1327.200 989.100, 1326.900 991.000, 1326.300 992.300, 1324.300 994.900, 1323.800 996.400, 1324.500 997.600, 1325.500 998.900, 1326.000 1000.700, 1327.400 1001.200, 1336.200 998.400, 1335.800 998.800, 1336.600 999.800, 1338.500 1001.400, 1339.400 1001.600, 1343.000 1001.400, 1343.000 1002.900, 1335.500 1005.000, 1331.800 1006.700, 1328.900 1009.300, 1326.000 1013.500, 1325.300 1015.500, 1327.200 1015.900, 1331.500 1015.900, 1330.300 1018.400, 1328.400 1020.300, 1323.700 1022.900, 1324.000 1026.000, 1321.200 1027.700, 1317.500 1028.100, 1314.600 1027.300, 1314.800 1027.300, 1315.600 1026.800, 1316.100 1026.200, 1315.700 1025.800, 1313.000 1024.600, 1311.700 1025.200, 1311.100 1028.100, 1311.200 1032.600, 1311.700 1034.600, 1312.800 1036.600, 1316.200 1039.000, 1320.400 1041.100, 1322.400 1042.500, 1319.200 1043.000, 1310.700 1041.600, 1309.400 1042.600, 1308.600 1045.000, 1308.000 1047.600, 1307.200 1049.600, 1304.400 1053.900, 1294.500 1078.900, 1292.400 1082.300, 1286.200 1090.200, 1285.400 1092.300, 1284.600 1096.700, 1284.000 1098.700, 1280.400 1106.300, 1279.000 1110.500, 1278.400 1114.900, 1278.700 1119.300, 1280.000 1125.600, 1279.900 1126.700, 1280.500 1127.200, 1282.800 1128.300, 1291.400 1129.900, 1292.300 1130.300, 1293.800 1132.200, 1294.800 1132.600, 1295.800 1132.400, 1297.600 1131.500, 1298.800 1131.300, 1301.100 1131.300, 1302.800 1131.000, 1304.500 1130.100, 1306.800 1128.300, 1310.700 1123.900, 1312.500 1122.700, 1318.300 1121.700, 1319.900 1120.600, 1320.700 1118.500, 1321.300 1116.400, 1322.100 1114.700, 1325.700 1113.600, 1329.600 1111.000, 1330.600 1109.900, 1331.500 1108.100, 1332.300 1104.000, 1333.000 1102.600, 1334.300 1101.900, 1340.200 1099.800, 1341.300 1098.700, 1348.500 1084.300, 1349.800 1082.600, 1351.100 1082.200, 1354.900 1081.900, 1356.800 1081.200, 1360.300 1078.200, 1361.700 1076.300, 1360.200 1074.800, 1361.700 1073.300, 1363.700 1072.000, 1364.700 1071.900, 1367.100 1064.000, 1368.200 1061.900, 1369.300 1060.200, 1370.800 1058.900, 1372.800 1058.300, 1371.700 1060.700, 1369.200 1068.200, 1374.700 1065.900, 1378.500 1060.500, 1384.100 1048.200, 1383.800 1050.800, 1382.000 1057.100, 1382.300 1058.300, 1384.800 1057.900, 1388.600 1056.100, 1391.000 1055.400, 1389.800 1058.400, 1390.100 1061.000, 1391.600 1062.600, 1394.300 1062.600, 1392.100 1065.300, 1383.700 1070.500, 1380.600 1073.900, 1382.500 1075.800, 1381.200 1078.500, 1376.800 1083.200, 1373.400 1088.000, 1370.400 1093.800, 1376.200 1092.500, 1377.500 1093.500, 1375.600 1097.400, 1375.000 1099.300, 1376.100 1100.500, 1377.700 1101.100, 1378.900 1101.300, 1379.500 1100.400, 1381.300 1096.800, 1381.900 1095.300, 1383.000 1095.300, 1383.700 1097.200, 1383.900 1098.900, 1383.700 1100.700, 1383.000 1102.500, 1385.200 1103.200, 1387.200 1102.400, 1389.200 1100.600, 1391.100 1098.200, 1390.700 1102.400, 1386.500 1105.800, 1378.000 1110.400, 1376.900 1112.600, 1375.700 1118.000, 1374.500 1120.300, 1372.900 1122.500, 1371.700 1124.400, 1371.000 1126.600, 1370.300 1132.100, 1370.500 1133.100, 1371.600 1132.600, 1375.800 1129.400, 1386.900 1114.600, 1389.000 1113.000, 1394.200 1111.900, 1396.500 1111.000, 1394.400 1114.400, 1386.900 1116.100, 1385.200 1119.000, 1383.800 1122.900, 1377.700 1129.900, 1376.300 1133.100, 1376.500 1135.400, 1377.100 1137.700, 1377.400 1140.000, 1376.800 1141.800, 1374.600 1144.900, 1371.600 1150.900, 1371.600 1154.600, 1371.800 1156.300, 1373.300 1161.000, 1373.900 1162.500, 1379.200 1168.600, 1385.000 1170.200, 1391.000 1168.100, 1397.000 1163.100, 1398.600 1162.300, 1400.600 1161.700, 1402.500 1160.700, 1403.800 1157.300, 1405.100 1155.800, 1407.800 1153.800, 1412.300 1148.400, 1414.900 1146.000, 1418.000 1145.200, 1413.500 1153.500, 1412.300 1156.600, 1415.500 1152.400, 1417.400 1150.500, 1419.200 1149.700, 1420.000 1150.800, 1421.000 1153.000, 1422.100 1154.700, 1423.200 1154.600, 1427.400 1149.100, 1430.100 1146.600, 1432.800 1145.300, 1432.600 1150.300, 1434.900 1156.800, 1438.500 1162.800, 1442.000 1166.700, 1445.000 1168.300, 1447.800 1168.800, 1453.300 1168.000, 1461.700 1163.800, 1465.900 1160.400, 1471.700 1145.900, 1475.400 1142.600, 1475.700 1142.300, 1480.400 1141.100, 1481.500 1139.700, 1483.300 1136.100, 1486.600 1134.300, 1487.300 1131.800, 1487.500 1128.900, 1488.500 1126.800, 1487.800 1122.600, 1489.100 1118.300, 1491.000 1113.700, 1491.900 1109.200, 1496.400 1101.200, 1495.800 1099.900, 1494.400 1099.200, 1493.700 1097.900, 1494.100 1096.400, 1496.400 1095.500, 1494.200 1091.900, 1495.200 1089.500, 1500.900 1085.400, 1500.900 1083.900, 1499.800 1083.200, 1498.900 1081.800, 1498.000 1080.200, 1497.500 1078.300, 1500.600 1079.200, 1502.300 1078.000, 1501.800 1076.200, 1498.600 1075.300, 1495.500 1075.000, 1487.100 1072.500, 1490.000 1071.100, 1496.100 1070.800, 1498.500 1069.600, 1500.100 1066.700, 1501.200 1062.700, 1502.000 1056.000, 1502.300 1054.500, 1503.200 1053.600, 1503.900 1052.400, 1504.700 1048.200, 1506.300 1044.700, 1507.500 1040.000, 1509.000 1038.400, 1509.700 1036.700, 1507.600 1033.600, 1512.800 1031.800, 1515.100 1030.300, 1516.600 1028.000, 1514.800 1028.200, 1513.000 1028.100, 1511.300 1027.600, 1509.800 1026.500, 1512.300 1025.600, 1517.700 1025.000, 1520.100 1023.600, 1521.400 1021.100, 1523.400 1013.600, 1524.600 1010.600, 1526.200 1008.600, 1530.600 1004.500, 1532.500 1002.100, 1533.600 999.200, 1533.000 997.400, 1528.100 993.400, 1533.200 989.800, 1535.800 988.500, 1538.300 988.900, 1540.200 983.300, 1540.200 981.200, 1534.500 980.000 	"/>
	<polygon fill="#e3dac9" points="1024.000 550.300, 1022.900 552.500, 1022.300 555.700, 1022.300 558.900, 1022.800 560.800, 1026.900 561.900, 1031.800 559.200, 1035.400 554.800, 1035.300 550.500, 1026.200 549.900, 1024.000 550.300 	"/>
	<polygon fill="#e3dac9" points="1052.500 252.300, 1054.200 251.100, 1055.600 249.500, 1056.800 246.300, 1054.400 243.000, 1050.900 243.400, 1044.300 247.600, 1040.000 247.800, 1038.300 248.700, 1039.400 251.300, 1042.600 255.300, 1042.800 257.200, 1041.000 259.600, 1046.800 263.000, 1049.900 264.200, 1053.600 264.200, 1052.100 260.800, 1050.200 258.900, 1049.300 257.100, 1050.500 254.400, 1052.500 252.300 	"/>
	<polygon fill="#e3dac9" points="988.600 946.900, 983.800 946.800, 965.100 951.000, 960.900 953.600, 960.600 957.200, 962.700 958.700, 968.100 958.600, 972.200 960.800, 985.800 963.700, 990.300 964.000, 994.600 963.500, 998.800 961.600, 995.300 959.800, 991.100 956.800, 988.800 952.900, 991.000 948.700, 988.600 946.900 	"/>
	<polygon fill="#e3dac9" points="1282.600 978.600, 1282.000 974.100, 1283.600 967.400, 1288.200 955.800, 1288.500 951.500, 1287.600 950.200, 1286.300 951.300, 1281.100 963.500, 1280.200 967.400, 1278.000 965.800, 1278.700 964.500, 1280.200 960.300, 1278.200 961.600, 1268.800 972.400, 1267.800 974.600, 1273.000 973.700, 1272.500 977.600, 1265.500 988.900, 1250.600 1002.100, 1248.600 1004.700, 1250.500 1006.100, 1263.400 1007.700, 1266.100 1007.000, 1268.100 1005.200, 1278.700 984.500, 1282.600 978.600 	"/>
	<polygon fill="#e3dac9" points="951.600 1136.800, 951.800 1135.500, 952.300 1134.400, 953.100 1133.400, 953.900 1132.400, 954.500 1129.500, 952.300 1128.700, 949.100 1129.100, 947.200 1129.700, 944.600 1131.600, 942.600 1133.600, 939.100 1138.200, 942.200 1140.600, 946.400 1140.900, 950.900 1140.000, 954.800 1138.200, 953.900 1137.900, 951.600 1136.800 	"/>
	<polygon fill="#e3dac9" points="933.700 1111.400, 929.300 1111.200, 927.500 1110.400, 926.800 1107.800, 926.800 1099.200, 927.100 1098.600, 927.800 1097.900, 928.300 1096.900, 928.000 1095.500, 927.100 1094.700, 926.100 1094.500, 925.100 1094.500, 923.800 1093.900, 922.800 1093.900, 921.800 1093.700, 921.100 1092.600, 921.100 1090.700, 922.100 1090.400, 924.500 1091.200, 927.400 1089.900, 928.600 1089.700, 929.100 1090.200, 929.300 1091.200, 929.800 1092.200, 930.800 1092.600, 932.700 1091.700, 933.800 1089.700, 934.500 1087.700, 936.700 1085.800, 937.300 1083.200, 937.500 1080.300, 937.200 1078.300, 928.700 1072.200, 922.900 1070.900, 920.100 1069.700, 917.800 1067.400, 917.600 1065.200, 919.400 1063.100, 922.500 1061.100, 920.500 1059.900, 918.500 1060.100, 916.700 1061.400, 915.000 1063.300, 913.600 1065.800, 913.500 1067.800, 914.400 1071.200, 914.900 1078.700, 915.500 1082.100, 923.400 1098.900, 924.800 1107.100, 922.400 1115.300, 916.300 1120.200, 913.600 1123.400, 914.400 1126.000, 917.100 1128.100, 917.100 1129.600, 916.600 1131.200, 917.800 1133.900, 919.800 1135.100, 921.900 1134.500, 931.300 1128.200, 937.900 1122.300, 940.200 1116.200, 933.700 1111.400 	"/>
	<polygon fill="#e3dac9" points="1171.600 1034.200, 1171.900 1039.100, 1174.600 1041.500, 1176.900 1039.200, 1177.900 1035.800, 1180.200 1032.700, 1177.600 1031.500, 1171.600 1034.200 	"/>
	<polygon fill="#e3dac9" points="1283.100 1013.100, 1284.600 1006.400, 1282.300 1003.400, 1279.000 1002.700, 1276.100 1007.900, 1274.600 1009.600, 1272.600 1010.400, 1272.000 1013.100, 1273.800 1014.900, 1278.900 1014.900, 1283.100 1013.100 	"/>
	<polygon fill="#e3dac9" points="1470.100 960.800, 1468.200 965.000, 1472.300 966.200, 1477.200 965.500, 1482.100 961.000, 1486.900 957.600, 1486.500 953.800, 1480.300 953.300, 1470.100 960.800 	"/>
	<polygon fill="#e3dac9" points="1003.400 410.400, 1002.800 412.400, 998.000 412.600, 997.600 414.000, 1000.700 415.000, 1004.400 415.500, 1005.900 414.400, 1007.900 412.600, 1006.600 411.000, 1004.900 410.200, 1003.400 410.400 	"/>
	<polygon fill="#e3dac9" points="1023.300 407.000, 1019.800 406.600, 1017.800 406.600, 1011.700 407.000, 1011.300 409.200, 1013.400 412.000, 1018.800 413.600, 1023.400 414.000, 1026.700 415.900, 1028.900 415.000, 1028.000 412.700, 1026.100 409.200, 1023.300 407.000 	"/>
	<polygon fill="#e3dac9" points="770.800 284.000, 772.300 284.600, 774.400 284.900, 776.900 283.100, 777.200 281.700, 779.800 280.400, 782.000 279.500, 783.400 278.800, 782.500 277.700, 780.700 276.300, 779.500 274.900, 777.500 275.200, 776.400 275.800, 775.800 274.900, 772.700 274.900, 770.600 275.800, 768.500 277.900, 768.300 280.000, 769.500 281.700, 771.300 281.900, 773.400 281.900, 774.500 282.600, 772.500 283.300, 770.800 284.000 	"/>
</g>
<!-- paths -->
<g id="trail-path" display="none">
<path display="inline" fill="none" stroke="#010101"	stroke-width="5" stroke-miterlimit="10"
	d="M1524.4,974.3c-1.8,10.9-5.4,24.7-12.5,39.5c-3.2,6.6-6.7,12.5-10.1,17.5c-0.9,1.8-2.4,4.8-3.8,8.7
	c-4.6,12.6-2.3,17-6.9,22.8c-4.4,5.5-10.2,6.1-9.8,9.2c0.3,2.8,5.3,2.6,7.8,6.5c2.6,3.9-0.1,7.6-3.1,19.9s-2,15.5-6.1,28.1
	c-0.9,2.7-36.9,24.4-43.4,21.1c-4.2-2.1-5.8-5.7-11.6-6.9c-8.6-1.8-13.6,4.4-22.4,6.3c-6.3,1.3-15.5,0.6-28.3-8.4
	c-0.2,0.1,3.2-5.4,7.3-11.7c8.6-13,8.3-17.5,8-19.2c-0.5-2.9-1.6-3.2-2.6-6c-2.9-8.5,3.6-15.2,8.9-28.9c5-12.9,6.9-27.2,2.7-29.7
	c-1-0.6-4.8-2-9.3-1.5c-0.3,0-0.2,0-0.6,0.1c-5,0.6-8.5-0.2-10-0.3c-4.7-0.2-7.2,6.1-14.8,14.5c-5.7,6.3-6.7,5.6-11.9,11
	c-9.5,10-8.2,15.1-17,28.2c-9,13.5-13.5,20.2-21,21.2c-9.3,1.3-19.5-6.6-29-1.7c-0.9,0.4-1.6,0.9-2.2,0.6
	c-2.9-1.7,3.6-23.1,15.8-41.1c9.4-13.9,15.4-15.9,21.7-30.4c3.9-9,1.5-12.5,5.6-17.4c8.4-10.1,21.1-3.7,30-11.6
	c10.3-9.1,8.1-30.8,2.2-44.7c-6.9-16.5-15.2-13-36.6-39.6c-7.3-9-12.2-12.3-12.5-12.8c-17-28.1,22.2-63.3,8-87.2
	c-10.2-17.2-38.5-13-41.8-30.2c-0.1-0.8-1.9-10.7,3.8-16.6c2.9-3.1,7.1-4.3,10.3-5.3c7-2.1,9.2-0.6,11.9-2c5.4-3,9.8-23.4,0-38.5
	c-4.7-7.3-11.8-11.8-14.1-13.3c-3-1.9-3-1.5-11.9-5.8c-11.1-5.4-16.8-8.2-20.9-12.1c-3.4-3.2-3.2-4.1-7.8-8.4
	c-1.2-1.1-5.1-4.7-10.5-8.2c-9.3-6-13.3-5.5-25.9-11.5c-9.6-4.6-14.3-6.9-15.5-9.9c-3.1-8.1,10.2-13.8,18.2-31.9
	c8.4-19,5.1-38.1,4.2-42.7c-3.5-18.5-11.6-20.6-10.3-30.2c3.3-24.7,60.7-35.1,60.2-36.9c-0.6-2.1-28.8-2.2-52.1,15.4
	c-9.5,7.2-16.1,15.7-23.9,25.6c-15.8,20.3-18.1,30.9-29.8,34.1c-9.9,2.7-13.3-3.6-22.4-0.4c-13.2,4.6-9.2,19.6-22.6,31.8
	c-14.9,13.6-29,3.4-51.9,18.8c-12.5,8.4-10.1,12.6-20.1,19c-21.3,13.6-60.4,12.9-76.3-6.3c-20.8-25,10.3-66.4-13-89
	c-10-9.8-24.3-10.3-29-10.5c-29.3-1.1-65.1,25.2-78,34.7c-4.8,3.5-13.5,10.2-20.1,7.3c-7.6-3.3-6.6-16.4-12.5-17.7
	c-5.1-1.1-10,7.5-15.6,13.8c-14.1,16-41,26.6-57.5,21.1c-20.3-6.8-11.5-33.5-39.6-53.7c-15.6-11.2-27.4-9.6-33.2-22.3
	c-5.7-12.2-0.6-26.4,1.8-33.2c4.9-13.7,10.9-15.9,20.5-33.2c4.6-8.3,6.6-13.9,11.8-27.8c42.8-114.4,16.8-35.3,43.2-101.1
	c2.4-5.9,5.4-13.7,13.2-19.1c13.3-9.3,31.1-5.5,31.5-8.5c0.3-2.8-14.8-4-16.4-10.6c-1.6-6.4,10.7-12.6,22.7-23.1
	c12.6-10.9,20.5-25.6,36.5-54.8c19.8-36.3,17.5-43.7,15.7-47.1c-2.7-5.2-6.1-4.4-24.8-14.3c-18.6-10-38.2-23-37-25.6
	c0.1-0.3,18.2-9.3,24.6-9.4c11.3-0.2,19.8-12.4,23.7-17.9c13.3-19,5.1-31.1,14.9-37.4c0.2-0.1,0.6-0.4,1.1-0.8
	c17.9-12.4,44.1-1.4,44.1-1.4
		"/>
</g>
<g id="camera-path" display="none">
	<path display="inline" fill="none" stroke="#EC2227" stroke-width="3" stroke-miterlimit="10"
		d="
			M1510,959.8c21.9,67.2-40.955,125.659-89.755,153.659-59.9,34.4-95.962,12.379-102.962-21.221-5.7-27.6,33.617-44.038,38.417-90.738,4.3-41.7-51.2-448.1-102.6-470.4-38.1-16.5-80.732,40.441-203.832,84.841-149.6,54-355.921,33.049-374.121-69.951C654.947,431.39,877.4,353.5,855.8,197.1c-7.7-55.7-19.512-85.6-32.012-82.1-13.1,3.7-17.188,43.5-26.288,116.4-7.132,56.951,7.12,249.557,116,365.6,204.084,217.509,574.254,379.269,588.6,374.9
		"/>
</g>
<!-- points -->
<g id="points" display="none">
	<!--<circle id="" display="inline" fill="#405b54" cx="1500" cy="980" r="0.01"/>--> <!-- Day 10 Departure -->
	<!--<circle id="Botwood" display="inline" fill="#405b54" cx="1074" cy="635.4" r="3.1415"/>--><!-- Day 9 Botwood -->
	<!--<circle id="" display="inline" fill="#405b54" cx="785.5" cy="148.3" r="0.01"/> Day 8 Red Bay Loop back to Blanc Sablon-->
	<circle id="Red Bay" display="inline" fill="#405b54" cx="896.6" cy="85.7" r="3.1415"/><!-- Day 8 Crossing the Strait -->
	<circle id="Blanc Sablon" display="inline" fill="#405b54" cx="786.5" cy="149.3" r="3.1415"/><!-- Day 8 Crossing the Strait -->
	<circle id="St Barbe" display="inline" fill="#405b54" cx="850.1" cy="190.6" r="3.1415"/><!-- Day 7 Ste Barbe -->
	<circle id="Gros Morne" display="inline" fill="#405b54" cx="670.62" cy="555.7" r="3.1415"/><!-- Day 6 Gros Morne -->
	<circle id="Fogo Island" display="inline" fill="#405b54" cx="1266.4" cy="525.3" r="3.1415"/><!-- Day 5 Fogo Island -->
	<circle id="Arnold's Cove" display="inline" fill="#405b54" cx="1304.2" cy="916.9" r="3.1415"/><!-- Day 4 Arnold's Cove -->
	<circle id="Mt. Carmel" display="inline" fill="#405b54" cx="1400" cy="1052" r="3.1415"/><!-- Day 3 Mt Carmel -->
	<circle id="" cx="1525" display="inline" fill="#405b54" cy="972" r="0.01"/><!-- Day 2 St John's -->
	<circle id="St John's" display="inline" fill="#405b54" cx="1524.4" cy="973.7" r="3.1415"/> <!-- Day 1 Arrival -->
</g>
<g>
	<text transform="matrix(1 0 0 1 1288 1124.4)" fill="#939598" font-family="'Helvetica Neue',Helvetica,Arial,sans-serif" font-weight='400' font-size="5">St Mary's</text>
	<circle fill="#A8AAAD" cx="1284.2" cy="1124.4" r="2.52"/>
	<text transform="matrix(1 0 0 1 1381.3618 1136.1411)" fill="#939598" font-family="'Helvetica Neue',Helvetica,Arial,sans-serif" font-weight='400' font-size="5">St Vincents</text>
	<circle fill="#A8AAAD" cx="1377.6" cy="1136.1" r="2.52"/>
	<text transform="matrix(1 0 0 1 1516.842 1025.8406)" fill="#939598" font-family="'Helvetica Neue',Helvetica,Arial,sans-serif" font-weight='400' font-size="5">Witless Bay</text>
	<circle fill="#A8AAAD" cx="1513" cy="1025.8" r="2.52"/>
</g>
</svg>
